<svg width="45" height="43" viewBox="0 0 45 43" fill="none" xmlns="http://www.w3.org/2000/svg">
<path fill-rule="evenodd" clip-rule="evenodd" d="M22.3546 0C10.0137 0 0 9.57044 0 21.365C0 33.1596 10.0137 42.73 22.3546 42.73C34.6954 42.73 44.7091 33.1596 44.7091 21.365C44.7091 9.57044 34.6954 0 22.3546 0ZM8.95634 23.1172V22.9825L8.95635 22.9824C9.1679 22.4432 9.37946 21.9041 9.59101 21.2975C9.69678 21.0279 9.78493 20.7584 9.87308 20.4888L9.87308 20.4887C9.96123 20.2192 10.0494 19.9496 10.1552 19.68C10.2257 19.5452 10.2962 19.4778 10.4372 19.4778H19.7458H19.9573C19.9573 19.5115 19.9397 19.562 19.9221 19.6126C19.9044 19.6631 19.8868 19.7137 19.8868 19.7474L18.829 22.7803C18.7585 22.9825 18.688 23.0498 18.4059 23.0498H9.23841C9.16789 23.1172 9.02685 23.1172 8.95634 23.1172ZM35.7528 16.9178L35.7532 16.9167V16.1079C35.7532 16.0742 35.7355 16.0405 35.7179 16.0068C35.7003 15.9731 35.6826 15.9394 35.6826 15.9057C35.4711 14.9622 34.9069 14.2882 33.9197 13.9512C33.5671 13.8838 33.144 13.8164 32.7914 13.8164H15.0205C14.809 13.8164 14.7385 13.8838 14.6679 14.086C14.4916 14.6252 14.2977 15.1643 14.1038 15.7035C13.9099 16.2427 13.7159 16.7819 13.5396 17.3211C13.5396 17.349 13.5275 17.3769 13.5134 17.4096C13.4933 17.4559 13.4691 17.5117 13.4691 17.5907H29.9001C29.9001 17.6696 29.8759 17.7255 29.8558 17.7717C29.8417 17.8044 29.8296 17.8323 29.8296 17.8603C29.4417 19.0397 29.0362 20.2191 28.6307 21.3986C28.2253 22.5781 27.8198 23.7575 27.4319 24.937C27.3614 25.1392 27.2204 25.2066 27.0088 25.2066H11.2125C11.0009 25.2066 10.8599 25.2066 10.7894 25.4762C10.5073 26.4197 10.1547 27.4307 9.80212 28.3743C9.7316 28.5091 9.66108 28.7112 9.59056 28.9134H9.94316C11.8655 28.9134 13.7956 28.906 15.7309 28.8985C19.6173 28.8835 23.5246 28.8685 27.4319 28.9134C30.0411 28.9808 32.4388 26.7567 33.0029 25.0718C33.9195 22.3089 34.8362 19.6133 35.7528 16.9178Z" fill="#AEC6EE"/>
</svg>
