<svg width="42" height="41" viewBox="0 0 42 41" fill="none" xmlns="http://www.w3.org/2000/svg">
<path d="M8.10425 36.1139C8.72382 36.1139 9.22608 35.7791 9.22608 35.366C9.22608 34.953 8.72382 34.6182 8.10425 34.6182C7.48468 34.6182 6.98242 34.953 6.98242 35.366C6.98242 35.7791 7.48468 36.1139 8.10425 36.1139Z" fill="url(#paint0_linear)" stroke="url(#paint1_linear)"/>
<path d="M11.8445 36.1141C12.4641 36.1141 12.9663 35.7792 12.9663 35.3662C12.9663 34.9531 12.4641 34.6183 11.8445 34.6183C11.2249 34.6183 10.7227 34.9531 10.7227 35.3662C10.7227 35.7792 11.2249 36.1141 11.8445 36.1141Z" fill="url(#paint2_linear)" stroke="url(#paint3_linear)"/>
<path d="M15.2098 36.1144C15.6228 36.1144 15.9577 35.7796 15.9577 35.3665C15.9577 34.9535 15.6228 34.6187 15.2098 34.6187C14.7968 34.6187 14.4619 34.9535 14.4619 35.3665C14.4619 35.7796 14.7968 36.1144 15.2098 36.1144Z" fill="url(#paint4_linear)" stroke="url(#paint5_linear)"/>
<path d="M20.445 38.844V39.8537H1V31.627H1.95155V38.844H20.445Z" fill="url(#paint6_linear)" stroke="url(#paint7_linear)"/>
<path d="M8.10425 36.1139C8.72382 36.1139 9.22608 35.7791 9.22608 35.366C9.22608 34.953 8.72382 34.6182 8.10425 34.6182C7.48468 34.6182 6.98242 34.953 6.98242 35.366C6.98242 35.7791 7.48468 36.1139 8.10425 36.1139Z" fill="url(#paint8_linear)" stroke="url(#paint9_linear)"/>
<path d="M11.8445 36.1141C12.4641 36.1141 12.9663 35.7792 12.9663 35.3662C12.9663 34.9531 12.4641 34.6183 11.8445 34.6183C11.2249 34.6183 10.7227 34.9531 10.7227 35.3662C10.7227 35.7792 11.2249 36.1141 11.8445 36.1141Z" fill="url(#paint10_linear)" stroke="url(#paint11_linear)"/>
<path d="M15.2098 36.1144C15.6228 36.1144 15.9577 35.7796 15.9577 35.3665C15.9577 34.9535 15.6228 34.6187 15.2098 34.6187C14.7968 34.6187 14.4619 34.9535 14.4619 35.3665C14.4619 35.7796 14.7968 36.1144 15.2098 36.1144Z" fill="url(#paint12_linear)" stroke="url(#paint13_linear)"/>
<path d="M8.10425 28.6353C8.72382 28.6353 9.22608 28.133 9.22608 27.5134C9.22608 26.8939 8.72382 26.3916 8.10425 26.3916C7.48468 26.3916 6.98242 26.8939 6.98242 27.5134C6.98242 28.133 7.48468 28.6353 8.10425 28.6353Z" fill="url(#paint14_linear)" stroke="url(#paint15_linear)"/>
<path d="M11.8445 28.6353C12.4641 28.6353 12.9663 28.133 12.9663 27.5134C12.9663 26.8939 12.4641 26.3916 11.8445 26.3916C11.2249 26.3916 10.7227 26.8939 10.7227 27.5134C10.7227 28.133 11.2249 28.6353 11.8445 28.6353Z" fill="url(#paint16_linear)" stroke="url(#paint17_linear)"/>
<path d="M15.2098 28.6353C15.6228 28.6353 15.9577 28.133 15.9577 27.5134C15.9577 26.8939 15.6228 26.3916 15.2098 26.3916C14.7968 26.3916 14.4619 26.8939 14.4619 27.5134C14.4619 28.133 14.7968 28.6353 15.2098 28.6353Z" fill="url(#paint18_linear)" stroke="url(#paint19_linear)"/>
<path d="M18.9492 30.7089V31.6268H1V24.1479H1.97141V30.7089H18.9492Z" fill="url(#paint20_linear)" stroke="url(#paint21_linear)"/>
<path d="M8.10425 28.6353C8.72382 28.6353 9.22608 28.133 9.22608 27.5134C9.22608 26.8939 8.72382 26.3916 8.10425 26.3916C7.48468 26.3916 6.98242 26.8939 6.98242 27.5134C6.98242 28.133 7.48468 28.6353 8.10425 28.6353Z" fill="url(#paint22_linear)" stroke="url(#paint23_linear)"/>
<path d="M11.8445 28.6353C12.4641 28.6353 12.9663 28.133 12.9663 27.5134C12.9663 26.8939 12.4641 26.3916 11.8445 26.3916C11.2249 26.3916 10.7227 26.8939 10.7227 27.5134C10.7227 28.133 11.2249 28.6353 11.8445 28.6353Z" fill="url(#paint24_linear)" stroke="url(#paint25_linear)"/>
<path d="M15.2098 28.6353C15.6228 28.6353 15.9577 28.133 15.9577 27.5134C15.9577 26.8939 15.6228 26.3916 15.2098 26.3916C14.7968 26.3916 14.4619 26.8939 14.4619 27.5134C14.4619 28.133 14.7968 28.6353 15.2098 28.6353Z" fill="url(#paint26_linear)" stroke="url(#paint27_linear)"/>
<path d="M8.10425 20.4084C8.72382 20.4084 9.22608 20.0735 9.22608 19.6605C9.22608 19.2474 8.72382 18.9126 8.10425 18.9126C7.48468 18.9126 6.98242 19.2474 6.98242 19.6605C6.98242 20.0735 7.48468 20.4084 8.10425 20.4084Z" fill="url(#paint28_linear)" stroke="url(#paint29_linear)"/>
<path d="M11.8445 20.4084C12.4641 20.4084 12.9663 20.0735 12.9663 19.6605C12.9663 19.2474 12.4641 18.9126 11.8445 18.9126C11.2249 18.9126 10.7227 19.2474 10.7227 19.6605C10.7227 20.0735 11.2249 20.4084 11.8445 20.4084Z" fill="url(#paint30_linear)" stroke="url(#paint31_linear)"/>
<path d="M15.2098 20.4084C15.6228 20.4084 15.9577 20.0735 15.9577 19.6605C15.9577 19.2474 15.6228 18.9126 15.2098 18.9126C14.7968 18.9126 14.4619 19.2474 14.4619 19.6605C14.4619 20.0735 14.7968 20.4084 15.2098 20.4084Z" fill="url(#paint32_linear)" stroke="url(#paint33_linear)"/>
<path d="M1.97141 16.1547V23.1666H18.9492V24.148H1V15.1733H18.9492V16.1547H1.97141Z" fill="url(#paint34_linear)" stroke="url(#paint35_linear)"/>
<path d="M8.10425 20.4084C8.72382 20.4084 9.22608 20.0735 9.22608 19.6605C9.22608 19.2474 8.72382 18.9126 8.10425 18.9126C7.48468 18.9126 6.98242 19.2474 6.98242 19.6605C6.98242 20.0735 7.48468 20.4084 8.10425 20.4084Z" fill="url(#paint36_linear)" stroke="url(#paint37_linear)"/>
<path d="M11.8445 20.4084C12.4641 20.4084 12.9663 20.0735 12.9663 19.6605C12.9663 19.2474 12.4641 18.9126 11.8445 18.9126C11.2249 18.9126 10.7227 19.2474 10.7227 19.6605C10.7227 20.0735 11.2249 20.4084 11.8445 20.4084Z" fill="url(#paint38_linear)" stroke="url(#paint39_linear)"/>
<path d="M15.2098 20.4084C15.6228 20.4084 15.9577 20.0735 15.9577 19.6605C15.9577 19.2474 15.6228 18.9126 15.2098 18.9126C14.7968 18.9126 14.4619 19.2474 14.4619 19.6605C14.4619 20.0735 14.7968 20.4084 15.2098 20.4084Z" fill="url(#paint40_linear)" stroke="url(#paint41_linear)"/>
<path d="M29.7934 29.3833C29.2757 29.3833 28.7696 29.5368 28.3391 29.8244C27.9087 30.1121 27.5732 30.5209 27.375 30.9992C27.1769 31.4775 27.1251 32.0038 27.2261 32.5116C27.3271 33.0193 27.5764 33.4857 27.9425 33.8518C28.3085 34.2179 28.7749 34.4672 29.2827 34.5682C29.7905 34.6692 30.3168 34.6174 30.7951 34.4192C31.2734 34.2211 31.6822 33.8856 31.9698 33.4552C32.2575 33.0247 32.411 32.5186 32.411 32.0009C32.4104 31.3069 32.1344 30.6414 31.6436 30.1507C31.1529 29.6599 30.4874 29.3839 29.7934 29.3833ZM29.7934 33.682C29.4609 33.682 29.1359 33.5834 28.8594 33.3987C28.583 33.2139 28.3675 32.9514 28.2403 32.6442C28.113 32.337 28.0797 31.999 28.1446 31.6729C28.2095 31.3468 28.3696 31.0473 28.6047 30.8122C28.8398 30.5771 29.1393 30.417 29.4654 30.3521C29.7915 30.2873 30.1295 30.3206 30.4367 30.4478C30.7439 30.575 31.0064 30.7905 31.1911 31.0669C31.3759 31.3434 31.4744 31.6684 31.4744 32.0009C31.4744 32.447 31.2974 32.8748 30.9822 33.1904C30.667 33.5061 30.2394 33.6837 29.7934 33.6843V33.682Z" fill="url(#paint42_linear)" stroke="url(#paint43_linear)"/>
<path d="M22.6895 25.6439C22.6888 25.5455 22.7057 25.4479 22.739 25.3568C22.7724 25.2658 22.8216 25.183 22.8839 25.1134C22.9461 25.0438 23.0201 24.9888 23.1015 24.9515C23.1829 24.9141 23.2702 24.8953 23.3582 24.896H36.2306C36.4079 24.896 36.578 24.9748 36.7034 25.1151C36.8288 25.2553 36.8993 25.4455 36.8993 25.6439C36.8986 25.842 36.828 26.0318 36.7027 26.1719C36.5774 26.312 36.4077 26.391 36.2306 26.3918H23.3582C23.1808 26.3918 23.0107 26.313 22.8853 26.1727C22.7599 26.0325 22.6895 25.8422 22.6895 25.6439Z" fill="url(#paint44_linear)" stroke="url(#paint45_linear)"/>
<path d="M22.6895 20.4085C22.6888 20.3101 22.7057 20.2125 22.739 20.1215C22.7724 20.0304 22.8216 19.9477 22.8839 19.8781C22.9461 19.8085 23.0201 19.7534 23.1015 19.7161C23.1829 19.6788 23.2702 19.6599 23.3582 19.6607H36.2306C36.4079 19.6607 36.578 19.7395 36.7034 19.8797C36.8288 20.02 36.8993 20.2102 36.8993 20.4085C36.8986 20.6067 36.828 20.7965 36.7027 20.9366C36.5774 21.0767 36.4077 21.1557 36.2306 21.1564H23.3582C23.1808 21.1564 23.0107 21.0776 22.8853 20.9374C22.7599 20.7971 22.6895 20.6069 22.6895 20.4085Z" fill="url(#paint46_linear)" stroke="url(#paint47_linear)"/>
<path d="M22.6895 15.9212C22.6888 15.8228 22.7057 15.7252 22.739 15.6342C22.7724 15.5431 22.8216 15.4604 22.8839 15.3908C22.9461 15.3212 23.0201 15.2661 23.1015 15.2288C23.1829 15.1915 23.2702 15.1726 23.3582 15.1734H36.2306C36.4079 15.1734 36.578 15.2522 36.7034 15.3924C36.8288 15.5327 36.8993 15.7229 36.8993 15.9212C36.8986 16.1194 36.828 16.3092 36.7027 16.4493C36.5774 16.5894 36.4077 16.6684 36.2306 16.6691H23.3582C23.1808 16.6691 23.0107 16.5903 22.8853 16.4501C22.7599 16.3098 22.6895 16.1196 22.6895 15.9212Z" fill="url(#paint48_linear)" stroke="url(#paint49_linear)"/>
<path d="M22.6885 10.6861C22.6878 10.5877 22.7047 10.4901 22.7381 10.3991C22.7714 10.308 22.8207 10.2253 22.8829 10.1557C22.9451 10.0861 23.0191 10.031 23.1005 9.99369C23.1819 9.95636 23.2692 9.93752 23.3572 9.93825H36.2296C36.4069 9.93825 36.577 10.017 36.7024 10.1573C36.8278 10.2976 36.8983 10.4878 36.8983 10.6861C36.8976 10.8843 36.827 11.0741 36.7017 11.2142C36.5764 11.3543 36.4067 11.4333 36.2296 11.434H23.3572C23.1798 11.434 23.0098 11.3552 22.8843 11.215C22.7589 11.0747 22.6885 10.8845 22.6885 10.6861Z" fill="url(#paint50_linear)" stroke="url(#paint51_linear)"/>
<path d="M22.6895 5.82463C22.6888 5.77542 22.7057 5.72663 22.739 5.6811C22.7724 5.63557 22.8216 5.5942 22.8839 5.5594C22.9461 5.52461 23.0201 5.49708 23.1015 5.47841C23.1829 5.45975 23.2702 5.45033 23.3582 5.45069H36.2306C36.4079 5.45069 36.578 5.49009 36.7034 5.56022C36.8288 5.63034 36.8993 5.72546 36.8993 5.82463C36.8986 5.92369 36.828 6.0186 36.7027 6.08864C36.5774 6.15869 36.4077 6.19821 36.2306 6.19857H23.3582C23.1808 6.19857 23.0107 6.15917 22.8853 6.08904C22.7599 6.01892 22.6895 5.92381 22.6895 5.82463Z" fill="url(#paint52_linear)" stroke="url(#paint53_linear)"/>
<path d="M39.1424 37.6099V39.8535H20.4453V37.6099H21.4179V38.8429H38.1699V37.6099H39.1424Z" fill="url(#paint54_linear)" stroke="url(#paint55_linear)"/>
<path d="M36.8983 10.6861C36.8976 10.8842 36.827 11.0741 36.7017 11.2142C36.5764 11.3543 36.4067 11.4333 36.2296 11.434H23.3572C23.1798 11.434 23.0097 11.3552 22.8843 11.215C22.7589 11.0747 22.6885 10.8845 22.6885 10.6861C22.6885 10.4878 22.7589 10.2975 22.8843 10.1573C23.0097 10.017 23.1798 9.93823 23.3572 9.93823H36.2296C36.4069 9.93823 36.577 10.017 36.7024 10.1573C36.8278 10.2975 36.8983 10.4878 36.8983 10.6861Z" fill="url(#paint56_linear)" stroke="url(#paint57_linear)"/>
<path d="M36.8993 5.82463C36.8986 5.92369 36.828 6.01859 36.7027 6.08864C36.5774 6.15869 36.4077 6.19821 36.2306 6.19857H23.3582C23.1808 6.19857 23.0107 6.15917 22.8853 6.08904C22.7599 6.01892 22.6895 5.9238 22.6895 5.82463C22.6895 5.72545 22.7599 5.63034 22.8853 5.56021C23.0107 5.49008 23.1808 5.45068 23.3582 5.45068H36.2306C36.4079 5.45068 36.578 5.49008 36.7034 5.56021C36.8288 5.63034 36.8993 5.72545 36.8993 5.82463Z" fill="url(#paint58_linear)" stroke="url(#paint59_linear)"/>
<path d="M36.8993 15.9212C36.8986 16.1194 36.828 16.3092 36.7027 16.4493C36.5774 16.5894 36.4077 16.6684 36.2306 16.6691H23.3582C23.1808 16.6691 23.0107 16.5903 22.8853 16.4501C22.7599 16.3098 22.6895 16.1196 22.6895 15.9212C22.6895 15.7229 22.7599 15.5326 22.8853 15.3924C23.0107 15.2521 23.1808 15.1733 23.3582 15.1733H36.2306C36.4079 15.1733 36.578 15.2521 36.7034 15.3924C36.8288 15.5326 36.8993 15.7229 36.8993 15.9212Z" fill="url(#paint60_linear)" stroke="url(#paint61_linear)"/>
<path d="M36.8993 20.4085C36.8986 20.6067 36.828 20.7965 36.7027 20.9366C36.5774 21.0767 36.4077 21.1557 36.2306 21.1564H23.3582C23.1808 21.1564 23.0107 21.0776 22.8853 20.9374C22.7599 20.7971 22.6895 20.6069 22.6895 20.4085C22.6895 20.2102 22.7599 20.02 22.8853 19.8797C23.0107 19.7394 23.1808 19.6606 23.3582 19.6606H36.2306C36.4079 19.6606 36.578 19.7394 36.7034 19.8797C36.8288 20.02 36.8993 20.2102 36.8993 20.4085Z" fill="url(#paint62_linear)" stroke="url(#paint63_linear)"/>
<path d="M36.8993 25.6439C36.8986 25.842 36.828 26.0318 36.7027 26.1719C36.5774 26.312 36.4077 26.391 36.2306 26.3918H23.3582C23.2703 26.3918 23.1834 26.3724 23.1022 26.3348C23.0211 26.2973 22.9474 26.2422 22.8853 26.1727C22.8232 26.1033 22.774 26.0208 22.7404 25.9301C22.7067 25.8393 22.6895 25.7421 22.6895 25.6439C22.6895 25.5457 22.7067 25.4484 22.7404 25.3577C22.774 25.2669 22.8232 25.1845 22.8853 25.115C22.9474 25.0456 23.0211 24.9905 23.1022 24.9529C23.1834 24.9153 23.2703 24.896 23.3582 24.896H36.2306C36.4079 24.896 36.578 24.9748 36.7034 25.115C36.8288 25.2553 36.8993 25.4455 36.8993 25.6439Z" fill="url(#paint64_linear)" stroke="url(#paint65_linear)"/>
<path d="M18.9492 0.963501V37.6098H41.3858V0.963501H18.9492ZM40.4163 36.634H19.9187V1.93931H40.4163V36.634Z" fill="url(#paint66_linear)" stroke="url(#paint67_linear)"/>
<path d="M29.7934 29.3833C29.2757 29.3833 28.7696 29.5368 28.3391 29.8244C27.9087 30.1121 27.5732 30.5209 27.375 30.9992C27.1769 31.4775 27.1251 32.0038 27.2261 32.5116C27.3271 33.0193 27.5764 33.4857 27.9425 33.8518C28.3085 34.2179 28.7749 34.4672 29.2827 34.5682C29.7905 34.6692 30.3168 34.6174 30.7951 34.4192C31.2734 34.2211 31.6822 33.8856 31.9698 33.4552C32.2575 33.0247 32.411 32.5186 32.411 32.0009C32.4104 31.3069 32.1344 30.6414 31.6436 30.1507C31.1529 29.6599 30.4874 29.3839 29.7934 29.3833ZM29.7934 33.682C29.4609 33.682 29.1359 33.5834 28.8594 33.3987C28.583 33.2139 28.3675 32.9514 28.2403 32.6442C28.113 32.337 28.0797 31.999 28.1446 31.6729C28.2095 31.3468 28.3696 31.0473 28.6047 30.8122C28.8398 30.5771 29.1393 30.417 29.4654 30.3521C29.7915 30.2873 30.1295 30.3206 30.4367 30.4478C30.7439 30.575 31.0064 30.7905 31.1911 31.0669C31.3759 31.3434 31.4744 31.6684 31.4744 32.0009C31.4744 32.447 31.2974 32.8748 30.9822 33.1904C30.667 33.5061 30.2394 33.6837 29.7934 33.6843V33.682Z" fill="url(#paint68_linear)" stroke="url(#paint69_linear)"/>
<defs>
<linearGradient id="paint0_linear" x1="5.86059" y1="35.366" x2="7.24131" y2="37.4371" gradientUnits="userSpaceOnUse">
<stop stop-color="#40DDFF"/>
<stop offset="0.192353" stop-color="#14BAE3"/>
<stop offset="0.686424" stop-color="#13B1E6"/>
<stop offset="0.817657" stop-color="#11AADF"/>
<stop offset="1" stop-color="#0B98C5"/>
</linearGradient>
<linearGradient id="paint1_linear" x1="5.86059" y1="35.366" x2="7.24131" y2="37.4371" gradientUnits="userSpaceOnUse">
<stop stop-color="#40DDFF"/>
<stop offset="0.192353" stop-color="#14BAE3"/>
<stop offset="0.686424" stop-color="#13B1E6"/>
<stop offset="0.817657" stop-color="#11AADF"/>
<stop offset="1" stop-color="#0B98C5"/>
</linearGradient>
<linearGradient id="paint2_linear" x1="9.60083" y1="35.3662" x2="10.9815" y2="37.4372" gradientUnits="userSpaceOnUse">
<stop stop-color="#40DDFF"/>
<stop offset="0.192353" stop-color="#14BAE3"/>
<stop offset="0.686424" stop-color="#13B1E6"/>
<stop offset="0.817657" stop-color="#11AADF"/>
<stop offset="1" stop-color="#0B98C5"/>
</linearGradient>
<linearGradient id="paint3_linear" x1="9.60083" y1="35.3662" x2="10.9815" y2="37.4372" gradientUnits="userSpaceOnUse">
<stop stop-color="#40DDFF"/>
<stop offset="0.192353" stop-color="#14BAE3"/>
<stop offset="0.686424" stop-color="#13B1E6"/>
<stop offset="0.817657" stop-color="#11AADF"/>
<stop offset="1" stop-color="#0B98C5"/>
</linearGradient>
<linearGradient id="paint4_linear" x1="13.714" y1="35.3665" x2="15.2098" y2="36.8623" gradientUnits="userSpaceOnUse">
<stop stop-color="#40DDFF"/>
<stop offset="0.192353" stop-color="#14BAE3"/>
<stop offset="0.686424" stop-color="#13B1E6"/>
<stop offset="0.817657" stop-color="#11AADF"/>
<stop offset="1" stop-color="#0B98C5"/>
</linearGradient>
<linearGradient id="paint5_linear" x1="13.714" y1="35.3665" x2="15.2098" y2="36.8623" gradientUnits="userSpaceOnUse">
<stop stop-color="#40DDFF"/>
<stop offset="0.192353" stop-color="#14BAE3"/>
<stop offset="0.686424" stop-color="#13B1E6"/>
<stop offset="0.817657" stop-color="#11AADF"/>
<stop offset="1" stop-color="#0B98C5"/>
</linearGradient>
<linearGradient id="paint6_linear" x1="-8.7225" y1="35.7403" x2="-2.81825" y2="49.6958" gradientUnits="userSpaceOnUse">
<stop stop-color="#40DDFF"/>
<stop offset="0.192353" stop-color="#14BAE3"/>
<stop offset="0.686424" stop-color="#13B1E6"/>
<stop offset="0.817657" stop-color="#11AADF"/>
<stop offset="1" stop-color="#0B98C5"/>
</linearGradient>
<linearGradient id="paint7_linear" x1="-8.7225" y1="35.7403" x2="-2.81825" y2="49.6958" gradientUnits="userSpaceOnUse">
<stop stop-color="#40DDFF"/>
<stop offset="0.192353" stop-color="#14BAE3"/>
<stop offset="0.686424" stop-color="#13B1E6"/>
<stop offset="0.817657" stop-color="#11AADF"/>
<stop offset="1" stop-color="#0B98C5"/>
</linearGradient>
<linearGradient id="paint8_linear" x1="5.86059" y1="35.366" x2="7.24131" y2="37.4371" gradientUnits="userSpaceOnUse">
<stop stop-color="#40DDFF"/>
<stop offset="0.192353" stop-color="#14BAE3"/>
<stop offset="0.686424" stop-color="#13B1E6"/>
<stop offset="0.817657" stop-color="#11AADF"/>
<stop offset="1" stop-color="#0B98C5"/>
</linearGradient>
<linearGradient id="paint9_linear" x1="5.86059" y1="35.366" x2="7.24131" y2="37.4371" gradientUnits="userSpaceOnUse">
<stop stop-color="#40DDFF"/>
<stop offset="0.192353" stop-color="#14BAE3"/>
<stop offset="0.686424" stop-color="#13B1E6"/>
<stop offset="0.817657" stop-color="#11AADF"/>
<stop offset="1" stop-color="#0B98C5"/>
</linearGradient>
<linearGradient id="paint10_linear" x1="9.60083" y1="35.3662" x2="10.9815" y2="37.4372" gradientUnits="userSpaceOnUse">
<stop stop-color="#40DDFF"/>
<stop offset="0.192353" stop-color="#14BAE3"/>
<stop offset="0.686424" stop-color="#13B1E6"/>
<stop offset="0.817657" stop-color="#11AADF"/>
<stop offset="1" stop-color="#0B98C5"/>
</linearGradient>
<linearGradient id="paint11_linear" x1="9.60083" y1="35.3662" x2="10.9815" y2="37.4372" gradientUnits="userSpaceOnUse">
<stop stop-color="#40DDFF"/>
<stop offset="0.192353" stop-color="#14BAE3"/>
<stop offset="0.686424" stop-color="#13B1E6"/>
<stop offset="0.817657" stop-color="#11AADF"/>
<stop offset="1" stop-color="#0B98C5"/>
</linearGradient>
<linearGradient id="paint12_linear" x1="13.714" y1="35.3665" x2="15.2098" y2="36.8623" gradientUnits="userSpaceOnUse">
<stop stop-color="#40DDFF"/>
<stop offset="0.192353" stop-color="#14BAE3"/>
<stop offset="0.686424" stop-color="#13B1E6"/>
<stop offset="0.817657" stop-color="#11AADF"/>
<stop offset="1" stop-color="#0B98C5"/>
</linearGradient>
<linearGradient id="paint13_linear" x1="13.714" y1="35.3665" x2="15.2098" y2="36.8623" gradientUnits="userSpaceOnUse">
<stop stop-color="#40DDFF"/>
<stop offset="0.192353" stop-color="#14BAE3"/>
<stop offset="0.686424" stop-color="#13B1E6"/>
<stop offset="0.817657" stop-color="#11AADF"/>
<stop offset="1" stop-color="#0B98C5"/>
</linearGradient>
<linearGradient id="paint14_linear" x1="5.86059" y1="27.5134" x2="8.10425" y2="29.7571" gradientUnits="userSpaceOnUse">
<stop stop-color="#40DDFF"/>
<stop offset="0.192353" stop-color="#14BAE3"/>
<stop offset="0.686424" stop-color="#13B1E6"/>
<stop offset="0.817657" stop-color="#11AADF"/>
<stop offset="1" stop-color="#0B98C5"/>
</linearGradient>
<linearGradient id="paint15_linear" x1="5.86059" y1="27.5134" x2="8.10425" y2="29.7571" gradientUnits="userSpaceOnUse">
<stop stop-color="#40DDFF"/>
<stop offset="0.192353" stop-color="#14BAE3"/>
<stop offset="0.686424" stop-color="#13B1E6"/>
<stop offset="0.817657" stop-color="#11AADF"/>
<stop offset="1" stop-color="#0B98C5"/>
</linearGradient>
<linearGradient id="paint16_linear" x1="9.60083" y1="27.5134" x2="11.8445" y2="29.7571" gradientUnits="userSpaceOnUse">
<stop stop-color="#40DDFF"/>
<stop offset="0.192353" stop-color="#14BAE3"/>
<stop offset="0.686424" stop-color="#13B1E6"/>
<stop offset="0.817657" stop-color="#11AADF"/>
<stop offset="1" stop-color="#0B98C5"/>
</linearGradient>
<linearGradient id="paint17_linear" x1="9.60083" y1="27.5134" x2="11.8445" y2="29.7571" gradientUnits="userSpaceOnUse">
<stop stop-color="#40DDFF"/>
<stop offset="0.192353" stop-color="#14BAE3"/>
<stop offset="0.686424" stop-color="#13B1E6"/>
<stop offset="0.817657" stop-color="#11AADF"/>
<stop offset="1" stop-color="#0B98C5"/>
</linearGradient>
<linearGradient id="paint18_linear" x1="13.714" y1="27.5134" x2="15.7851" y2="28.8941" gradientUnits="userSpaceOnUse">
<stop stop-color="#40DDFF"/>
<stop offset="0.192353" stop-color="#14BAE3"/>
<stop offset="0.686424" stop-color="#13B1E6"/>
<stop offset="0.817657" stop-color="#11AADF"/>
<stop offset="1" stop-color="#0B98C5"/>
</linearGradient>
<linearGradient id="paint19_linear" x1="13.714" y1="27.5134" x2="15.7851" y2="28.8941" gradientUnits="userSpaceOnUse">
<stop stop-color="#40DDFF"/>
<stop offset="0.192353" stop-color="#14BAE3"/>
<stop offset="0.686424" stop-color="#13B1E6"/>
<stop offset="0.817657" stop-color="#11AADF"/>
<stop offset="1" stop-color="#0B98C5"/>
</linearGradient>
<linearGradient id="paint20_linear" x1="-7.97462" y1="27.8874" x2="-2.66419" y2="40.6324" gradientUnits="userSpaceOnUse">
<stop stop-color="#40DDFF"/>
<stop offset="0.192353" stop-color="#14BAE3"/>
<stop offset="0.686424" stop-color="#13B1E6"/>
<stop offset="0.817657" stop-color="#11AADF"/>
<stop offset="1" stop-color="#0B98C5"/>
</linearGradient>
<linearGradient id="paint21_linear" x1="-7.97462" y1="27.8874" x2="-2.66419" y2="40.6324" gradientUnits="userSpaceOnUse">
<stop stop-color="#40DDFF"/>
<stop offset="0.192353" stop-color="#14BAE3"/>
<stop offset="0.686424" stop-color="#13B1E6"/>
<stop offset="0.817657" stop-color="#11AADF"/>
<stop offset="1" stop-color="#0B98C5"/>
</linearGradient>
<linearGradient id="paint22_linear" x1="5.86059" y1="27.5134" x2="8.10425" y2="29.7571" gradientUnits="userSpaceOnUse">
<stop stop-color="#40DDFF"/>
<stop offset="0.192353" stop-color="#14BAE3"/>
<stop offset="0.686424" stop-color="#13B1E6"/>
<stop offset="0.817657" stop-color="#11AADF"/>
<stop offset="1" stop-color="#0B98C5"/>
</linearGradient>
<linearGradient id="paint23_linear" x1="5.86059" y1="27.5134" x2="8.10425" y2="29.7571" gradientUnits="userSpaceOnUse">
<stop stop-color="#40DDFF"/>
<stop offset="0.192353" stop-color="#14BAE3"/>
<stop offset="0.686424" stop-color="#13B1E6"/>
<stop offset="0.817657" stop-color="#11AADF"/>
<stop offset="1" stop-color="#0B98C5"/>
</linearGradient>
<linearGradient id="paint24_linear" x1="9.60083" y1="27.5134" x2="11.8445" y2="29.7571" gradientUnits="userSpaceOnUse">
<stop stop-color="#40DDFF"/>
<stop offset="0.192353" stop-color="#14BAE3"/>
<stop offset="0.686424" stop-color="#13B1E6"/>
<stop offset="0.817657" stop-color="#11AADF"/>
<stop offset="1" stop-color="#0B98C5"/>
</linearGradient>
<linearGradient id="paint25_linear" x1="9.60083" y1="27.5134" x2="11.8445" y2="29.7571" gradientUnits="userSpaceOnUse">
<stop stop-color="#40DDFF"/>
<stop offset="0.192353" stop-color="#14BAE3"/>
<stop offset="0.686424" stop-color="#13B1E6"/>
<stop offset="0.817657" stop-color="#11AADF"/>
<stop offset="1" stop-color="#0B98C5"/>
</linearGradient>
<linearGradient id="paint26_linear" x1="13.714" y1="27.5134" x2="15.7851" y2="28.8941" gradientUnits="userSpaceOnUse">
<stop stop-color="#40DDFF"/>
<stop offset="0.192353" stop-color="#14BAE3"/>
<stop offset="0.686424" stop-color="#13B1E6"/>
<stop offset="0.817657" stop-color="#11AADF"/>
<stop offset="1" stop-color="#0B98C5"/>
</linearGradient>
<linearGradient id="paint27_linear" x1="13.714" y1="27.5134" x2="15.7851" y2="28.8941" gradientUnits="userSpaceOnUse">
<stop stop-color="#40DDFF"/>
<stop offset="0.192353" stop-color="#14BAE3"/>
<stop offset="0.686424" stop-color="#13B1E6"/>
<stop offset="0.817657" stop-color="#11AADF"/>
<stop offset="1" stop-color="#0B98C5"/>
</linearGradient>
<linearGradient id="paint28_linear" x1="5.86059" y1="19.6605" x2="7.24131" y2="21.7315" gradientUnits="userSpaceOnUse">
<stop stop-color="#40DDFF"/>
<stop offset="0.192353" stop-color="#14BAE3"/>
<stop offset="0.686424" stop-color="#13B1E6"/>
<stop offset="0.817657" stop-color="#11AADF"/>
<stop offset="1" stop-color="#0B98C5"/>
</linearGradient>
<linearGradient id="paint29_linear" x1="5.86059" y1="19.6605" x2="7.24131" y2="21.7315" gradientUnits="userSpaceOnUse">
<stop stop-color="#40DDFF"/>
<stop offset="0.192353" stop-color="#14BAE3"/>
<stop offset="0.686424" stop-color="#13B1E6"/>
<stop offset="0.817657" stop-color="#11AADF"/>
<stop offset="1" stop-color="#0B98C5"/>
</linearGradient>
<linearGradient id="paint30_linear" x1="9.60083" y1="19.6605" x2="10.9815" y2="21.7315" gradientUnits="userSpaceOnUse">
<stop stop-color="#40DDFF"/>
<stop offset="0.192353" stop-color="#14BAE3"/>
<stop offset="0.686424" stop-color="#13B1E6"/>
<stop offset="0.817657" stop-color="#11AADF"/>
<stop offset="1" stop-color="#0B98C5"/>
</linearGradient>
<linearGradient id="paint31_linear" x1="9.60083" y1="19.6605" x2="10.9815" y2="21.7315" gradientUnits="userSpaceOnUse">
<stop stop-color="#40DDFF"/>
<stop offset="0.192353" stop-color="#14BAE3"/>
<stop offset="0.686424" stop-color="#13B1E6"/>
<stop offset="0.817657" stop-color="#11AADF"/>
<stop offset="1" stop-color="#0B98C5"/>
</linearGradient>
<linearGradient id="paint32_linear" x1="13.714" y1="19.6605" x2="15.2098" y2="21.1563" gradientUnits="userSpaceOnUse">
<stop stop-color="#40DDFF"/>
<stop offset="0.192353" stop-color="#14BAE3"/>
<stop offset="0.686424" stop-color="#13B1E6"/>
<stop offset="0.817657" stop-color="#11AADF"/>
<stop offset="1" stop-color="#0B98C5"/>
</linearGradient>
<linearGradient id="paint33_linear" x1="13.714" y1="19.6605" x2="15.2098" y2="21.1563" gradientUnits="userSpaceOnUse">
<stop stop-color="#40DDFF"/>
<stop offset="0.192353" stop-color="#14BAE3"/>
<stop offset="0.686424" stop-color="#13B1E6"/>
<stop offset="0.817657" stop-color="#11AADF"/>
<stop offset="1" stop-color="#0B98C5"/>
</linearGradient>
<linearGradient id="paint34_linear" x1="-7.97462" y1="19.6606" x2="-0.794923" y2="34.02" gradientUnits="userSpaceOnUse">
<stop stop-color="#40DDFF"/>
<stop offset="0.192353" stop-color="#14BAE3"/>
<stop offset="0.686424" stop-color="#13B1E6"/>
<stop offset="0.817657" stop-color="#11AADF"/>
<stop offset="1" stop-color="#0B98C5"/>
</linearGradient>
<linearGradient id="paint35_linear" x1="-7.97462" y1="19.6606" x2="-0.794923" y2="34.02" gradientUnits="userSpaceOnUse">
<stop stop-color="#40DDFF"/>
<stop offset="0.192353" stop-color="#14BAE3"/>
<stop offset="0.686424" stop-color="#13B1E6"/>
<stop offset="0.817657" stop-color="#11AADF"/>
<stop offset="1" stop-color="#0B98C5"/>
</linearGradient>
<linearGradient id="paint36_linear" x1="5.86059" y1="19.6605" x2="7.24131" y2="21.7315" gradientUnits="userSpaceOnUse">
<stop stop-color="#40DDFF"/>
<stop offset="0.192353" stop-color="#14BAE3"/>
<stop offset="0.686424" stop-color="#13B1E6"/>
<stop offset="0.817657" stop-color="#11AADF"/>
<stop offset="1" stop-color="#0B98C5"/>
</linearGradient>
<linearGradient id="paint37_linear" x1="5.86059" y1="19.6605" x2="7.24131" y2="21.7315" gradientUnits="userSpaceOnUse">
<stop stop-color="#40DDFF"/>
<stop offset="0.192353" stop-color="#14BAE3"/>
<stop offset="0.686424" stop-color="#13B1E6"/>
<stop offset="0.817657" stop-color="#11AADF"/>
<stop offset="1" stop-color="#0B98C5"/>
</linearGradient>
<linearGradient id="paint38_linear" x1="9.60083" y1="19.6605" x2="10.9815" y2="21.7315" gradientUnits="userSpaceOnUse">
<stop stop-color="#40DDFF"/>
<stop offset="0.192353" stop-color="#14BAE3"/>
<stop offset="0.686424" stop-color="#13B1E6"/>
<stop offset="0.817657" stop-color="#11AADF"/>
<stop offset="1" stop-color="#0B98C5"/>
</linearGradient>
<linearGradient id="paint39_linear" x1="9.60083" y1="19.6605" x2="10.9815" y2="21.7315" gradientUnits="userSpaceOnUse">
<stop stop-color="#40DDFF"/>
<stop offset="0.192353" stop-color="#14BAE3"/>
<stop offset="0.686424" stop-color="#13B1E6"/>
<stop offset="0.817657" stop-color="#11AADF"/>
<stop offset="1" stop-color="#0B98C5"/>
</linearGradient>
<linearGradient id="paint40_linear" x1="13.714" y1="19.6605" x2="15.2098" y2="21.1563" gradientUnits="userSpaceOnUse">
<stop stop-color="#40DDFF"/>
<stop offset="0.192353" stop-color="#14BAE3"/>
<stop offset="0.686424" stop-color="#13B1E6"/>
<stop offset="0.817657" stop-color="#11AADF"/>
<stop offset="1" stop-color="#0B98C5"/>
</linearGradient>
<linearGradient id="paint41_linear" x1="13.714" y1="19.6605" x2="15.2098" y2="21.1563" gradientUnits="userSpaceOnUse">
<stop stop-color="#40DDFF"/>
<stop offset="0.192353" stop-color="#14BAE3"/>
<stop offset="0.686424" stop-color="#13B1E6"/>
<stop offset="0.817657" stop-color="#11AADF"/>
<stop offset="1" stop-color="#0B98C5"/>
</linearGradient>
<linearGradient id="paint42_linear" x1="24.5582" y1="32.0009" x2="29.7934" y2="37.2361" gradientUnits="userSpaceOnUse">
<stop stop-color="#40DDFF"/>
<stop offset="0.192353" stop-color="#14BAE3"/>
<stop offset="0.686424" stop-color="#13B1E6"/>
<stop offset="0.817657" stop-color="#11AADF"/>
<stop offset="1" stop-color="#0B98C5"/>
</linearGradient>
<linearGradient id="paint43_linear" x1="24.5582" y1="32.0009" x2="29.7934" y2="37.2361" gradientUnits="userSpaceOnUse">
<stop stop-color="#40DDFF"/>
<stop offset="0.192353" stop-color="#14BAE3"/>
<stop offset="0.686424" stop-color="#13B1E6"/>
<stop offset="0.817657" stop-color="#11AADF"/>
<stop offset="1" stop-color="#0B98C5"/>
</linearGradient>
<linearGradient id="paint44_linear" x1="15.5845" y1="25.6439" x2="15.896" y2="28.6026" gradientUnits="userSpaceOnUse">
<stop stop-color="#40DDFF"/>
<stop offset="0.192353" stop-color="#14BAE3"/>
<stop offset="0.686424" stop-color="#13B1E6"/>
<stop offset="0.817657" stop-color="#11AADF"/>
<stop offset="1" stop-color="#0B98C5"/>
</linearGradient>
<linearGradient id="paint45_linear" x1="15.5845" y1="25.6439" x2="15.896" y2="28.6026" gradientUnits="userSpaceOnUse">
<stop stop-color="#40DDFF"/>
<stop offset="0.192353" stop-color="#14BAE3"/>
<stop offset="0.686424" stop-color="#13B1E6"/>
<stop offset="0.817657" stop-color="#11AADF"/>
<stop offset="1" stop-color="#0B98C5"/>
</linearGradient>
<linearGradient id="paint46_linear" x1="15.5845" y1="20.4085" x2="15.896" y2="23.3673" gradientUnits="userSpaceOnUse">
<stop stop-color="#40DDFF"/>
<stop offset="0.192353" stop-color="#14BAE3"/>
<stop offset="0.686424" stop-color="#13B1E6"/>
<stop offset="0.817657" stop-color="#11AADF"/>
<stop offset="1" stop-color="#0B98C5"/>
</linearGradient>
<linearGradient id="paint47_linear" x1="15.5845" y1="20.4085" x2="15.896" y2="23.3673" gradientUnits="userSpaceOnUse">
<stop stop-color="#40DDFF"/>
<stop offset="0.192353" stop-color="#14BAE3"/>
<stop offset="0.686424" stop-color="#13B1E6"/>
<stop offset="0.817657" stop-color="#11AADF"/>
<stop offset="1" stop-color="#0B98C5"/>
</linearGradient>
<linearGradient id="paint48_linear" x1="15.5845" y1="15.9212" x2="15.896" y2="18.88" gradientUnits="userSpaceOnUse">
<stop stop-color="#40DDFF"/>
<stop offset="0.192353" stop-color="#14BAE3"/>
<stop offset="0.686424" stop-color="#13B1E6"/>
<stop offset="0.817657" stop-color="#11AADF"/>
<stop offset="1" stop-color="#0B98C5"/>
</linearGradient>
<linearGradient id="paint49_linear" x1="15.5845" y1="15.9212" x2="15.896" y2="18.88" gradientUnits="userSpaceOnUse">
<stop stop-color="#40DDFF"/>
<stop offset="0.192353" stop-color="#14BAE3"/>
<stop offset="0.686424" stop-color="#13B1E6"/>
<stop offset="0.817657" stop-color="#11AADF"/>
<stop offset="1" stop-color="#0B98C5"/>
</linearGradient>
<linearGradient id="paint50_linear" x1="15.5836" y1="10.6861" x2="15.895" y2="13.6449" gradientUnits="userSpaceOnUse">
<stop stop-color="#40DDFF"/>
<stop offset="0.192353" stop-color="#14BAE3"/>
<stop offset="0.686424" stop-color="#13B1E6"/>
<stop offset="0.817657" stop-color="#11AADF"/>
<stop offset="1" stop-color="#0B98C5"/>
</linearGradient>
<linearGradient id="paint51_linear" x1="15.5836" y1="10.6861" x2="15.895" y2="13.6449" gradientUnits="userSpaceOnUse">
<stop stop-color="#40DDFF"/>
<stop offset="0.192353" stop-color="#14BAE3"/>
<stop offset="0.686424" stop-color="#13B1E6"/>
<stop offset="0.817657" stop-color="#11AADF"/>
<stop offset="1" stop-color="#0B98C5"/>
</linearGradient>
<linearGradient id="paint52_linear" x1="15.5845" y1="5.82463" x2="15.6631" y2="7.31626" gradientUnits="userSpaceOnUse">
<stop stop-color="#40DDFF"/>
<stop offset="0.192353" stop-color="#14BAE3"/>
<stop offset="0.686424" stop-color="#13B1E6"/>
<stop offset="0.817657" stop-color="#11AADF"/>
<stop offset="1" stop-color="#0B98C5"/>
</linearGradient>
<linearGradient id="paint53_linear" x1="15.5845" y1="5.82463" x2="15.6631" y2="7.31626" gradientUnits="userSpaceOnUse">
<stop stop-color="#40DDFF"/>
<stop offset="0.192353" stop-color="#14BAE3"/>
<stop offset="0.686424" stop-color="#13B1E6"/>
<stop offset="0.817657" stop-color="#11AADF"/>
<stop offset="1" stop-color="#0B98C5"/>
</linearGradient>
<linearGradient id="paint54_linear" x1="11.0968" y1="38.7317" x2="11.6276" y2="43.1553" gradientUnits="userSpaceOnUse">
<stop stop-color="#40DDFF"/>
<stop offset="0.192353" stop-color="#14BAE3"/>
<stop offset="0.686424" stop-color="#13B1E6"/>
<stop offset="0.817657" stop-color="#11AADF"/>
<stop offset="1" stop-color="#0B98C5"/>
</linearGradient>
<linearGradient id="paint55_linear" x1="11.0968" y1="38.7317" x2="11.6276" y2="43.1553" gradientUnits="userSpaceOnUse">
<stop stop-color="#40DDFF"/>
<stop offset="0.192353" stop-color="#14BAE3"/>
<stop offset="0.686424" stop-color="#13B1E6"/>
<stop offset="0.817657" stop-color="#11AADF"/>
<stop offset="1" stop-color="#0B98C5"/>
</linearGradient>
<linearGradient id="paint56_linear" x1="15.5836" y1="10.6861" x2="15.895" y2="13.6449" gradientUnits="userSpaceOnUse">
<stop stop-color="#40DDFF"/>
<stop offset="0.192353" stop-color="#14BAE3"/>
<stop offset="0.686424" stop-color="#13B1E6"/>
<stop offset="0.817657" stop-color="#11AADF"/>
<stop offset="1" stop-color="#0B98C5"/>
</linearGradient>
<linearGradient id="paint57_linear" x1="15.5836" y1="10.6861" x2="15.895" y2="13.6449" gradientUnits="userSpaceOnUse">
<stop stop-color="#40DDFF"/>
<stop offset="0.192353" stop-color="#14BAE3"/>
<stop offset="0.686424" stop-color="#13B1E6"/>
<stop offset="0.817657" stop-color="#11AADF"/>
<stop offset="1" stop-color="#0B98C5"/>
</linearGradient>
<linearGradient id="paint58_linear" x1="15.5845" y1="5.82463" x2="15.6631" y2="7.31626" gradientUnits="userSpaceOnUse">
<stop stop-color="#40DDFF"/>
<stop offset="0.192353" stop-color="#14BAE3"/>
<stop offset="0.686424" stop-color="#13B1E6"/>
<stop offset="0.817657" stop-color="#11AADF"/>
<stop offset="1" stop-color="#0B98C5"/>
</linearGradient>
<linearGradient id="paint59_linear" x1="15.5845" y1="5.82463" x2="15.6631" y2="7.31626" gradientUnits="userSpaceOnUse">
<stop stop-color="#40DDFF"/>
<stop offset="0.192353" stop-color="#14BAE3"/>
<stop offset="0.686424" stop-color="#13B1E6"/>
<stop offset="0.817657" stop-color="#11AADF"/>
<stop offset="1" stop-color="#0B98C5"/>
</linearGradient>
<linearGradient id="paint60_linear" x1="15.5845" y1="15.9212" x2="15.896" y2="18.88" gradientUnits="userSpaceOnUse">
<stop stop-color="#40DDFF"/>
<stop offset="0.192353" stop-color="#14BAE3"/>
<stop offset="0.686424" stop-color="#13B1E6"/>
<stop offset="0.817657" stop-color="#11AADF"/>
<stop offset="1" stop-color="#0B98C5"/>
</linearGradient>
<linearGradient id="paint61_linear" x1="15.5845" y1="15.9212" x2="15.896" y2="18.88" gradientUnits="userSpaceOnUse">
<stop stop-color="#40DDFF"/>
<stop offset="0.192353" stop-color="#14BAE3"/>
<stop offset="0.686424" stop-color="#13B1E6"/>
<stop offset="0.817657" stop-color="#11AADF"/>
<stop offset="1" stop-color="#0B98C5"/>
</linearGradient>
<linearGradient id="paint62_linear" x1="15.5845" y1="20.4085" x2="15.896" y2="23.3673" gradientUnits="userSpaceOnUse">
<stop stop-color="#40DDFF"/>
<stop offset="0.192353" stop-color="#14BAE3"/>
<stop offset="0.686424" stop-color="#13B1E6"/>
<stop offset="0.817657" stop-color="#11AADF"/>
<stop offset="1" stop-color="#0B98C5"/>
</linearGradient>
<linearGradient id="paint63_linear" x1="15.5845" y1="20.4085" x2="15.896" y2="23.3673" gradientUnits="userSpaceOnUse">
<stop stop-color="#40DDFF"/>
<stop offset="0.192353" stop-color="#14BAE3"/>
<stop offset="0.686424" stop-color="#13B1E6"/>
<stop offset="0.817657" stop-color="#11AADF"/>
<stop offset="1" stop-color="#0B98C5"/>
</linearGradient>
<linearGradient id="paint64_linear" x1="15.5845" y1="25.6439" x2="15.896" y2="28.6026" gradientUnits="userSpaceOnUse">
<stop stop-color="#40DDFF"/>
<stop offset="0.192353" stop-color="#14BAE3"/>
<stop offset="0.686424" stop-color="#13B1E6"/>
<stop offset="0.817657" stop-color="#11AADF"/>
<stop offset="1" stop-color="#0B98C5"/>
</linearGradient>
<linearGradient id="paint65_linear" x1="15.5845" y1="25.6439" x2="15.896" y2="28.6026" gradientUnits="userSpaceOnUse">
<stop stop-color="#40DDFF"/>
<stop offset="0.192353" stop-color="#14BAE3"/>
<stop offset="0.686424" stop-color="#13B1E6"/>
<stop offset="0.817657" stop-color="#11AADF"/>
<stop offset="1" stop-color="#0B98C5"/>
</linearGradient>
<linearGradient id="paint66_linear" x1="7.73095" y1="19.2867" x2="40.3696" y2="39.2695" gradientUnits="userSpaceOnUse">
<stop stop-color="#40DDFF"/>
<stop offset="0.192353" stop-color="#14BAE3"/>
<stop offset="0.686424" stop-color="#13B1E6"/>
<stop offset="0.817657" stop-color="#11AADF"/>
<stop offset="1" stop-color="#0B98C5"/>
</linearGradient>
<linearGradient id="paint67_linear" x1="7.73095" y1="19.2867" x2="40.3696" y2="39.2695" gradientUnits="userSpaceOnUse">
<stop stop-color="#40DDFF"/>
<stop offset="0.192353" stop-color="#14BAE3"/>
<stop offset="0.686424" stop-color="#13B1E6"/>
<stop offset="0.817657" stop-color="#11AADF"/>
<stop offset="1" stop-color="#0B98C5"/>
</linearGradient>
<linearGradient id="paint68_linear" x1="24.5582" y1="32.0009" x2="29.7934" y2="37.2361" gradientUnits="userSpaceOnUse">
<stop stop-color="#40DDFF"/>
<stop offset="0.192353" stop-color="#14BAE3"/>
<stop offset="0.686424" stop-color="#13B1E6"/>
<stop offset="0.817657" stop-color="#11AADF"/>
<stop offset="1" stop-color="#0B98C5"/>
</linearGradient>
<linearGradient id="paint69_linear" x1="24.5582" y1="32.0009" x2="29.7934" y2="37.2361" gradientUnits="userSpaceOnUse">
<stop stop-color="#40DDFF"/>
<stop offset="0.192353" stop-color="#14BAE3"/>
<stop offset="0.686424" stop-color="#13B1E6"/>
<stop offset="0.817657" stop-color="#11AADF"/>
<stop offset="1" stop-color="#0B98C5"/>
</linearGradient>
</defs>
</svg>
