<svg width="39" height="36" viewBox="0 0 39 36" fill="none" xmlns="http://www.w3.org/2000/svg">
<g clip-path="url(#clip0)">
<path d="M2.33337 0.782471H26.229C27.1481 0.782471 27.9258 1.56014 27.9258 2.4792V28.213C27.9258 29.1321 27.1481 29.9097 26.229 29.9097H16.897" stroke="#6987B9" stroke-width="1.5"/>
<path d="M14.564 34.7211L1.69707 30.0551C0.990101 29.843 0.565918 29.2067 0.565918 28.429V2.48313C0.565918 1.35198 1.76777 0.503609 2.82823 0.927792L15.6951 5.52311C16.4021 5.73521 16.8263 6.37148 16.8263 7.14915V33.1657C16.8263 34.2969 15.6951 35.0746 14.564 34.7211Z" stroke="#6987B9" stroke-width="1.5"/>
<path d="M36.9649 16.0962C37.3791 16.0962 37.7149 15.7604 37.7149 15.3462C37.7149 14.932 37.3791 14.5962 36.9649 14.5962V16.0962ZM21.6338 16.0962H36.9649V14.5962H21.6338V16.0962Z" fill="#6987B9"/>
<path d="M36.4861 15.9234C36.805 16.1878 37.2778 16.1436 37.5422 15.8247C37.8065 15.5058 37.7623 15.033 37.4434 14.7686L36.4861 15.9234ZM31.1132 11.4695L36.4861 15.9234L37.4434 14.7686L32.0704 10.3147L31.1132 11.4695Z" fill="#6987B9"/>
<path d="M37.4479 15.9199C37.7647 15.6531 37.8053 15.1799 37.5385 14.8631C37.2717 14.5463 36.7985 14.5057 36.4817 14.7725L37.4479 15.9199ZM36.4817 14.7725L31.1087 19.2971L32.0749 20.4445L37.4479 15.9199L36.4817 14.7725Z" fill="#6987B9"/>
</g>
<defs>
<clipPath id="clip0">
<rect width="38.53" height="35.1365" fill="white" transform="translate(0.000366211 0.216797)"/>
</clipPath>
</defs>
</svg>
