<svg width="42" height="41" viewBox="0 0 42 41" fill="none" xmlns="http://www.w3.org/2000/svg">
<path d="M8.10498 36.1139C8.72455 36.1139 9.22681 35.7791 9.22681 35.366C9.22681 34.953 8.72455 34.6182 8.10498 34.6182C7.48541 34.6182 6.98315 34.953 6.98315 35.366C6.98315 35.7791 7.48541 36.1139 8.10498 36.1139Z" fill="#6987B9" stroke="#6987B9" stroke-width="0.5"/>
<path d="M11.8445 36.1139C12.4641 36.1139 12.9663 35.7791 12.9663 35.366C12.9663 34.953 12.4641 34.6182 11.8445 34.6182C11.2249 34.6182 10.7227 34.953 10.7227 35.366C10.7227 35.7791 11.2249 36.1139 11.8445 36.1139Z" fill="#6987B9" stroke="#6987B9" stroke-width="0.5"/>
<path d="M15.21 36.1144C15.6231 36.1144 15.9579 35.7796 15.9579 35.3665C15.9579 34.9535 15.6231 34.6187 15.21 34.6187C14.797 34.6187 14.4622 34.9535 14.4622 35.3665C14.4622 35.7796 14.797 36.1144 15.21 36.1144Z" fill="#6987B9" stroke="#6987B9" stroke-width="0.5"/>
<path d="M20.4452 38.844V39.8537H1.00024V31.627H1.9518V38.844H20.4452Z" fill="#6987B9" stroke="#6987B9" stroke-width="0.5"/>
<path d="M8.10498 36.1139C8.72455 36.1139 9.22681 35.7791 9.22681 35.366C9.22681 34.953 8.72455 34.6182 8.10498 34.6182C7.48541 34.6182 6.98315 34.953 6.98315 35.366C6.98315 35.7791 7.48541 36.1139 8.10498 36.1139Z" fill="#6987B9" stroke="#6987B9" stroke-width="0.5"/>
<path d="M11.8445 36.1139C12.4641 36.1139 12.9663 35.7791 12.9663 35.366C12.9663 34.953 12.4641 34.6182 11.8445 34.6182C11.2249 34.6182 10.7227 34.953 10.7227 35.366C10.7227 35.7791 11.2249 36.1139 11.8445 36.1139Z" fill="#6987B9" stroke="#6987B9" stroke-width="0.5"/>
<path d="M15.21 36.1144C15.6231 36.1144 15.9579 35.7796 15.9579 35.3665C15.9579 34.9535 15.6231 34.6187 15.21 34.6187C14.797 34.6187 14.4622 34.9535 14.4622 35.3665C14.4622 35.7796 14.797 36.1144 15.21 36.1144Z" fill="#6987B9" stroke="#6987B9" stroke-width="0.5"/>
<path d="M8.10498 28.6353C8.72455 28.6353 9.22681 28.133 9.22681 27.5134C9.22681 26.8939 8.72455 26.3916 8.10498 26.3916C7.48541 26.3916 6.98315 26.8939 6.98315 27.5134C6.98315 28.133 7.48541 28.6353 8.10498 28.6353Z" fill="#6987B9" stroke="#6987B9" stroke-width="0.5"/>
<path d="M11.8445 28.6353C12.4641 28.6353 12.9663 28.133 12.9663 27.5134C12.9663 26.8939 12.4641 26.3916 11.8445 26.3916C11.2249 26.3916 10.7227 26.8939 10.7227 27.5134C10.7227 28.133 11.2249 28.6353 11.8445 28.6353Z" fill="#6987B9" stroke="#6987B9" stroke-width="0.5"/>
<path d="M15.21 28.6353C15.6231 28.6353 15.9579 28.133 15.9579 27.5134C15.9579 26.8939 15.6231 26.3916 15.21 26.3916C14.797 26.3916 14.4622 26.8939 14.4622 27.5134C14.4622 28.133 14.797 28.6353 15.21 28.6353Z" fill="#6987B9" stroke="#6987B9" stroke-width="0.5"/>
<path d="M18.9495 30.7089V31.6268H1.00024V24.1479H1.97165V30.7089H18.9495Z" fill="#6987B9" stroke="#6987B9" stroke-width="0.5"/>
<path d="M8.10498 28.6353C8.72455 28.6353 9.22681 28.133 9.22681 27.5134C9.22681 26.8939 8.72455 26.3916 8.10498 26.3916C7.48541 26.3916 6.98315 26.8939 6.98315 27.5134C6.98315 28.133 7.48541 28.6353 8.10498 28.6353Z" fill="#6987B9" stroke="#6987B9" stroke-width="0.5"/>
<path d="M11.8445 28.6353C12.4641 28.6353 12.9663 28.133 12.9663 27.5134C12.9663 26.8939 12.4641 26.3916 11.8445 26.3916C11.2249 26.3916 10.7227 26.8939 10.7227 27.5134C10.7227 28.133 11.2249 28.6353 11.8445 28.6353Z" fill="#6987B9" stroke="#6987B9" stroke-width="0.5"/>
<path d="M15.21 28.6353C15.6231 28.6353 15.9579 28.133 15.9579 27.5134C15.9579 26.8939 15.6231 26.3916 15.21 26.3916C14.797 26.3916 14.4622 26.8939 14.4622 27.5134C14.4622 28.133 14.797 28.6353 15.21 28.6353Z" fill="#6987B9" stroke="#6987B9" stroke-width="0.5"/>
<path d="M8.10498 20.4084C8.72455 20.4084 9.22681 20.0735 9.22681 19.6605C9.22681 19.2474 8.72455 18.9126 8.10498 18.9126C7.48541 18.9126 6.98315 19.2474 6.98315 19.6605C6.98315 20.0735 7.48541 20.4084 8.10498 20.4084Z" fill="#6987B9" stroke="#6987B9" stroke-width="0.5"/>
<path d="M11.8445 20.4084C12.4641 20.4084 12.9663 20.0735 12.9663 19.6605C12.9663 19.2474 12.4641 18.9126 11.8445 18.9126C11.2249 18.9126 10.7227 19.2474 10.7227 19.6605C10.7227 20.0735 11.2249 20.4084 11.8445 20.4084Z" fill="#6987B9" stroke="#6987B9" stroke-width="0.5"/>
<path d="M15.21 20.4084C15.6231 20.4084 15.9579 20.0735 15.9579 19.6605C15.9579 19.2474 15.6231 18.9126 15.21 18.9126C14.797 18.9126 14.4622 19.2474 14.4622 19.6605C14.4622 20.0735 14.797 20.4084 15.21 20.4084Z" fill="#6987B9" stroke="#6987B9" stroke-width="0.5"/>
<path d="M1.97165 16.1547V23.1666H18.9495V24.148H1.00024V15.1733H18.9495V16.1547H1.97165Z" fill="#6987B9" stroke="#6987B9" stroke-width="0.5"/>
<path d="M8.10498 20.4084C8.72455 20.4084 9.22681 20.0735 9.22681 19.6605C9.22681 19.2474 8.72455 18.9126 8.10498 18.9126C7.48541 18.9126 6.98315 19.2474 6.98315 19.6605C6.98315 20.0735 7.48541 20.4084 8.10498 20.4084Z" fill="#6987B9" stroke="#6987B9" stroke-width="0.5"/>
<path d="M11.8445 20.4084C12.4641 20.4084 12.9663 20.0735 12.9663 19.6605C12.9663 19.2474 12.4641 18.9126 11.8445 18.9126C11.2249 18.9126 10.7227 19.2474 10.7227 19.6605C10.7227 20.0735 11.2249 20.4084 11.8445 20.4084Z" fill="#6987B9" stroke="#6987B9" stroke-width="0.5"/>
<path d="M15.21 20.4084C15.6231 20.4084 15.9579 20.0735 15.9579 19.6605C15.9579 19.2474 15.6231 18.9126 15.21 18.9126C14.797 18.9126 14.4622 19.2474 14.4622 19.6605C14.4622 20.0735 14.797 20.4084 15.21 20.4084Z" fill="#6987B9" stroke="#6987B9" stroke-width="0.5"/>
<path d="M29.7936 29.3833C29.2759 29.3833 28.7698 29.5368 28.3394 29.8244C27.9089 30.1121 27.5734 30.5209 27.3753 30.9992C27.1772 31.4775 27.1253 32.0038 27.2263 32.5116C27.3273 33.0193 27.5766 33.4857 27.9427 33.8518C28.3088 34.2179 28.7752 34.4672 29.283 34.5682C29.7907 34.6692 30.317 34.6174 30.7953 34.4192C31.2736 34.2211 31.6824 33.8856 31.9701 33.4552C32.2577 33.0247 32.4112 32.5186 32.4112 32.0009C32.4106 31.3069 32.1346 30.6414 31.6439 30.1507C31.1531 29.6599 30.4877 29.3839 29.7936 29.3833ZM29.7936 33.682C29.4611 33.682 29.1361 33.5834 28.8597 33.3987C28.5832 33.2139 28.3678 32.9514 28.2405 32.6442C28.1133 32.337 28.08 31.999 28.1449 31.6729C28.2097 31.3468 28.3698 31.0473 28.6049 30.8122C28.84 30.5771 29.1396 30.417 29.4657 30.3521C29.7918 30.2873 30.1298 30.3206 30.4369 30.4478C30.7441 30.575 31.0067 30.7905 31.1914 31.0669C31.3761 31.3434 31.4747 31.6684 31.4747 32.0009C31.4747 32.447 31.2977 32.8748 30.9825 33.1904C30.6673 33.5061 30.2397 33.6837 29.7936 33.6843V33.682Z" fill="#6987B9" stroke="#6987B9" stroke-width="0.5"/>
<path d="M22.6892 25.6439C22.6886 25.5455 22.7054 25.4479 22.7388 25.3568C22.7722 25.2658 22.8214 25.183 22.8836 25.1134C22.9459 25.0438 23.0198 24.9888 23.1013 24.9515C23.1827 24.9141 23.2699 24.8953 23.3579 24.896H36.2303C36.4077 24.896 36.5778 24.9748 36.7032 25.1151C36.8286 25.2553 36.899 25.4455 36.899 25.6439C36.8984 25.842 36.8277 26.0318 36.7024 26.1719C36.5772 26.312 36.4075 26.391 36.2303 26.3918H23.3579C23.1806 26.3918 23.0105 26.313 22.8851 26.1727C22.7597 26.0325 22.6892 25.8422 22.6892 25.6439Z" fill="#6987B9" stroke="#6987B9" stroke-width="0.5"/>
<path d="M22.6892 20.4085C22.6886 20.3101 22.7054 20.2125 22.7388 20.1215C22.7722 20.0304 22.8214 19.9477 22.8836 19.8781C22.9459 19.8085 23.0198 19.7534 23.1013 19.7161C23.1827 19.6788 23.2699 19.6599 23.3579 19.6607H36.2303C36.4077 19.6607 36.5778 19.7395 36.7032 19.8797C36.8286 20.02 36.899 20.2102 36.899 20.4085C36.8984 20.6067 36.8277 20.7965 36.7024 20.9366C36.5772 21.0767 36.4075 21.1557 36.2303 21.1564H23.3579C23.1806 21.1564 23.0105 21.0776 22.8851 20.9374C22.7597 20.7971 22.6892 20.6069 22.6892 20.4085Z" fill="#6987B9" stroke="#6987B9" stroke-width="0.5"/>
<path d="M22.6892 15.9212C22.6886 15.8228 22.7054 15.7252 22.7388 15.6342C22.7722 15.5431 22.8214 15.4604 22.8836 15.3908C22.9459 15.3212 23.0198 15.2661 23.1013 15.2288C23.1827 15.1915 23.2699 15.1726 23.3579 15.1734H36.2303C36.4077 15.1734 36.5778 15.2522 36.7032 15.3924C36.8286 15.5327 36.899 15.7229 36.899 15.9212C36.8984 16.1194 36.8277 16.3092 36.7024 16.4493C36.5772 16.5894 36.4075 16.6684 36.2303 16.6691H23.3579C23.1806 16.6691 23.0105 16.5903 22.8851 16.4501C22.7597 16.3098 22.6892 16.1196 22.6892 15.9212Z" fill="#6987B9" stroke="#6987B9" stroke-width="0.5"/>
<path d="M22.6892 10.6859C22.6886 10.5875 22.7054 10.4899 22.7388 10.3988C22.7722 10.3078 22.8214 10.225 22.8836 10.1554C22.9459 10.0858 23.0198 10.0308 23.1013 9.99345C23.1827 9.95612 23.2699 9.93728 23.3579 9.93801H36.2303C36.4077 9.93801 36.5778 10.0168 36.7032 10.1571C36.8286 10.2973 36.899 10.4875 36.899 10.6859C36.8984 10.884 36.8277 11.0738 36.7024 11.2139C36.5772 11.354 36.4075 11.433 36.2303 11.4338H23.3579C23.1806 11.4338 23.0105 11.355 22.8851 11.2147C22.7597 11.0745 22.6892 10.8842 22.6892 10.6859Z" fill="#6987B9" stroke="#6987B9" stroke-width="0.5"/>
<path d="M22.6892 5.82463C22.6886 5.77542 22.7054 5.72663 22.7388 5.6811C22.7722 5.63557 22.8214 5.5942 22.8836 5.5594C22.9459 5.52461 23.0198 5.49708 23.1013 5.47841C23.1827 5.45975 23.2699 5.45033 23.3579 5.45069H36.2303C36.4077 5.45069 36.5778 5.49009 36.7032 5.56022C36.8286 5.63034 36.899 5.72546 36.899 5.82463C36.8984 5.92369 36.8277 6.0186 36.7024 6.08864C36.5772 6.15869 36.4075 6.19821 36.2303 6.19857H23.3579C23.1806 6.19857 23.0105 6.15917 22.8851 6.08904C22.7597 6.01892 22.6892 5.92381 22.6892 5.82463Z" fill="#6987B9" stroke="#6987B9" stroke-width="0.5"/>
<path d="M39.1422 37.6099V39.8535H20.4451V37.6099H21.4176V38.8429H38.1696V37.6099H39.1422Z" fill="#6987B9" stroke="#6987B9" stroke-width="0.5"/>
<path d="M36.899 10.6859C36.8984 10.884 36.8277 11.0738 36.7024 11.2139C36.5772 11.354 36.4075 11.433 36.2303 11.4338H23.3579C23.1806 11.4338 23.0105 11.355 22.8851 11.2147C22.7597 11.0745 22.6892 10.8842 22.6892 10.6859C22.6892 10.4875 22.7597 10.2973 22.8851 10.157C23.0105 10.0168 23.1806 9.93799 23.3579 9.93799H36.2303C36.4077 9.93799 36.5778 10.0168 36.7032 10.157C36.8286 10.2973 36.899 10.4875 36.899 10.6859Z" fill="#6987B9" stroke="#6987B9" stroke-width="0.5"/>
<path d="M36.899 5.82463C36.8984 5.92369 36.8277 6.01859 36.7024 6.08864C36.5772 6.15869 36.4075 6.19821 36.2303 6.19857H23.3579C23.1806 6.19857 23.0105 6.15917 22.8851 6.08904C22.7597 6.01892 22.6892 5.9238 22.6892 5.82463C22.6892 5.72545 22.7597 5.63034 22.8851 5.56021C23.0105 5.49008 23.1806 5.45068 23.3579 5.45068H36.2303C36.4077 5.45068 36.5778 5.49008 36.7032 5.56021C36.8286 5.63034 36.899 5.72545 36.899 5.82463Z" fill="#6987B9" stroke="#6987B9" stroke-width="0.5"/>
<path d="M36.899 15.9212C36.8984 16.1194 36.8277 16.3092 36.7024 16.4493C36.5772 16.5894 36.4075 16.6684 36.2303 16.6691H23.3579C23.1806 16.6691 23.0105 16.5903 22.8851 16.4501C22.7597 16.3098 22.6892 16.1196 22.6892 15.9212C22.6892 15.7229 22.7597 15.5326 22.8851 15.3924C23.0105 15.2521 23.1806 15.1733 23.3579 15.1733H36.2303C36.4077 15.1733 36.5778 15.2521 36.7032 15.3924C36.8286 15.5326 36.899 15.7229 36.899 15.9212Z" fill="#6987B9" stroke="#6987B9" stroke-width="0.5"/>
<path d="M36.899 20.4085C36.8984 20.6067 36.8277 20.7965 36.7024 20.9366C36.5772 21.0767 36.4075 21.1557 36.2303 21.1564H23.3579C23.1806 21.1564 23.0105 21.0776 22.8851 20.9374C22.7597 20.7971 22.6892 20.6069 22.6892 20.4085C22.6892 20.2102 22.7597 20.02 22.8851 19.8797C23.0105 19.7394 23.1806 19.6606 23.3579 19.6606H36.2303C36.4077 19.6606 36.5778 19.7394 36.7032 19.8797C36.8286 20.02 36.899 20.2102 36.899 20.4085Z" fill="#6987B9" stroke="#6987B9" stroke-width="0.5"/>
<path d="M36.899 25.6439C36.8984 25.842 36.8277 26.0318 36.7024 26.1719C36.5772 26.312 36.4075 26.391 36.2303 26.3918H23.3579C23.2701 26.3918 23.1831 26.3724 23.102 26.3348C23.0209 26.2973 22.9472 26.2422 22.8851 26.1727C22.823 26.1033 22.7737 26.0208 22.7401 25.9301C22.7065 25.8393 22.6892 25.7421 22.6892 25.6439C22.6892 25.5457 22.7065 25.4484 22.7401 25.3577C22.7737 25.2669 22.823 25.1845 22.8851 25.115C22.9472 25.0456 23.0209 24.9905 23.102 24.9529C23.1831 24.9153 23.2701 24.896 23.3579 24.896H36.2303C36.4077 24.896 36.5778 24.9748 36.7032 25.115C36.8286 25.2553 36.899 25.4455 36.899 25.6439Z" fill="#6987B9" stroke="#6987B9" stroke-width="0.5"/>
<path d="M18.9497 0.963379V37.6097H41.3862V0.963379H18.9497ZM40.4167 36.6339H19.9192V1.93918H40.4167V36.6339Z" fill="#6987B9" stroke="#6987B9" stroke-width="0.5"/>
<path d="M29.7936 29.3833C29.2759 29.3833 28.7698 29.5368 28.3394 29.8244C27.9089 30.1121 27.5734 30.5209 27.3753 30.9992C27.1772 31.4775 27.1253 32.0038 27.2263 32.5116C27.3273 33.0193 27.5766 33.4857 27.9427 33.8518C28.3088 34.2179 28.7752 34.4672 29.283 34.5682C29.7907 34.6692 30.317 34.6174 30.7953 34.4192C31.2736 34.2211 31.6824 33.8856 31.9701 33.4552C32.2577 33.0247 32.4112 32.5186 32.4112 32.0009C32.4106 31.3069 32.1346 30.6414 31.6439 30.1507C31.1531 29.6599 30.4877 29.3839 29.7936 29.3833ZM29.7936 33.682C29.4611 33.682 29.1361 33.5834 28.8597 33.3987C28.5832 33.2139 28.3678 32.9514 28.2405 32.6442C28.1133 32.337 28.08 31.999 28.1449 31.6729C28.2097 31.3468 28.3698 31.0473 28.6049 30.8122C28.84 30.5771 29.1396 30.417 29.4657 30.3521C29.7918 30.2873 30.1298 30.3206 30.4369 30.4478C30.7441 30.575 31.0067 30.7905 31.1914 31.0669C31.3761 31.3434 31.4747 31.6684 31.4747 32.0009C31.4747 32.447 31.2977 32.8748 30.9825 33.1904C30.6673 33.5061 30.2397 33.6837 29.7936 33.6843V33.682Z" fill="#6987B9" stroke="#6987B9" stroke-width="0.5"/>
</svg>
