<svg width="44" height="44" viewBox="0 0 44 44" fill="none" xmlns="http://www.w3.org/2000/svg">
<path d="M27.1028 1.18376C24.1904 2.88217 22.466 5.94919 22.466 9.18341C22.466 10.8818 23.153 12.5934 24.0131 14.1204C24.7002 15.4844 25.037 17.8651 22.6391 19.0575C20.928 20.0739 18.6894 19.3963 17.6655 17.6935C16.6413 16.3295 15.4402 14.9655 13.893 13.9488C10.9807 12.2504 7.54511 12.2504 4.63256 13.9488C1.72001 15.6472 0 18.722 0 21.9571C0 25.1922 1.71114 28.2581 4.63189 29.9611C7.54422 31.6595 10.9798 31.6595 13.8924 29.9611C15.4395 29.1075 16.6405 27.7523 17.4919 26.2165C18.179 25.0241 20.0674 23.4885 22.4656 24.8525C24.1767 25.8689 24.6909 28.0911 23.8396 29.7895C22.9797 31.3251 22.4656 33.0281 22.4656 34.7265C22.4656 37.9652 24.1767 41.0276 27.1023 42.7262C30.0147 44.4246 33.4502 44.4246 36.3628 42.7262C39.2753 41.0278 41 37.9608 41 34.7265C41 31.4923 39.2844 28.4255 36.3632 26.7225C34.8161 25.8689 33.1005 25.5301 31.2165 25.5301C29.6694 25.5301 27.6169 24.5137 27.6169 21.9571C27.6169 19.9111 29.1641 18.384 31.2165 18.384C32.9277 18.384 34.8161 18.0452 36.3632 17.1916C39.2756 15.4932 41 12.4262 41 9.19221C41 5.95821 39.2844 2.89119 36.3632 1.19256C34.9892 0.338963 33.2778 0.000162699 31.7313 0.000162699C30.1931 -0.00863731 28.4686 0.338963 27.1034 1.18376" fill="url(#paint0_linear)"/>
<defs>
<linearGradient id="paint0_linear" x1="-20.5" y1="22" x2="23.3905" y2="62.898" gradientUnits="userSpaceOnUse">
<stop stop-color="#40DDFF"/>
<stop offset="0.192353" stop-color="#14BAE3"/>
<stop offset="0.686424" stop-color="#13B1E6"/>
<stop offset="0.817657" stop-color="#11AADF"/>
<stop offset="1" stop-color="#0B98C5"/>
</linearGradient>
</defs>
</svg>
