<svg width="27" height="29" viewBox="0 0 27 29" fill="none" xmlns="http://www.w3.org/2000/svg">
<path fill-rule="evenodd" clip-rule="evenodd" d="M13.5 27C20.9558 27 27 20.9558 27 13.5C27 6.04416 20.9558 0 13.5 0C6.04416 0 0 6.04416 0 13.5C0 20.9558 6.04416 27 13.5 27Z" fill="#F1F5F8"/>
<path fill-rule="evenodd" clip-rule="evenodd" d="M17.4779 10.8333H18.0703C18.3979 10.8333 18.6627 11.0941 18.6627 11.4167V18.4167C18.6627 18.7392 18.3979 19 18.0703 19H8.59237C8.26479 19 8 18.7392 8 18.4167V11.4167C8 11.0941 8.26479 10.8333 8.59237 10.8333H9.18474V9.08333C9.18474 6.82817 11.0412 5 13.3313 5C15.6214 5 17.4779 6.82817 17.4779 9.08333V10.8333ZM13.3314 6.16667C11.6952 6.16667 10.3695 7.47217 10.3695 9.08333V10.8333H16.2932V9.08333C16.2932 7.47217 14.9675 6.16667 13.3314 6.16667ZM17.4778 17.8333H9.18461V12H17.4778V17.8333ZM12.7389 16.0833V15.3384C12.3859 15.136 12.1466 14.7638 12.1466 14.3333C12.1466 13.6893 12.6773 13.1667 13.3313 13.1667C13.9853 13.1667 14.516 13.6893 14.516 14.3333C14.516 14.7644 14.2767 15.136 13.9237 15.3384V16.0833C13.9237 16.4059 13.6589 16.6667 13.3313 16.6667C13.0037 16.6667 12.7389 16.4059 12.7389 16.0833Z" fill="#344257"/>
</svg>
