<svg width="27" height="27" viewBox="0 0 27 27" fill="none" xmlns="http://www.w3.org/2000/svg">
<path fill-rule="evenodd" clip-rule="evenodd" d="M13.5 27C20.9558 27 27 20.9558 27 13.5C27 6.04416 20.9558 0 13.5 0C6.04416 0 0 6.04416 0 13.5C0 20.9558 6.04416 27 13.5 27Z" fill="#333B59"/>
<path d="M19.9474 11.7895V8.94737C19.9474 8.41053 19.5368 8 19 8H7.94737C7.41053 8 7 8.41053 7 8.94737V19.0526C7 19.5895 7.41053 20 7.94737 20H19C19.5368 20 19.9474 19.5895 19.9474 19.0526V16.2105C20.4842 16.2105 20.8947 15.8 20.8947 15.2632V12.7368C20.8947 12.2 20.4842 11.7895 19.9474 11.7895ZM19 19.0526H7.94737V8.94737H19V11.7895H17.4211C16.8842 11.7895 16.4737 12.2 16.4737 12.7368V15.2632C16.4737 15.8 16.8842 16.2105 17.4211 16.2105H19V19.0526ZM19.9474 15.2632H17.4211V12.7368H19.9474V15.2632Z" fill="white"/>
<path d="M18.6836 14.4736C18.9453 14.4736 19.1573 14.2615 19.1573 13.9999C19.1573 13.7383 18.9453 13.5262 18.6836 13.5262C18.422 13.5262 18.21 13.7383 18.21 13.9999C18.21 14.2615 18.422 14.4736 18.6836 14.4736Z" fill="white"/>
</svg>
