<svg width="53" height="50" viewBox="0 0 53 50" fill="none" xmlns="http://www.w3.org/2000/svg">
<path fill-rule="evenodd" clip-rule="evenodd" d="M50 25C50 38.8063 38.8063 50 25 50C11.1938 50 0 38.8063 0 25C0 11.1938 11.1938 0 25 0C38.8063 0 50 11.1938 50 25ZM23.9581 18.75V23.9583C26.2602 23.9583 29.7685 23.7958 29.7685 21.3542C29.7685 19.2708 27.604 18.75 23.9581 18.75ZM23.9581 31.2497V26.0352C27.8644 26.0352 30.9248 26.2372 30.9248 28.6289C30.9248 30.8581 28.0915 31.2497 23.9581 31.2497ZM31.6898 24.0979C33.2523 24.4958 35.4169 25.6521 35.4169 28.3167C35.4169 31.9438 32.6169 34.375 27.0835 34.375V37.5H25.0002V34.3521H23.9585V37.5H21.8752V34.3521H16.7002L17.221 31.25H18.344C19.2648 31.25 19.7919 30.3646 19.7919 29.4708V20.2125C19.7919 19.3458 19.2877 18.75 18.369 18.75H16.6669V15.625H21.8752V12.5H23.9585V15.625H25.0002V12.5H27.0835V15.6792C31.5794 15.8313 33.3585 17.5354 33.869 19.4562C34.4731 21.7271 32.9752 23.6333 31.6898 24.0979Z" fill="url(#paint0_linear)"/>
<defs>
<linearGradient id="paint0_linear" x1="29.5087" y1="-58.1526" x2="-99.2442" y2="20.0193" gradientUnits="userSpaceOnUse">
<stop stop-color="#EDB64F"/>
<stop offset="1" stop-color="#DD26BC"/>
</linearGradient>
</defs>
</svg>
