<svg width="24" height="24" viewBox="0 0 24 24" fill="none" xmlns="http://www.w3.org/2000/svg">
<path d="M12 0C5.4 0 0 5.4 0 12C0 18.6 5.4 24 12 24C18.6 24 24 18.6 24 12C24 5.4 18.6 0 12 0ZM12 22.3636C6.27273 22.3636 1.63636 17.7273 1.63636 12C1.63636 6.27273 6.27273 1.63636 12 1.63636C17.7273 1.63636 22.3636 6.27273 22.3636 12C22.3636 17.7273 17.7273 22.3636 12 22.3636Z" fill="#6987B9"/>
<path d="M16.3632 7.58125C16.0359 7.25398 15.545 7.25398 15.2178 7.58125L12.1087 10.7994L8.72683 7.5267C8.39956 7.19943 7.90866 7.19943 7.58139 7.5267C7.25412 7.85398 7.25412 8.34489 7.58139 8.67216L10.9087 11.8903L7.58139 15.1085C7.25412 15.4358 7.25412 15.9267 7.58139 16.254C7.74503 16.4176 7.9632 16.5267 8.18138 16.5267C8.39956 16.5267 8.5632 16.4722 8.72683 16.3085L12.1087 13.0358L15.2178 16.254C15.3814 16.4176 15.5996 16.5267 15.8177 16.5267C16.0359 16.5267 16.1996 16.4722 16.3632 16.3085C16.6905 15.9813 16.6905 15.4903 16.3632 15.1631L13.2541 11.8903L16.3632 8.61761C16.745 8.39943 16.6905 7.90853 16.3632 7.58125Z" fill="#6987B9"/>
</svg>
