<svg width="42" height="42" viewBox="0 0 42 42" fill="none" xmlns="http://www.w3.org/2000/svg">
<path d="M21.6894 29.7406C19.78 29.7406 17.9134 29.1744 16.3258 28.1137C14.7381 27.053 13.5005 25.5454 12.7696 23.7814C12.0387 22.0175 11.8472 20.0764 12.2193 18.2036C12.5915 16.3309 13.5105 14.6105 14.8603 13.26C16.2101 11.9095 17.9301 10.9895 19.8026 10.6164C21.6752 10.2433 23.6164 10.4337 25.3807 11.1638C27.1451 11.8938 28.6534 13.1305 29.7149 14.7176C30.7764 16.3047 31.3435 18.171 31.3445 20.0804C31.3432 22.6411 30.3257 25.0967 28.5154 26.9079C26.7052 28.7191 24.2501 29.7379 21.6894 29.7406ZM21.6894 11.4373C19.9787 11.4373 18.3065 11.9446 16.8842 12.8951C15.4619 13.8456 14.3535 15.1966 13.6991 16.7771C13.0447 18.3576 12.8737 20.0967 13.2078 21.7744C13.5419 23.4521 14.366 24.9931 15.576 26.2023C16.786 27.4116 18.3274 28.2348 20.0053 28.568C21.6832 28.9011 23.4222 28.7291 25.0023 28.0738C26.5825 27.4185 27.9328 26.3092 28.8824 24.8864C29.8321 23.4635 30.3385 21.791 30.3375 20.0804C30.3328 17.7889 29.4199 15.5927 27.7989 13.9731C26.1778 12.3534 23.9808 11.4425 21.6894 11.4398V11.4373Z" fill="#6987B9" stroke="#6987B9" stroke-width="0.5"/>
<path d="M24.4433 22.8569C24.4433 24.2379 23.5889 25.2109 22.1464 25.3417V26.9817H21.3516V25.3286C20.4358 25.2015 19.5836 24.7292 18.9307 23.9868L19.5508 23.1394C20.162 23.8349 20.984 24.2374 21.8478 24.2641C22.7252 24.2641 23.3752 23.7671 23.3752 22.9144C23.3752 21.9414 22.6862 21.6066 21.5928 21.2273C20.2927 20.7513 19.1075 20.2883 19.1075 18.6745C19.1075 17.3667 19.9138 16.3596 21.3654 16.2812V14.5679H22.1464V16.3413C22.879 16.4893 23.5721 16.8266 24.1723 17.3274L23.5751 18.167C22.9906 17.6828 22.2942 17.4045 21.5721 17.3667C20.7429 17.3667 20.1618 17.8087 20.1618 18.6039C20.1618 19.4513 20.8808 19.76 21.8753 20.1314C23.3385 20.6545 24.4479 21.1044 24.4479 22.8412L24.4433 22.8569Z" fill="#6987B9" stroke="#6987B9" stroke-width="0.5"/>
<path d="M36.8619 20.1307C36.8625 23.3001 35.8492 26.3896 33.9652 28.9628C32.0812 31.5361 29.4216 33.4631 26.3621 34.4716C23.3026 35.4802 19.9978 35.5194 16.9143 34.5836C13.8309 33.6479 11.1248 31.7845 9.17802 29.2567L9.99103 28.6439C12.0132 31.2712 14.9076 33.1209 18.1727 33.8724C21.4378 34.624 24.8677 34.2299 27.8681 32.7586C30.8684 31.2874 33.25 28.8315 34.6001 25.8168C35.9502 22.8021 36.1837 19.4185 35.2602 16.2524C34.3367 13.0864 32.3144 10.3374 29.5437 8.48196C26.773 6.62651 23.4286 5.78154 20.0901 6.09348C16.7516 6.40542 13.6294 7.85461 11.2648 10.1899C8.90006 12.5252 7.44187 15.5994 7.1429 18.8797L8.66277 17.3871L9.40846 18.0965L6.60693 20.8554L3.75879 18.0584L4.48636 17.3337L6.10721 18.9305C6.39896 15.0178 8.22769 11.3696 11.2072 8.75631C14.1868 6.14301 18.0839 4.76919 22.0756 4.92496C26.0673 5.08074 29.8411 6.75391 32.6001 9.59115C35.359 12.4284 36.8872 16.2076 36.8619 20.1307Z" fill="#6987B9" stroke="#6987B9" stroke-width="0.5"/>
<path d="M35.15 34.9181C32.7409 37.3262 29.7567 39.0793 26.48 40.0114C23.2034 40.9434 19.7429 41.0235 16.4266 40.244C13.1104 39.4646 10.0481 37.8513 7.53018 35.5573C5.01223 33.2632 3.12198 30.3643 2.03859 27.1353C0.955191 23.9063 0.714547 20.4542 1.33946 17.1062C1.96438 13.7581 3.43414 10.6251 5.60946 8.00407C7.78478 5.383 10.5936 3.36072 13.7697 2.12889C16.9457 0.897065 20.3838 0.496505 23.7581 0.965176L23.6206 1.98364C19.2097 1.36998 14.7233 2.32575 10.9458 4.68388C7.16837 7.04201 4.34009 10.6525 2.95544 14.884C1.57079 19.1156 1.71787 23.6992 3.37096 27.8333C5.02406 31.9675 8.07799 35.3893 11.9989 37.5005C15.9198 39.6118 20.4582 40.2781 24.8207 39.3831C29.1832 38.488 33.0923 36.0886 35.8645 32.6041C38.6368 29.1197 40.0958 24.772 39.9867 20.3211C39.8775 15.8701 38.207 11.5992 35.2672 8.2548V11.5266H34.2484V6.51069H39.3675V7.52915H35.9905C39.3588 11.3461 41.1467 16.3022 40.9906 21.3898C40.8345 26.4775 38.7461 31.3148 35.15 34.9181Z" fill="#6987B9" stroke="#6987B9" stroke-width="0.5"/>
</svg>
