<svg width="46" height="46" viewBox="0 0 46 46" fill="none" xmlns="http://www.w3.org/2000/svg">
<path fill-rule="evenodd" clip-rule="evenodd" d="M23.5 36C30.9558 36 37 29.9558 37 22.5C37 15.0442 30.9558 9 23.5 9C16.0442 9 10 15.0442 10 22.5C10 29.9558 16.0442 36 23.5 36Z" fill="#F1F5F8"/>
<path fill-rule="evenodd" clip-rule="evenodd" d="M28.2083 17.1667H26.5833V16.625C26.5833 16.3255 26.3412 16.0833 26.0417 16.0833H25.4003C25.1766 15.4539 24.5819 15 23.875 15C23.1681 15 22.5734 15.4539 22.3497 16.0833H21.7083C21.4088 16.0833 21.1667 16.3255 21.1667 16.625V17.1667H19.5417C19.2421 17.1667 19 17.4088 19 17.7083V27.4583C19 27.7579 19.2421 28 19.5417 28H28.2083C28.5079 28 28.75 27.7579 28.75 27.4583V17.7083C28.75 17.4088 28.5079 17.1667 28.2083 17.1667ZM24.4167 23.6667H21.7084C21.4088 23.6667 21.1667 23.4246 21.1667 23.1251C21.1667 22.8255 21.4088 22.5834 21.7084 22.5834H24.4167C24.7162 22.5834 24.9584 22.8255 24.9584 23.1251C24.9584 23.4246 24.7162 23.6667 24.4167 23.6667ZM21.7084 24.7501H24.9584C25.2579 24.7501 25.5 24.9922 25.5 25.2918C25.5 25.5913 25.2579 25.8334 24.9584 25.8334H21.7084C21.4088 25.8334 21.1667 25.5913 21.1667 25.2918C21.1667 24.9922 21.4088 24.7501 21.7084 24.7501ZM22.7912 17.1667H22.2495V18.25H25.4995V17.1667H24.9579C24.6583 17.1667 24.4162 16.9246 24.4162 16.625C24.4162 16.3255 24.1741 16.0833 23.8745 16.0833C23.575 16.0833 23.3329 16.3255 23.3329 16.625C23.3329 16.9246 23.0908 17.1667 22.7912 17.1667ZM27.6662 26.9167H20.0829V18.25H21.1662V18.7917C21.1662 19.0912 21.4083 19.3334 21.7079 19.3334H26.0412C26.3407 19.3334 26.5829 19.0912 26.5829 18.7917V18.25H27.6662V26.9167ZM21.7084 20.4167H26.0417C26.3412 20.4167 26.5834 20.6588 26.5834 20.9584C26.5834 21.2579 26.3412 21.5 26.0417 21.5H21.7084C21.4088 21.5 21.1667 21.2579 21.1667 20.9584C21.1667 20.6588 21.4088 20.4167 21.7084 20.4167Z" fill="#344257"/>
</svg>
