<svg width="46" height="46" viewBox="0 0 46 46" fill="none" xmlns="http://www.w3.org/2000/svg">
<path fill-rule="evenodd" clip-rule="evenodd" d="M23.5 36C30.9558 36 37 29.9558 37 22.5C37 15.0442 30.9558 9 23.5 9C16.0442 9 10 15.0442 10 22.5C10 29.9558 16.0442 36 23.5 36Z" fill="#F1F5F8"/>
<path d="M20.9614 18.5365C21.2241 18.5365 21.4371 18.3236 21.4371 18.0609C21.4371 17.7983 21.2241 17.5853 20.9614 17.5853C20.6988 17.5853 20.4858 17.7983 20.4858 18.0609C20.4858 18.3236 20.6988 18.5365 20.9614 18.5365Z" fill="#344257"/>
<path d="M19.8537 20.122H28.4146C28.9537 20.122 29.3659 19.7098 29.3659 19.1707V16.9512C29.3659 16.4122 28.9537 16 28.4146 16H19.8537C19.3146 16 18.9024 16.4122 18.9024 16.9512V17.5854H17.4756C17.222 17.5854 17 17.8073 17 18.061V27.2561C17 27.5098 17.222 27.7317 17.4756 27.7317H18.9024V28.0488C18.9024 28.5878 19.3146 29 19.8537 29H28.4146C28.9537 29 29.3659 28.5878 29.3659 28.0488V25.8293C29.3659 25.2902 28.9537 24.878 28.4146 24.878H19.8537C19.3146 24.878 18.9024 25.2902 18.9024 25.8293V26.7805H17.9512V22.9756H18.9024V23.6098C18.9024 24.1488 19.3146 24.561 19.8537 24.561H28.4146C28.9537 24.561 29.3659 24.1488 29.3659 23.6098V21.3902C29.3659 20.8512 28.9537 20.439 28.4146 20.439H19.8537C19.3146 20.439 18.9024 20.8512 18.9024 21.3902V22.0244H17.9512V18.5366H18.9024V19.1707C18.9024 19.7098 19.3146 20.122 19.8537 20.122ZM19.8537 16.9512H28.4146V19.1707H19.8537V16.9512ZM19.8537 25.8293H28.4146V28.0488H19.8537V25.8293ZM19.8537 21.3902H28.4146V23.6098H19.8537V21.3902Z" fill="#344257"/>
<path d="M20.9614 22.9759C21.2241 22.9759 21.4371 22.763 21.4371 22.5003C21.4371 22.2377 21.2241 22.0247 20.9614 22.0247C20.6988 22.0247 20.4858 22.2377 20.4858 22.5003C20.4858 22.763 20.6988 22.9759 20.9614 22.9759Z" fill="#344257"/>
<path d="M20.9614 27.414C21.2241 27.414 21.4371 27.2011 21.4371 26.9384C21.4371 26.6757 21.2241 26.4628 20.9614 26.4628C20.6988 26.4628 20.4858 26.6757 20.4858 26.9384C20.4858 27.2011 20.6988 27.414 20.9614 27.414Z" fill="#344257"/>
</svg>
