<svg width="46" height="46" viewBox="0 0 46 46" fill="none" xmlns="http://www.w3.org/2000/svg">
<path fill-rule="evenodd" clip-rule="evenodd" d="M23.5 36C30.9558 36 37 29.9558 37 22.5C37 15.0442 30.9558 9 23.5 9C16.0442 9 10 15.0442 10 22.5C10 29.9558 16.0442 36 23.5 36Z" fill="#333B59"/>
<path d="M20.9616 18.5367C21.2242 18.5367 21.4372 18.3237 21.4372 18.0611C21.4372 17.7984 21.2242 17.5854 20.9616 17.5854C20.6989 17.5854 20.486 17.7984 20.486 18.0611C20.486 18.3237 20.6989 18.5367 20.9616 18.5367Z" fill="white"/>
<path d="M19.8537 20.122H28.4146C28.9537 20.122 29.3659 19.7098 29.3659 19.1707V16.9512C29.3659 16.4122 28.9537 16 28.4146 16H19.8537C19.3146 16 18.9024 16.4122 18.9024 16.9512V17.5854H17.4756C17.222 17.5854 17 17.8073 17 18.061V27.2561C17 27.5098 17.222 27.7317 17.4756 27.7317H18.9024V28.0488C18.9024 28.5878 19.3146 29 19.8537 29H28.4146C28.9537 29 29.3659 28.5878 29.3659 28.0488V25.8293C29.3659 25.2902 28.9537 24.878 28.4146 24.878H19.8537C19.3146 24.878 18.9024 25.2902 18.9024 25.8293V26.7805H17.9512V22.9756H18.9024V23.6098C18.9024 24.1488 19.3146 24.561 19.8537 24.561H28.4146C28.9537 24.561 29.3659 24.1488 29.3659 23.6098V21.3902C29.3659 20.8512 28.9537 20.439 28.4146 20.439H19.8537C19.3146 20.439 18.9024 20.8512 18.9024 21.3902V22.0244H17.9512V18.5366H18.9024V19.1707C18.9024 19.7098 19.3146 20.122 19.8537 20.122ZM19.8537 16.9512H28.4146V19.1707H19.8537V16.9512ZM19.8537 25.8293H28.4146V28.0488H19.8537V25.8293ZM19.8537 21.3902H28.4146V23.6098H19.8537V21.3902Z" fill="white"/>
<path d="M20.9616 22.9759C21.2242 22.9759 21.4372 22.7629 21.4372 22.5003C21.4372 22.2376 21.2242 22.0247 20.9616 22.0247C20.6989 22.0247 20.486 22.2376 20.486 22.5003C20.486 22.7629 20.6989 22.9759 20.9616 22.9759Z" fill="white"/>
<path d="M20.9616 27.4141C21.2242 27.4141 21.4372 27.2012 21.4372 26.9385C21.4372 26.6758 21.2242 26.4629 20.9616 26.4629C20.6989 26.4629 20.486 26.6758 20.486 26.9385C20.486 27.2012 20.6989 27.4141 20.9616 27.4141Z" fill="white"/>
</svg>
