<svg width="46" height="46" viewBox="0 0 46 46" fill="none" xmlns="http://www.w3.org/2000/svg">
<path fill-rule="evenodd" clip-rule="evenodd" d="M23.5 36C30.9558 36 37 29.9558 37 22.5C37 15.0442 30.9558 9 23.5 9C16.0442 9 10 15.0442 10 22.5C10 29.9558 16.0442 36 23.5 36Z" fill="#333B59"/>
<path fill-rule="evenodd" clip-rule="evenodd" d="M24.3269 22.2739V18.4316C25.2763 18.6344 25.9799 19.3281 25.9799 20.0202C25.9799 20.3249 26.2262 20.5712 26.531 20.5712C26.8357 20.5712 27.082 20.3249 27.082 20.0202C27.082 18.7689 25.8896 17.5489 24.3269 17.3103V16.7141C24.3269 16.4094 24.0806 16.1631 23.7758 16.1631C23.4711 16.1631 23.2248 16.4094 23.2248 16.7141V17.3109C21.6621 17.5522 20.4697 18.7843 20.4697 20.0202C20.4697 21.6579 21.6621 23.0139 23.2248 23.2768V27.119C22.276 26.9157 21.5718 26.2225 21.5718 25.5304C21.5718 25.2257 21.3255 24.9794 21.0207 24.9794C20.716 24.9794 20.4697 25.2257 20.4697 25.5304C20.4697 26.7664 21.6621 27.9985 23.2248 28.2398V28.8366C23.2248 29.1413 23.4711 29.3876 23.7758 29.3876C24.0806 29.3876 24.3269 29.1413 24.3269 28.8366V28.2404C25.8896 28.0012 27.082 26.7824 27.082 25.5304C27.082 23.8922 25.8896 22.5367 24.3269 22.2739ZM21.5713 20.0206C21.5713 19.3285 22.2755 18.6353 23.2243 18.432V22.1464C22.2755 21.9006 21.5713 21.046 21.5713 20.0206ZM24.3263 23.4054V27.1204C25.2757 26.9209 25.9794 26.2371 25.9794 25.5307C25.9794 24.5052 25.2757 23.6506 24.3263 23.4054Z" fill="white"/>
</svg>
