<svg width="39" height="51" viewBox="0 0 39 51" fill="none" xmlns="http://www.w3.org/2000/svg">
<g filter="url(#filter0_d)">
<path d="M19.5786 0.849854L19.251 1.98919V35.0501L19.5786 35.3847L34.5774 26.3134L19.5786 0.849854Z" fill="url(#paint0_linear)"/>
<path d="M19.5789 0.849854L4.58008 26.3134L19.5789 35.3848V19.338V0.849854Z" fill="url(#paint1_linear)"/>
<path d="M19.5791 38.2911L19.3945 38.5213V50.2984L19.5791 50.8501L34.5868 29.2244L19.5791 38.2911Z" fill="url(#paint2_linear)"/>
<path d="M19.5789 50.8492V38.2901L4.58008 29.2234L19.5789 50.8492Z" fill="url(#paint3_linear)"/>
<path d="M19.5781 35.3851L34.5767 26.314L19.5781 19.3386V35.3851Z" fill="url(#paint4_linear)"/>
<path d="M4.58008 26.314L19.5786 35.3851V19.3386L4.58008 26.314Z" fill="url(#paint5_linear)"/>
</g>
<defs>
<filter id="filter0_d" x="0.580078" y="0.849854" width="38.0068" height="58.0003" filterUnits="userSpaceOnUse" color-interpolation-filters="sRGB">
<feFlood flood-opacity="0" result="BackgroundImageFix"/>
<feColorMatrix in="SourceAlpha" type="matrix" values="0 0 0 0 0 0 0 0 0 0 0 0 0 0 0 0 0 0 127 0"/>
<feOffset dy="4"/>
<feGaussianBlur stdDeviation="2"/>
<feColorMatrix type="matrix" values="0 0 0 0 0 0 0 0 0 0 0 0 0 0 0 0 0 0 0.25 0"/>
<feBlend mode="normal" in2="BackgroundImageFix" result="effect1_dropShadow"/>
<feBlend mode="normal" in="SourceGraphic" in2="effect1_dropShadow" result="shape"/>
</filter>
<linearGradient id="paint0_linear" x1="42.377" y1="18.2646" x2="8.84606" y2="2.04439" gradientUnits="userSpaceOnUse">
<stop stop-color="#6B1B98"/>
<stop offset="1" stop-color="#DE0F62"/>
</linearGradient>
<linearGradient id="paint1_linear" x1="27.2118" y1="18.2647" x2="-5.86777" y2="2.60491" gradientUnits="userSpaceOnUse">
<stop stop-color="#6B1B98"/>
<stop offset="1" stop-color="#DE0F62"/>
</linearGradient>
<linearGradient id="paint2_linear" x1="42.3183" y1="40.1295" x2="16.4632" y2="20.3313" gradientUnits="userSpaceOnUse">
<stop stop-color="#6B1B98"/>
<stop offset="1" stop-color="#DE0F62"/>
</linearGradient>
<linearGradient id="paint3_linear" x1="27.2118" y1="40.1286" x2="1.44498" y2="20.6493" gradientUnits="userSpaceOnUse">
<stop stop-color="#6B1B98"/>
<stop offset="1" stop-color="#DE0F62"/>
</linearGradient>
<linearGradient id="paint4_linear" x1="42.2095" y1="27.4304" x2="22.3408" y2="7.18775" gradientUnits="userSpaceOnUse">
<stop stop-color="#6B1B98"/>
<stop offset="1" stop-color="#DE0F62"/>
</linearGradient>
<linearGradient id="paint5_linear" x1="27.2115" y1="27.4304" x2="7.34276" y2="7.18775" gradientUnits="userSpaceOnUse">
<stop stop-color="#6B1B98"/>
<stop offset="1" stop-color="#DE0F62"/>
</linearGradient>
</defs>
</svg>
