<svg width="116" height="15" viewBox="0 0 116 15" fill="none" xmlns="http://www.w3.org/2000/svg">
<path d="M12.3656 9.71436C12.2549 11.2443 11.6885 12.4487 10.6664 13.3276C9.65076 14.2065 8.30961 14.646 6.64294 14.646C4.82003 14.646 3.38448 14.034 2.3363 12.8101C1.29464 11.5796 0.773804 9.89339 0.773804 7.75146V6.88232C0.773804 5.51514 1.01469 4.31071 1.49646 3.26904C1.97823 2.22738 2.66508 1.42985 3.55701 0.876465C4.45544 0.316569 5.49711 0.0366211 6.68201 0.0366211C8.32263 0.0366211 9.64425 0.476074 10.6469 1.35498C11.6495 2.23389 12.2289 3.46761 12.3851 5.05615H9.45544C9.38383 4.13818 9.12667 3.47412 8.68396 3.06396C8.24776 2.6473 7.58044 2.43896 6.68201 2.43896C5.70544 2.43896 4.97302 2.79053 4.48474 3.49365C4.00297 4.19027 3.75557 5.27425 3.74255 6.74561V7.81982C3.74255 9.35628 3.97367 10.4793 4.43591 11.189C4.90466 11.8986 5.64034 12.2534 6.64294 12.2534C7.54789 12.2534 8.22172 12.0483 8.66443 11.6382C9.11365 11.2215 9.37081 10.5802 9.43591 9.71436H12.3656ZM19.5531 9.24561H17.2191V14.4507H14.2894V0.231934H19.5726C21.2523 0.231934 22.5479 0.606283 23.4594 1.35498C24.3708 2.10368 24.8265 3.16162 24.8265 4.52881C24.8265 5.49886 24.6149 6.30941 24.1918 6.96045C23.7751 7.60498 23.1403 8.1193 22.2875 8.50342L25.3636 14.314V14.4507H22.2191L19.5531 9.24561ZM17.2191 6.87256H19.5824C20.3181 6.87256 20.8877 6.68701 21.2914 6.31592C21.695 5.93831 21.8969 5.42074 21.8969 4.76318C21.8969 4.09261 21.7048 3.56527 21.3207 3.18115C20.9431 2.79704 20.3604 2.60498 19.5726 2.60498H17.2191V6.87256ZM31.4965 6.63818L34.4554 0.231934H37.6586L32.9906 9.29443V14.4507H30.0121V9.29443L25.3441 0.231934H28.557L31.4965 6.63818ZM41.8871 9.44092V14.4507H38.9574V0.231934H44.5043C45.572 0.231934 46.5095 0.427246 47.3168 0.817871C48.1306 1.2085 48.7556 1.76514 49.1918 2.48779C49.628 3.20394 49.8461 4.021 49.8461 4.93896C49.8461 6.33219 49.3676 7.43245 48.4105 8.23975C47.46 9.04053 46.1416 9.44092 44.4554 9.44092H41.8871ZM41.8871 7.06787H44.5043C45.279 7.06787 45.8682 6.88558 46.2719 6.521C46.682 6.15641 46.8871 5.63558 46.8871 4.9585C46.8871 4.26188 46.682 3.69873 46.2719 3.26904C45.8617 2.83936 45.2953 2.618 44.5726 2.60498H41.8871V7.06787ZM62.5707 2.60498H58.2152V14.4507H55.2855V2.60498H50.9886V0.231934H62.5707V2.60498ZM75.0121 0.231934V9.59717C75.0121 11.1532 74.5238 12.3836 73.5472 13.2886C72.5772 14.1935 71.2491 14.646 69.5629 14.646C67.9027 14.646 66.5844 14.2065 65.6078 13.3276C64.6312 12.4487 64.1332 11.241 64.1136 9.70459V0.231934H67.0433V9.6167C67.0433 10.5477 67.2647 11.228 67.7074 11.6577C68.1566 12.0809 68.7751 12.2925 69.5629 12.2925C71.21 12.2925 72.0466 11.4266 72.0726 9.69482V0.231934H75.0121ZM89.0941 7.66357C89.0941 9.06331 88.8467 10.2905 88.3519 11.3452C87.8571 12.3999 87.1475 13.2137 86.223 13.7866C85.3051 14.3595 84.2504 14.646 83.059 14.646C81.8806 14.646 80.8291 14.3628 79.9047 13.7964C78.9802 13.23 78.264 12.4227 77.7562 11.3745C77.2484 10.3198 76.9913 9.10889 76.9847 7.7417V7.03857C76.9847 5.63883 77.2354 4.40837 77.7367 3.34717C78.2445 2.27946 78.9574 1.4624 79.8754 0.895996C80.7998 0.323079 81.8545 0.0366211 83.0394 0.0366211C84.2243 0.0366211 85.2758 0.323079 86.1937 0.895996C87.1182 1.4624 87.8311 2.27946 88.3324 3.34717C88.8402 4.40837 89.0941 5.63558 89.0941 7.02881V7.66357ZM86.1254 7.01904C86.1254 5.52816 85.8584 4.39535 85.3246 3.62061C84.7907 2.84587 84.029 2.4585 83.0394 2.4585C82.0564 2.4585 81.2979 2.84261 80.764 3.61084C80.2302 4.37256 79.96 5.49235 79.9535 6.97021V7.66357C79.9535 9.1154 80.2204 10.2417 80.7543 11.0425C81.2881 11.8433 82.0564 12.2437 83.059 12.2437C84.042 12.2437 84.7972 11.8595 85.3246 11.0913C85.8519 10.3166 86.1189 9.19027 86.1254 7.7124V7.01904ZM98.5961 10.7202C98.5961 10.1668 98.4008 9.74365 98.0101 9.45068C97.6195 9.1512 96.9164 8.8387 95.9008 8.51318C94.8851 8.18115 94.0811 7.85563 93.4886 7.53662C91.8741 6.66423 91.0668 5.4891 91.0668 4.01123C91.0668 3.243 91.2816 2.55941 91.7113 1.96045C92.1475 1.35498 92.7692 0.882975 93.5765 0.544434C94.3903 0.205892 95.3018 0.0366211 96.3109 0.0366211C97.3265 0.0366211 98.2315 0.222168 99.0258 0.593262C99.82 0.957845 100.435 1.47542 100.871 2.146C101.314 2.81657 101.536 3.57829 101.536 4.43115H98.6058C98.6058 3.78011 98.4008 3.27555 97.9906 2.91748C97.5804 2.5529 97.0043 2.37061 96.2621 2.37061C95.5459 2.37061 94.9893 2.5236 94.5922 2.82959C94.195 3.12907 93.9965 3.5262 93.9965 4.021C93.9965 4.48324 94.2276 4.87061 94.6898 5.18311C95.1586 5.49561 95.8454 5.78857 96.7504 6.06201C98.417 6.56331 99.6312 7.18506 100.393 7.92725C101.155 8.66943 101.536 9.59391 101.536 10.7007C101.536 11.9312 101.07 12.8979 100.139 13.6011C99.208 14.2977 97.9548 14.646 96.3793 14.646C95.2855 14.646 94.2894 14.4474 93.391 14.0503C92.4926 13.6466 91.8057 13.0965 91.3304 12.3999C90.8617 11.7033 90.6273 10.896 90.6273 9.97803H93.5668C93.5668 11.547 94.5043 12.3315 96.3793 12.3315C97.0759 12.3315 97.6195 12.1916 98.0101 11.9116C98.4008 11.6252 98.5961 11.228 98.5961 10.7202ZM115.207 7.66357C115.207 9.06331 114.96 10.2905 114.465 11.3452C113.97 12.3999 113.261 13.2137 112.336 13.7866C111.418 14.3595 110.364 14.646 109.172 14.646C107.994 14.646 106.942 14.3628 106.018 13.7964C105.093 13.23 104.377 12.4227 103.87 11.3745C103.362 10.3198 103.105 9.10889 103.098 7.7417V7.03857C103.098 5.63883 103.349 4.40837 103.85 3.34717C104.358 2.27946 105.071 1.4624 105.989 0.895996C106.913 0.323079 107.968 0.0366211 109.153 0.0366211C110.338 0.0366211 111.389 0.323079 112.307 0.895996C113.231 1.4624 113.944 2.27946 114.446 3.34717C114.953 4.40837 115.207 5.63558 115.207 7.02881V7.66357ZM112.239 7.01904C112.239 5.52816 111.972 4.39535 111.438 3.62061C110.904 2.84587 110.142 2.4585 109.153 2.4585C108.17 2.4585 107.411 2.84261 106.877 3.61084C106.343 4.37256 106.073 5.49235 106.067 6.97021V7.66357C106.067 9.1154 106.334 10.2417 106.868 11.0425C107.401 11.8433 108.17 12.2437 109.172 12.2437C110.155 12.2437 110.911 11.8595 111.438 11.0913C111.965 10.3166 112.232 9.19027 112.239 7.7124V7.01904Z" fill="url(#paint0_linear)"/>
<defs>
<linearGradient id="paint0_linear" x1="-71.9996" y1="7.64249" x2="-61.7141" y2="58.3222" gradientUnits="userSpaceOnUse">
<stop stop-color="#40DDFF"/>
<stop offset="0.192353" stop-color="#14BAE3"/>
<stop offset="0.686424" stop-color="#13B1E6"/>
<stop offset="0.817657" stop-color="#11AADF"/>
<stop offset="1" stop-color="#0B98C5"/>
</linearGradient>
</defs>
</svg>
