<svg width="46" height="42" viewBox="0 0 46 42" fill="none" xmlns="http://www.w3.org/2000/svg">
<path d="M36.804 39.7192H2.85059V40.8693H36.804V39.7192Z" fill="#6987B9" stroke="#6987B9" stroke-width="0.5"/>
<path d="M3 12.626V18.0716C3.18214 17.9955 3.37763 17.9564 3.57504 17.9566C3.77251 17.9559 3.9681 17.995 4.15009 18.0716V13.7761H10.0357V36.2027H4.15009V20.8692C3.9681 20.9459 3.77251 20.985 3.57504 20.9842C3.37763 20.9845 3.18214 20.9454 3 20.8692V37.3701H11.1857V12.6432L3 12.626Z" fill="#6987B9" stroke="#6987B9" stroke-width="0.5"/>
<path d="M15.4814 4.43408V7.56807C15.5843 7.5449 15.6894 7.53333 15.7948 7.53357C16.0927 7.53268 16.3841 7.62078 16.6315 7.78658V5.58417H22.5171V36.2138H16.6315V10.3024C16.3841 10.4682 16.0927 10.5563 15.7948 10.5554C15.6894 10.5556 15.5843 10.5441 15.4814 10.5209V37.3639H23.6672V4.43408H15.4814Z" fill="#6987B9" stroke="#6987B9" stroke-width="0.5"/>
<path d="M2.1344 19.9087L1.59961 20.363L2.34717 21.2399L2.86758 20.7971C2.69269 20.7049 2.53784 20.5789 2.41199 20.4264C2.28614 20.2739 2.19179 20.0979 2.1344 19.9087Z" fill="#6987B9" stroke="#6987B9" stroke-width="0.5"/>
<path d="M14.3601 9.51221L13.4458 10.2914L10.7 12.6261L9.34863 13.7762L5.16519 17.3328L4.24512 18.1177C4.42282 18.2035 4.58154 18.3241 4.7119 18.4722C4.84227 18.6204 4.94165 18.7931 5.00417 18.9803L5.91849 18.204L10.0358 14.6991L11.1859 13.7215L14.1905 11.1626L15.1077 10.3834C14.9317 10.2947 14.7751 10.1721 14.6468 10.0226C14.5185 9.87304 14.421 9.69958 14.3601 9.51221Z" fill="#6987B9" stroke="#6987B9" stroke-width="0.5"/>
<path d="M27.7444 8.47119H17.1953C17.2693 8.65386 17.3074 8.84912 17.3074 9.04623C17.3082 9.2437 17.269 9.4393 17.1924 9.62128H27.7473C27.6706 9.4393 27.6315 9.2437 27.6323 9.04623C27.6323 8.84912 27.6703 8.65386 27.7444 8.47119Z" fill="#6987B9" stroke="#6987B9" stroke-width="0.5"/>
<path d="M39.1503 0.869141V2.01923H43.0836L34.9496 8.47121H30.5419C30.616 8.65388 30.6541 8.84914 30.6541 9.04625C30.6548 9.24372 30.6157 9.43931 30.5391 9.6213H35.3493L43.9577 2.79554V6.95885H45.1078V0.869141H39.1503Z" fill="#6987B9" stroke="#6987B9" stroke-width="0.5"/>
<path d="M28.5664 0.869141V7.00485H29.7165V2.01923H35.6021V12.0279V36.2113H29.7165V11.1308H28.5664V37.3614H36.7521V12.0279V0.869141H28.5664Z" fill="#6987B9" stroke="#6987B9" stroke-width="0.5"/>
<path d="M18.3935 8.47123C18.2942 8.02094 18.0795 7.60423 17.7705 7.26197C17.4615 6.9197 17.0688 6.66366 16.631 6.51895C16.3615 6.42823 16.0788 6.38258 15.7943 6.38382C15.6895 6.38327 15.5848 6.39 15.4809 6.40395C14.8344 6.4813 14.2387 6.79289 13.8063 7.27978C13.374 7.76668 13.1351 8.39513 13.1348 9.04627C13.1338 9.48054 13.2405 9.90828 13.4453 10.2912C13.6283 10.6292 13.8823 10.9235 14.19 11.1538C14.5658 11.44 15.0117 11.6198 15.4809 11.6742C15.5848 11.6882 15.6895 11.6949 15.7943 11.6943C16.0788 11.6956 16.3615 11.6499 16.631 11.5592C17.0685 11.4148 17.4609 11.1591 17.7699 10.8174C18.0789 10.4757 18.2938 10.0596 18.3935 9.60981C18.4779 9.23109 18.4779 8.83845 18.3935 8.45972V8.47123ZM16.631 10.3027C16.3836 10.4685 16.0922 10.5566 15.7943 10.5558C15.6889 10.556 15.5838 10.5444 15.4809 10.5213C15.3501 10.4958 15.224 10.4502 15.1072 10.3861C14.7535 10.209 14.4846 9.89878 14.3596 9.52356C14.3097 9.37336 14.2844 9.21605 14.2849 9.05777C14.2846 8.71164 14.4032 8.37592 14.621 8.10687C14.8388 7.83782 15.1424 7.65177 15.4809 7.57991C15.5838 7.55674 15.6889 7.54517 15.7943 7.54541C16.0922 7.54452 16.3836 7.63262 16.631 7.79843C16.8395 7.93562 17.0104 8.12262 17.1284 8.34251C17.2464 8.5624 17.3077 8.80823 17.3067 9.05777C17.3075 9.25524 17.2684 9.45083 17.1917 9.63281C17.0746 9.90632 16.8796 10.1393 16.631 10.3027Z" fill="#6987B9" stroke="#6987B9" stroke-width="0.5"/>
<path d="M31.7404 8.47119C31.6094 7.88152 31.2821 7.35382 30.8119 6.97457C30.3418 6.59532 29.7567 6.38701 29.1527 6.38379C28.9591 6.38366 28.7662 6.40585 28.5777 6.44992C28.0622 6.56212 27.5916 6.82494 27.2257 7.20503C26.8599 7.58512 26.6152 8.06533 26.5227 8.58474C26.4302 9.10414 26.4941 9.63931 26.7063 10.1223C26.9185 10.6053 27.2694 11.0144 27.7145 11.2977C28.1596 11.5809 28.6788 11.7255 29.2062 11.7132C29.7336 11.7008 30.2455 11.5321 30.6769 11.2283C31.1082 10.9245 31.4396 10.4995 31.6289 10.0071C31.8183 9.51465 31.8571 8.97707 31.7404 8.46257V8.47119ZM30.5386 9.62128C30.4247 9.89792 30.2313 10.1345 29.9827 10.301C29.7342 10.4675 29.4418 10.5563 29.1426 10.5563C28.8435 10.5563 28.5511 10.4675 28.3026 10.301C28.054 10.1345 27.8606 9.89792 27.7467 9.62128C27.6701 9.4393 27.6309 9.24371 27.6317 9.04624C27.6228 8.84227 27.6553 8.63862 27.7272 8.44755C27.7991 8.25648 27.909 8.08195 28.0502 7.93448C28.1914 7.787 28.3609 7.66964 28.5487 7.58946C28.7364 7.50928 28.9385 7.46795 29.1426 7.46795C29.3468 7.46795 29.5488 7.50928 29.7366 7.58946C29.9244 7.66964 30.0939 7.787 30.2351 7.93448C30.3763 8.08195 30.4861 8.25648 30.5581 8.44755C30.63 8.63862 30.6625 8.84227 30.6536 9.04624C30.6543 9.24371 30.6152 9.4393 30.5386 9.62128Z" fill="#6987B9" stroke="#6987B9" stroke-width="0.5"/>
<path d="M5.91827 18.2069C5.73211 17.8685 5.47516 17.5743 5.16496 17.3443C4.86386 17.1188 4.51767 16.9609 4.15001 16.8814C3.96137 16.8384 3.76844 16.8172 3.57497 16.8181C2.88436 16.8408 2.22964 17.1311 1.74914 17.6277C1.26863 18.1243 1 18.7882 1 19.4792C1 20.1701 1.26863 20.834 1.74914 21.3306C2.22964 21.8272 2.88436 22.1175 3.57497 22.1402C3.76844 22.1411 3.96138 22.1199 4.15001 22.0769C4.74018 21.9469 5.26847 21.6198 5.64789 21.1494C6.02731 20.6791 6.23524 20.0935 6.23742 19.4892C6.242 19.0416 6.13214 18.6002 5.91827 18.2069ZM4.15001 20.8693C3.96803 20.946 3.77244 20.9851 3.57497 20.9843C3.37755 20.9846 3.18207 20.9455 2.99993 20.8693C2.95399 20.8523 2.90972 20.8312 2.86767 20.8061C2.69278 20.7138 2.53793 20.5878 2.41208 20.4353C2.28623 20.2828 2.19188 20.1068 2.13449 19.9176C2.08806 19.7746 2.06476 19.6252 2.06548 19.4748C2.06591 19.1757 2.15487 18.8834 2.32116 18.6347C2.48745 18.386 2.72363 18.1922 2.99993 18.0775C3.18207 18.0013 3.37755 17.9622 3.57497 17.9625C3.77244 17.9617 3.96803 18.0008 4.15001 18.0775C4.18322 18.0893 4.21504 18.1047 4.24489 18.1235C4.4226 18.2093 4.58131 18.3298 4.71168 18.478C4.84205 18.6261 4.94143 18.7989 5.00395 18.9861C5.05952 19.142 5.08773 19.3064 5.08733 19.472C5.08782 19.7717 4.99889 20.0648 4.83192 20.3137C4.66495 20.5626 4.42752 20.7561 4.15001 20.8693Z" fill="#6987B9" stroke="#6987B9" stroke-width="0.5"/>
</svg>
