<svg width="44" height="42" viewBox="0 0 44 42" fill="none" xmlns="http://www.w3.org/2000/svg">
<path d="M1 1.05762V37.2609H18.3986L18.6869 36.3076H1.95335V10.3075H28.4993V24.6934L29.4526 25.2392V1.05762H1ZM1.95335 9.35411V2.01096H28.4993V9.35411H1.95335Z" fill="#6987B9" stroke="#6987B9" stroke-width="0.5"/>
<path d="M24.9671 18.2393H5.85962V19.1926H24.9671V18.2393Z" fill="#6987B9" stroke="#6987B9" stroke-width="0.5"/>
<path d="M24.9671 13.52H5.85962V14.4734H24.9671V13.52Z" fill="#6987B9" stroke="#6987B9" stroke-width="0.5"/>
<path d="M15.4121 22.8867H5.85962V23.8401H15.4121V22.8867Z" fill="#6987B9" stroke="#6987B9" stroke-width="0.5"/>
<path d="M12.2899 27.5369H5.79761V28.4902H12.2899V27.5369Z" fill="#6987B9" stroke="#6987B9" stroke-width="0.5"/>
<path d="M10.8623 32.1841H5.79761V33.1374H10.8623V32.1841Z" fill="#6987B9" stroke="#6987B9" stroke-width="0.5"/>
<path d="M26.0422 27.8967C25.1655 27.3958 24.1422 27.2146 23.1468 27.3837C22.1513 27.5528 21.2453 28.0619 20.5832 28.8242C19.921 29.5865 19.5437 30.5548 19.5155 31.5641C19.4873 32.5734 19.81 33.5613 20.4285 34.3593C21.0471 35.1574 21.9232 35.7163 22.9077 35.9407C23.8921 36.1652 24.9239 36.0413 25.8273 35.5902C26.7306 35.1391 27.4496 34.3888 27.8617 33.467C28.2738 32.5452 28.3535 31.509 28.0872 30.535C27.9365 29.9824 27.6783 29.465 27.3274 29.0122C26.9765 28.5595 26.5398 28.1804 26.0422 27.8967ZM26.8407 33.3784C26.5413 33.9003 26.1095 34.334 25.589 34.6357C25.0684 34.9374 24.4774 35.0965 23.8758 35.0968C23.2793 35.0952 22.6936 34.9374 22.1771 34.639C21.6607 34.3406 21.2314 33.912 20.9322 33.396C20.633 32.88 20.4742 32.2946 20.4717 31.6981C20.4692 31.1016 20.6231 30.5149 20.918 29.9964C21.3661 29.2119 22.1074 28.6374 22.9788 28.3992C23.8503 28.161 24.7807 28.2786 25.5656 28.7261C26.3502 29.1746 26.9247 29.9163 27.1629 30.7882C27.4011 31.66 27.2835 32.5908 26.8359 33.376L26.8407 33.3784Z" fill="#6987B9" stroke="#6987B9" stroke-width="0.5"/>
<path d="M30.2846 35.3542C30.4064 35.1408 30.517 34.9212 30.6159 34.6964L33.2567 34.0147L33.1208 28.8738L30.4467 28.3328C30.2974 28.039 30.1286 27.7555 29.9414 27.4843L30.7279 24.8769L29.4528 24.1619L28.4995 23.6161L26.2615 22.3386L24.4144 24.3406C24.0289 24.3097 23.6415 24.3097 23.2561 24.3406L21.3875 22.3577L16.9473 24.9532L17.7624 27.5558C17.6575 27.7131 17.5574 27.8728 17.4645 28.0325C17.3418 28.2445 17.2312 28.4633 17.1332 28.6879L14.4924 29.3695L14.6283 34.5105L17.3 35.0515C17.4503 35.3452 17.6199 35.6287 17.8077 35.9L17.6838 36.3099L17.3978 37.2632L17.0236 38.5074L21.4876 41.0576L23.3347 39.0555C23.7202 39.0865 24.1075 39.0865 24.493 39.0555L26.3616 41.0385L30.8089 38.4263L29.9867 35.8308C30.0939 35.6688 30.1917 35.5091 30.2846 35.3542ZM29.8294 34.1148C29.7223 34.3777 29.5981 34.6333 29.4576 34.8799C29.3427 35.082 29.217 35.2777 29.081 35.4662L28.9404 35.6592L29.4385 37.2561L29.6768 37.9878L26.5499 39.8182L24.8815 38.0426L24.6432 38.0688C24.168 38.1223 23.6883 38.1223 23.2132 38.0688L22.9748 38.045L21.3208 39.8373L18.1723 38.0402L18.4107 37.2466L18.6991 36.2932L18.8754 35.7045L18.7348 35.5115C18.4786 35.1678 18.2582 34.7989 18.077 34.4104L17.9745 34.1935L15.5912 33.7168L15.4934 30.0917L17.8577 29.4839L17.9483 29.2623C18.0554 28.9987 18.1796 28.7423 18.3201 28.4949C18.4376 28.2905 18.5657 28.0924 18.7038 27.9014L18.8421 27.7083L18.1128 25.3798L21.2421 23.5494L22.9105 25.325L23.1488 25.2964C23.624 25.2438 24.1036 25.2438 24.5788 25.2964L24.8172 25.3226L26.4712 23.5279L28.5233 24.6982L29.4766 25.2439L29.6196 25.325L29.4766 25.8017L28.9023 27.6583L29.0453 27.849C29.1986 28.0547 29.3379 28.2705 29.4623 28.4949C29.5481 28.6426 29.6268 28.7928 29.7007 28.9477L29.8032 29.1646L32.1865 29.6413L32.2842 33.264L29.92 33.8765L29.8294 34.1148Z" fill="#6987B9" stroke="#6987B9" stroke-width="0.5"/>
<path d="M41.372 23.7638C41.4458 23.6351 41.515 23.4993 41.5793 23.361L43.4574 22.8843L43.3573 19.071L41.4506 18.6849C41.3623 18.5209 41.2652 18.3618 41.1598 18.2082L41.7199 16.3515L38.4166 14.4663L37.101 15.8963C36.8724 15.8808 36.6431 15.8808 36.4146 15.8963L35.0989 14.4758L31.8147 16.3968L32.3938 18.2487C32.3342 18.3417 32.2747 18.437 32.2198 18.5347C32.165 18.6324 32.0768 18.7993 32.0125 18.9375L30.1344 19.4142L30.2345 23.2276L32.1412 23.6113C32.2293 23.7749 32.3255 23.934 32.4296 24.0879L31.8719 25.9422L35.1752 27.8298L36.4908 26.3998C36.7194 26.4153 36.9487 26.4153 37.1772 26.3998L38.5072 27.8131L41.7724 25.8993L41.1932 24.0498C41.2576 23.9545 41.3171 23.8615 41.372 23.7638ZM40.7928 22.7771C40.7253 22.954 40.6457 23.126 40.5545 23.2919C40.4771 23.4293 40.3919 23.5622 40.2995 23.6899L40.1588 23.883L40.6522 25.4608L38.674 26.6167L37.5395 25.4131L37.3012 25.4393C36.9844 25.4743 36.6646 25.4743 36.3478 25.4393L36.1095 25.4155L34.9893 26.6286L33.004 25.4941L33.4806 23.914L33.34 23.7209C33.1679 23.4892 33.0194 23.2409 32.8967 22.9797L32.7966 22.7628L31.1735 22.4363L31.114 20.1482L32.7156 19.7359L32.8038 19.5143C32.8723 19.3378 32.9519 19.1659 33.0421 18.9995C33.1206 18.8622 33.2065 18.7293 33.2995 18.6014L33.4401 18.406L32.9539 16.8378L34.9273 15.6818L36.0618 16.8735L36.3002 16.8449C36.617 16.8097 36.9367 16.8097 37.2535 16.8449L37.4918 16.8711L38.612 15.6556L40.5974 16.7901L40.1207 18.3726L40.2637 18.5633C40.4352 18.7941 40.583 19.0416 40.7046 19.3022L40.8071 19.519L42.4278 19.8479L42.4898 22.1336L40.8881 22.5483L40.7928 22.7771Z" fill="#6987B9" stroke="#6987B9" stroke-width="0.5"/>
<path d="M38.3663 18.3917C37.8204 18.082 37.195 17.9411 36.569 17.9867C35.943 18.0323 35.3446 18.2624 34.8494 18.648C34.3542 19.0336 33.9844 19.5573 33.7867 20.153C33.589 20.7487 33.5723 21.3896 33.7388 21.9948C33.9052 22.5999 34.2473 23.1422 34.7218 23.553C35.1963 23.9638 35.7819 24.2248 36.4047 24.3029C37.0274 24.381 37.6593 24.2727 38.2206 23.9918C38.7819 23.7109 39.2473 23.27 39.558 22.7247C39.9722 21.9915 40.0793 21.1243 39.856 20.3124C39.6327 19.5005 39.0971 18.81 38.3663 18.3917ZM38.7214 22.2456C38.5035 22.6283 38.1769 22.9378 37.783 23.1349C37.3891 23.3319 36.9456 23.4077 36.5086 23.3526C36.0716 23.2975 35.6608 23.114 35.3282 22.8254C34.9955 22.5367 34.7559 22.1559 34.6398 21.731C34.5236 21.3062 34.5361 20.8564 34.6757 20.4387C34.8153 20.0209 35.0756 19.654 35.4238 19.3843C35.772 19.1145 36.1923 18.9541 36.6317 18.9234C37.0711 18.8927 37.5097 18.993 37.892 19.2116C38.4025 19.5057 38.7761 19.9895 38.9315 20.5578C39.0868 21.1261 39.0113 21.7327 38.7214 22.2456Z" fill="#6987B9" stroke="#6987B9" stroke-width="0.5"/>
</svg>
