<svg width="27" height="27" viewBox="0 0 27 27" fill="none" xmlns="http://www.w3.org/2000/svg">
<path fill-rule="evenodd" clip-rule="evenodd" d="M13.5 27C20.9558 27 27 20.9558 27 13.5C27 6.04416 20.9558 0 13.5 0C6.04416 0 0 6.04416 0 13.5C0 20.9558 6.04416 27 13.5 27Z" fill="#333B59"/>
<path d="M13.5046 14.5789C15.2414 14.5789 16.6625 12.8737 16.6625 10.7895C16.6625 8.70526 15.2414 7 13.5046 7C11.7677 7 10.3467 8.70526 10.3467 10.7895C10.3467 12.8737 11.7677 14.5789 13.5046 14.5789ZM13.5046 7.94737C14.7362 7.94737 15.7151 9.21053 15.7151 10.7895C15.7151 12.3684 14.7362 13.6316 13.5046 13.6316C12.273 13.6316 11.294 12.3684 11.294 10.7895C11.294 9.21053 12.273 7.94737 13.5046 7.94737Z" fill="white"/>
<path d="M16.3789 14.2632C16.1263 14.2316 15.8737 14.4211 15.8737 14.6737C15.8421 14.9264 16.0316 15.179 16.2842 15.179C16.3789 15.179 18.7474 15.4632 19 18.0211H7.97895C8.23158 15.4632 10.5684 15.179 10.6947 15.179C10.9474 15.1474 11.1368 14.9264 11.1053 14.6737C11.0737 14.4211 10.8526 14.2316 10.6 14.2632C10.5684 14.2632 7 14.6737 7 18.5264C7 18.779 7.22105 19.0001 7.47368 19.0001H19.4737C19.7263 19.0001 19.9474 18.779 19.9474 18.5264C19.9789 14.6737 16.4421 14.2632 16.3789 14.2632Z" fill="white"/>
</svg>
