<svg width="21" height="18" viewBox="0 0 21 18" fill="none" xmlns="http://www.w3.org/2000/svg">
<path fill-rule="evenodd" clip-rule="evenodd" d="M12.3186 0.513184C7.57338 0.513184 3.72565 4.3588 3.72565 9.10142H0.861328L4.5754 12.8134L4.64223 12.947L8.49951 9.10142H5.63519C5.63519 5.40848 8.62363 2.42168 12.3186 2.42168C16.0136 2.42168 19.002 5.40848 19.002 9.10142C19.002 12.7944 16.0136 15.7812 12.3186 15.7812C10.4759 15.7812 8.80504 15.0273 7.60203 13.8154L6.24625 15.1704C7.80253 16.7259 9.94122 17.6897 12.3186 17.6897C17.0638 17.6897 20.9116 13.844 20.9116 9.10142C20.9116 4.3588 17.0638 0.513184 12.3186 0.513184ZM11.3634 5.28439V10.0556L15.4498 12.4794L16.1372 11.3248L12.7955 9.33994V5.28439H11.3634Z" fill="white"/>
</svg>
