<svg width="46" height="42" viewBox="0 0 46 42" fill="none" xmlns="http://www.w3.org/2000/svg">
    <path d="M36.804 39.85H2.85059V41.0001H36.804V39.85Z" fill="url(#paint0_linear)" stroke="url(#paint1_linear)"/>
    <path d="M3 12.7568V18.2025C3.18214 18.1264 3.37763 18.0873 3.57504 18.0875C3.77251 18.0867 3.9681 18.1258 4.15009 18.2025V13.9069H10.0357V36.3336H4.15009V21.0001C3.9681 21.0767 3.77251 21.1159 3.57504 21.1151C3.37763 21.1153 3.18214 21.0762 3 21.0001V37.5009H11.1857V12.7741L3 12.7568Z"
          fill="url(#paint2_linear)" stroke="url(#paint3_linear)"/>
    <path d="M15.4814 4.56506V7.69905C15.5843 7.67588 15.6894 7.66431 15.7948 7.66455C16.0927 7.66366 16.3841 7.75176 16.6315 7.91757V5.71515H22.5171V36.3448H16.6315V10.4334C16.3841 10.5992 16.0927 10.6873 15.7948 10.6864C15.6894 10.6866 15.5843 10.675 15.4814 10.6519V37.4949H23.6672V4.56506H15.4814Z"
          fill="url(#paint4_linear)" stroke="url(#paint5_linear)"/>
    <path d="M2.1344 20.0398L1.59961 20.4941L2.34717 21.371L2.86758 20.9282C2.69269 20.836 2.53785 20.71 2.41199 20.5575C2.28614 20.405 2.19179 20.229 2.1344 20.0398Z"
          fill="url(#paint6_linear)" stroke="url(#paint7_linear)"/>
    <path d="M14.3601 9.64294L13.4458 10.4221L10.7 12.7568L9.34863 13.9069L5.16519 17.4635L4.24512 18.2485C4.42282 18.3343 4.58154 18.4548 4.7119 18.603C4.84227 18.7511 4.94165 18.9239 5.00417 19.111L5.91849 18.3347L10.0358 14.8298L11.1859 13.8523L14.1905 11.2933L15.1077 10.5141C14.9317 10.4255 14.7751 10.3028 14.6468 10.1533C14.5185 10.0038 14.421 9.83032 14.3601 9.64294Z"
          fill="url(#paint8_linear)" stroke="url(#paint9_linear)"/>
    <path d="M27.7444 8.60217H17.1953C17.2693 8.78484 17.3074 8.9801 17.3074 9.17722C17.3082 9.37469 17.269 9.57028 17.1924 9.75226H27.7473C27.6706 9.57028 27.6315 9.37469 27.6323 9.17722C27.6323 8.9801 27.6703 8.78484 27.7444 8.60217Z"
          fill="url(#paint10_linear)" stroke="url(#paint11_linear)"/>
    <path d="M39.1503 1V2.15009H43.0836L34.9496 8.60207H30.5419C30.616 8.78473 30.6541 8.98 30.6541 9.17711C30.6548 9.37458 30.6157 9.57017 30.5391 9.75216H35.3493L43.9577 2.92639V7.08971H45.1078V1H39.1503Z"
          fill="url(#paint12_linear)" stroke="url(#paint13_linear)"/>
    <path d="M28.5664 1V7.13571H29.7165V2.15009H35.6021V12.1587V36.3422H29.7165V11.2616H28.5664V37.4922H36.7521V12.1587V1H28.5664Z"
          fill="url(#paint14_linear)" stroke="url(#paint15_linear)"/>
    <path d="M18.3935 8.60208C18.2942 8.1518 18.0795 7.73509 17.7705 7.39283C17.4615 7.05056 17.0688 6.79452 16.631 6.64981C16.3615 6.55909 16.0788 6.51344 15.7943 6.51468C15.6895 6.51413 15.5848 6.52086 15.4809 6.53481C14.8344 6.61215 14.2387 6.92374 13.8063 7.41064C13.374 7.89754 13.1351 8.52599 13.1348 9.17713C13.1338 9.6114 13.2405 10.0391 13.4453 10.4221C13.6283 10.76 13.8823 11.0543 14.19 11.2847C14.5658 11.5709 15.0117 11.7507 15.4809 11.8051C15.5848 11.819 15.6895 11.8257 15.7943 11.8252C16.0788 11.8264 16.3615 11.7808 16.631 11.6901C17.0685 11.5456 17.4609 11.29 17.7699 10.9483C18.0788 10.6066 18.2938 10.1904 18.3935 9.74067C18.4779 9.36195 18.4779 8.96931 18.3935 8.59058V8.60208ZM16.631 10.4336C16.3836 10.5994 16.0922 10.6875 15.7943 10.6866C15.6889 10.6868 15.5838 10.6753 15.4809 10.6521C15.3501 10.6266 15.224 10.581 15.1072 10.517C14.7535 10.3399 14.4846 10.0296 14.3596 9.65441C14.3097 9.50422 14.2844 9.34691 14.2849 9.18863C14.2846 8.8425 14.4032 8.50678 14.621 8.23773C14.8387 7.96868 15.1424 7.78263 15.4809 7.71077C15.5838 7.6876 15.6889 7.67603 15.7943 7.67627C16.0922 7.67538 16.3836 7.76348 16.631 7.92929C16.8395 8.06648 17.0104 8.25348 17.1284 8.47337C17.2464 8.69326 17.3076 8.93909 17.3067 9.18863C17.3075 9.3861 17.2684 9.58169 17.1917 9.76367C17.0746 10.0372 16.8796 10.2702 16.631 10.4336Z"
          fill="url(#paint16_linear)" stroke="url(#paint17_linear)"/>
    <path d="M31.7404 8.60205C31.6094 8.01238 31.2821 7.48468 30.8119 7.10543C30.3418 6.72618 29.7567 6.51787 29.1527 6.51465C28.9591 6.51452 28.7662 6.53671 28.5777 6.58078C28.0622 6.69298 27.5916 6.9558 27.2257 7.33589C26.8599 7.71598 26.6152 8.19619 26.5227 8.7156C26.4302 9.235 26.4941 9.77017 26.7063 10.2532C26.9185 10.7362 27.2694 11.1453 27.7145 11.4285C28.1596 11.7118 28.6788 11.8564 29.2062 11.844C29.7336 11.8317 30.2455 11.6629 30.6769 11.3592C31.1082 11.0554 31.4396 10.6303 31.6289 10.1379C31.8183 9.64551 31.8571 9.10793 31.7404 8.59343V8.60205ZM30.5386 9.75214C30.4247 10.0288 30.2313 10.2654 29.9827 10.4318C29.7342 10.5983 29.4418 10.6872 29.1426 10.6872C28.8435 10.6872 28.5511 10.5983 28.3026 10.4318C28.054 10.2654 27.8606 10.0288 27.7467 9.75214C27.6701 9.57016 27.6309 9.37457 27.6317 9.1771C27.6228 8.97313 27.6553 8.76948 27.7272 8.57841C27.7991 8.38734 27.909 8.21281 28.0502 8.06534C28.1914 7.91786 28.3609 7.8005 28.5487 7.72032C28.7364 7.64014 28.9385 7.59881 29.1426 7.59881C29.3468 7.59881 29.5488 7.64014 29.7366 7.72032C29.9244 7.8005 30.0939 7.91786 30.2351 8.06534C30.3763 8.21281 30.4861 8.38734 30.5581 8.57841C30.63 8.76948 30.6625 8.97313 30.6536 9.1771C30.6543 9.37457 30.6152 9.57016 30.5386 9.75214Z"
          fill="url(#paint18_linear)" stroke="url(#paint19_linear)"/>
    <path d="M5.91827 18.3377C5.73211 17.9994 5.47516 17.7052 5.16496 17.4752C4.86386 17.2497 4.51767 17.0918 4.15001 17.0123C3.96137 16.9693 3.76844 16.9481 3.57497 16.949C2.88436 16.9717 2.22964 17.262 1.74913 17.7586C1.26863 18.2551 1 18.919 1 19.61C1 20.301 1.26863 20.9649 1.74913 21.4615C2.22964 21.958 2.88436 22.2483 3.57497 22.271C3.76844 22.272 3.96138 22.2507 4.15001 22.2078C4.74018 22.0778 5.26847 21.7506 5.64789 21.2803C6.02731 20.8099 6.23524 20.2244 6.23742 19.6201C6.242 19.1724 6.13214 18.731 5.91827 18.3377ZM4.15001 21.0002C3.96803 21.0768 3.77244 21.116 3.57497 21.1152C3.37755 21.1154 3.18207 21.0763 2.99993 21.0002C2.95399 20.9832 2.90972 20.962 2.86766 20.9369C2.69278 20.8447 2.53793 20.7187 2.41208 20.5662C2.28623 20.4136 2.19188 20.2377 2.13449 20.0485C2.08806 19.9055 2.06476 19.756 2.06548 19.6057C2.06591 19.3066 2.15487 19.0142 2.32116 18.7656C2.48745 18.5169 2.72363 18.323 2.99993 18.2083C3.18207 18.1322 3.37755 18.0931 3.57497 18.0933C3.77244 18.0926 3.96803 18.1317 4.15001 18.2083C4.18322 18.2202 4.21504 18.2356 4.24489 18.2543C4.4226 18.3402 4.58131 18.4607 4.71168 18.6088C4.84205 18.757 4.94143 18.9297 5.00395 19.1169C5.05952 19.2729 5.08773 19.4373 5.08733 19.6028C5.08782 19.9026 4.99889 20.1956 4.83192 20.4445C4.66495 20.6935 4.42752 20.8869 4.15001 21.0002Z"
          fill="url(#paint20_linear)" stroke="url(#paint21_linear)"/>
    <defs>
        <linearGradient id="paint0_linear" x1="-14.1261" y1="40.425" x2="-14.0483" y2="42.7226"
                        gradientUnits="userSpaceOnUse">
            <stop stop-color="#40DDFF"/>
            <stop offset="0.192353" stop-color="#14BAE3"/>
            <stop offset="0.686424" stop-color="#13B1E6"/>
            <stop offset="0.817657" stop-color="#11AADF"/>
            <stop offset="1" stop-color="#0B98C5"/>
        </linearGradient>
        <linearGradient id="paint1_linear" x1="-14.1261" y1="40.425" x2="-14.0483" y2="42.7226"
                        gradientUnits="userSpaceOnUse">
            <stop stop-color="#40DDFF"/>
            <stop offset="0.192353" stop-color="#14BAE3"/>
            <stop offset="0.686424" stop-color="#13B1E6"/>
            <stop offset="0.817657" stop-color="#11AADF"/>
            <stop offset="1" stop-color="#0B98C5"/>
        </linearGradient>
        <linearGradient id="paint2_linear" x1="-1.09287" y1="25.1289" x2="13.6637" y2="30.0106"
                        gradientUnits="userSpaceOnUse">
            <stop stop-color="#40DDFF"/>
            <stop offset="0.192353" stop-color="#14BAE3"/>
            <stop offset="0.686424" stop-color="#13B1E6"/>
            <stop offset="0.817657" stop-color="#11AADF"/>
            <stop offset="1" stop-color="#0B98C5"/>
        </linearGradient>
        <linearGradient id="paint3_linear" x1="-1.09287" y1="25.1289" x2="13.6637" y2="30.0106"
                        gradientUnits="userSpaceOnUse">
            <stop stop-color="#40DDFF"/>
            <stop offset="0.192353" stop-color="#14BAE3"/>
            <stop offset="0.686424" stop-color="#13B1E6"/>
            <stop offset="0.817657" stop-color="#11AADF"/>
            <stop offset="1" stop-color="#0B98C5"/>
        </linearGradient>
        <linearGradient id="paint4_linear" x1="11.3886" y1="21.03" x2="26.8073" y2="24.8628"
                        gradientUnits="userSpaceOnUse">
            <stop stop-color="#40DDFF"/>
            <stop offset="0.192353" stop-color="#14BAE3"/>
            <stop offset="0.686424" stop-color="#13B1E6"/>
            <stop offset="0.817657" stop-color="#11AADF"/>
            <stop offset="1" stop-color="#0B98C5"/>
        </linearGradient>
        <linearGradient id="paint5_linear" x1="11.3886" y1="21.03" x2="26.8073" y2="24.8628"
                        gradientUnits="userSpaceOnUse">
            <stop stop-color="#40DDFF"/>
            <stop offset="0.192353" stop-color="#14BAE3"/>
            <stop offset="0.686424" stop-color="#13B1E6"/>
            <stop offset="0.817657" stop-color="#11AADF"/>
            <stop offset="1" stop-color="#0B98C5"/>
        </linearGradient>
        <linearGradient id="paint6_linear" x1="0.965624" y1="20.7054" x2="2.29527" y2="21.9719"
                        gradientUnits="userSpaceOnUse">
            <stop stop-color="#40DDFF"/>
            <stop offset="0.192353" stop-color="#14BAE3"/>
            <stop offset="0.686424" stop-color="#13B1E6"/>
            <stop offset="0.817657" stop-color="#11AADF"/>
            <stop offset="1" stop-color="#0B98C5"/>
        </linearGradient>
        <linearGradient id="paint7_linear" x1="0.965624" y1="20.7054" x2="2.29527" y2="21.9719"
                        gradientUnits="userSpaceOnUse">
            <stop stop-color="#40DDFF"/>
            <stop offset="0.192353" stop-color="#14BAE3"/>
            <stop offset="0.686424" stop-color="#13B1E6"/>
            <stop offset="0.817657" stop-color="#11AADF"/>
            <stop offset="1" stop-color="#0B98C5"/>
        </linearGradient>
        <linearGradient id="paint8_linear" x1="-1.18616" y1="14.377" x2="8.19325" y2="25.1378"
                        gradientUnits="userSpaceOnUse">
            <stop stop-color="#40DDFF"/>
            <stop offset="0.192353" stop-color="#14BAE3"/>
            <stop offset="0.686424" stop-color="#13B1E6"/>
            <stop offset="0.817657" stop-color="#11AADF"/>
            <stop offset="1" stop-color="#0B98C5"/>
        </linearGradient>
        <linearGradient id="paint9_linear" x1="-1.18616" y1="14.377" x2="8.19325" y2="25.1378"
                        gradientUnits="userSpaceOnUse">
            <stop stop-color="#40DDFF"/>
            <stop offset="0.192353" stop-color="#14BAE3"/>
            <stop offset="0.686424" stop-color="#13B1E6"/>
            <stop offset="0.817657" stop-color="#11AADF"/>
            <stop offset="1" stop-color="#0B98C5"/>
        </linearGradient>
        <linearGradient id="paint10_linear" x1="11.9149" y1="9.17722" x2="12.1626" y2="11.4504"
                        gradientUnits="userSpaceOnUse">
            <stop stop-color="#40DDFF"/>
            <stop offset="0.192353" stop-color="#14BAE3"/>
            <stop offset="0.686424" stop-color="#13B1E6"/>
            <stop offset="0.817657" stop-color="#11AADF"/>
            <stop offset="1" stop-color="#0B98C5"/>
        </linearGradient>
        <linearGradient id="paint11_linear" x1="11.9149" y1="9.17722" x2="12.1626" y2="11.4504"
                        gradientUnits="userSpaceOnUse">
            <stop stop-color="#40DDFF"/>
            <stop offset="0.192353" stop-color="#14BAE3"/>
            <stop offset="0.686424" stop-color="#13B1E6"/>
            <stop offset="0.817657" stop-color="#11AADF"/>
            <stop offset="1" stop-color="#0B98C5"/>
        </linearGradient>
        <linearGradient id="paint12_linear" x1="23.2547" y1="5.37608" x2="30.9817" y2="18.2384"
                        gradientUnits="userSpaceOnUse">
            <stop stop-color="#40DDFF"/>
            <stop offset="0.192353" stop-color="#14BAE3"/>
            <stop offset="0.686424" stop-color="#13B1E6"/>
            <stop offset="0.817657" stop-color="#11AADF"/>
            <stop offset="1" stop-color="#0B98C5"/>
        </linearGradient>
        <linearGradient id="paint13_linear" x1="23.2547" y1="5.37608" x2="30.9817" y2="18.2384"
                        gradientUnits="userSpaceOnUse">
            <stop stop-color="#40DDFF"/>
            <stop offset="0.192353" stop-color="#14BAE3"/>
            <stop offset="0.686424" stop-color="#13B1E6"/>
            <stop offset="0.817657" stop-color="#11AADF"/>
            <stop offset="1" stop-color="#0B98C5"/>
        </linearGradient>
        <linearGradient id="paint14_linear" x1="24.4735" y1="19.2461" x2="40.0607" y2="22.7425"
                        gradientUnits="userSpaceOnUse">
            <stop stop-color="#40DDFF"/>
            <stop offset="0.192353" stop-color="#14BAE3"/>
            <stop offset="0.686424" stop-color="#13B1E6"/>
            <stop offset="0.817657" stop-color="#11AADF"/>
            <stop offset="1" stop-color="#0B98C5"/>
        </linearGradient>
        <linearGradient id="paint15_linear" x1="24.4735" y1="19.2461" x2="40.0607" y2="22.7425"
                        gradientUnits="userSpaceOnUse">
            <stop stop-color="#40DDFF"/>
            <stop offset="0.192353" stop-color="#14BAE3"/>
            <stop offset="0.686424" stop-color="#13B1E6"/>
            <stop offset="0.817657" stop-color="#11AADF"/>
            <stop offset="1" stop-color="#0B98C5"/>
        </linearGradient>
        <linearGradient id="paint16_linear" x1="10.4738" y1="9.16994" x2="15.7843" y2="14.492"
                        gradientUnits="userSpaceOnUse">
            <stop stop-color="#40DDFF"/>
            <stop offset="0.192353" stop-color="#14BAE3"/>
            <stop offset="0.686424" stop-color="#13B1E6"/>
            <stop offset="0.817657" stop-color="#11AADF"/>
            <stop offset="1" stop-color="#0B98C5"/>
        </linearGradient>
        <linearGradient id="paint17_linear" x1="10.4738" y1="9.16994" x2="15.7843" y2="14.492"
                        gradientUnits="userSpaceOnUse">
            <stop stop-color="#40DDFF"/>
            <stop offset="0.192353" stop-color="#14BAE3"/>
            <stop offset="0.686424" stop-color="#13B1E6"/>
            <stop offset="0.817657" stop-color="#11AADF"/>
            <stop offset="1" stop-color="#0B98C5"/>
        </linearGradient>
        <linearGradient id="paint18_linear" x1="23.819" y1="9.17971" x2="29.1491" y2="14.5046"
                        gradientUnits="userSpaceOnUse">
            <stop stop-color="#40DDFF"/>
            <stop offset="0.192353" stop-color="#14BAE3"/>
            <stop offset="0.686424" stop-color="#13B1E6"/>
            <stop offset="0.817657" stop-color="#11AADF"/>
            <stop offset="1" stop-color="#0B98C5"/>
        </linearGradient>
        <linearGradient id="paint19_linear" x1="23.819" y1="9.17971" x2="29.1491" y2="14.5046"
                        gradientUnits="userSpaceOnUse">
            <stop stop-color="#40DDFF"/>
            <stop offset="0.192353" stop-color="#14BAE3"/>
            <stop offset="0.686424" stop-color="#13B1E6"/>
            <stop offset="0.817657" stop-color="#11AADF"/>
            <stop offset="1" stop-color="#0B98C5"/>
        </linearGradient>
        <linearGradient id="paint20_linear" x1="-1.61878" y1="19.61" x2="3.70262" y2="24.8469"
                        gradientUnits="userSpaceOnUse">
            <stop stop-color="#40DDFF"/>
            <stop offset="0.192353" stop-color="#14BAE3"/>
            <stop offset="0.686424" stop-color="#13B1E6"/>
            <stop offset="0.817657" stop-color="#11AADF"/>
            <stop offset="1" stop-color="#0B98C5"/>
        </linearGradient>
        <linearGradient id="paint21_linear" x1="-1.61878" y1="19.61" x2="3.70262" y2="24.8469"
                        gradientUnits="userSpaceOnUse">
            <stop stop-color="#40DDFF"/>
            <stop offset="0.192353" stop-color="#14BAE3"/>
            <stop offset="0.686424" stop-color="#13B1E6"/>
            <stop offset="0.817657" stop-color="#11AADF"/>
            <stop offset="1" stop-color="#0B98C5"/>
        </linearGradient>
    </defs>
</svg>
