<svg width="27" height="27" viewBox="0 0 27 27" fill="none" xmlns="http://www.w3.org/2000/svg">
<path fill-rule="evenodd" clip-rule="evenodd" d="M13.5 27C20.9558 27 27 20.9558 27 13.5C27 6.04416 20.9558 0 13.5 0C6.04416 0 0 6.04416 0 13.5C0 20.9558 6.04416 27 13.5 27Z" fill="#F1F5F8"/>
<path d="M7.46153 10.1538H8.29228C8.50766 10.8615 9.1538 11.3845 9.92301 11.3845C10.6922 11.3845 11.3384 10.8615 11.5537 10.1538H19.4613C19.7074 10.1538 19.9228 9.93842 19.9228 9.69227C19.9228 9.44612 19.7074 9.23074 19.4613 9.23074H11.5537C11.3384 8.52306 10.6922 8 9.92301 8C9.1538 8 8.50766 8.52306 8.29228 9.23074H7.46153C7.21538 9.23074 7 9.44612 7 9.69227C7 9.93842 7.21538 10.1538 7.46153 10.1538ZM9.92301 8.92306C10.3538 8.92306 10.6922 9.26151 10.6922 9.69227C10.6922 10.123 10.3538 10.4615 9.92301 10.4615C9.49225 10.4615 9.1538 10.123 9.1538 9.69227C9.1538 9.26151 9.49225 8.92306 9.92301 8.92306Z" fill="#344257"/>
<path d="M19.4613 13.5386H15.0306C14.7844 12.9232 14.1691 12.4617 13.4614 12.4617C12.7537 12.4617 12.1384 12.9232 11.8922 13.5386H7.46153C7.21538 13.5386 7 13.7539 7 14.0001C7 14.2462 7.21538 14.4616 7.46153 14.4616H11.7999C11.9537 15.2616 12.6306 15.8462 13.4614 15.8462C14.2921 15.8462 14.9691 15.2616 15.1229 14.4616H19.4613C19.7074 14.4616 19.9228 14.2462 19.9228 14.0001C19.9228 13.7539 19.7074 13.5386 19.4613 13.5386ZM13.4614 14.9232C13.0306 14.9232 12.6922 14.5847 12.6922 14.1539C12.6922 13.7232 13.0306 13.3847 13.4614 13.3847C13.8921 13.3847 14.2306 13.7232 14.2306 14.1539C14.2306 14.5847 13.8921 14.9232 13.4614 14.9232Z" fill="#344257"/>
<path d="M19.4613 17.8462H18.6305C18.4151 17.1385 17.769 16.6155 16.9998 16.6155C16.2306 16.6155 15.5844 17.1385 15.369 17.8462H7.46153C7.21538 17.8462 7 18.0616 7 18.3077C7 18.5539 7.21538 18.7693 7.46153 18.7693H15.369C15.5844 19.477 16.2306 20 16.9998 20C17.769 20 18.4151 19.477 18.6305 18.7693H19.4613C19.7074 18.7693 19.9228 18.5539 19.9228 18.3077C19.9228 18.0616 19.7074 17.8462 19.4613 17.8462ZM16.9998 19.077C16.569 19.077 16.2306 18.7385 16.2306 18.3077C16.2306 17.877 16.569 17.5385 16.9998 17.5385C17.4305 17.5385 17.769 17.877 17.769 18.3077C17.769 18.7385 17.4305 19.077 16.9998 19.077Z" fill="#344257"/>
</svg>
