<svg width="13" height="16" viewBox="0 0 13 16" fill="none" xmlns="http://www.w3.org/2000/svg">
<path d="M12.0689 2.32686H10.4597H9.30113C8.85055 0.930744 7.65975 0 6.27584 0C4.89194 0 3.70113 0.930744 3.25056 2.32686H1.77011H0.482757C0.225287 2.32686 0 2.57745 0 2.86383C0 3.15021 0.225287 3.4008 0.482757 3.4008H0.804595V14.4981C0.804595 15.1067 1.22298 15.5721 1.77011 15.5721H10.4597C11.0069 15.5721 11.4253 15.1067 11.4253 14.4981V3.4008H12.0689C12.3264 3.4008 12.5517 3.15021 12.5517 2.86383C12.5517 2.57745 12.3264 2.32686 12.0689 2.32686ZM6.27584 1.07394C7.1448 1.07394 7.91721 1.43191 8.30342 2.32686H4.28044C4.63446 1.43191 5.40688 1.07394 6.27584 1.07394ZM10.4597 14.4981H9.17238V8.4125C9.17238 8.12611 8.9471 7.87553 8.68963 7.87553C8.43216 7.87553 8.20687 8.12611 8.20687 8.4125V14.4981H6.59768V6.26462C6.59768 5.97824 6.37239 5.72766 6.11492 5.72766C5.85745 5.72766 5.63217 5.97824 5.63217 6.26462V14.4981H4.02298V8.4125C4.02298 8.12611 3.79769 7.87553 3.54022 7.87553C3.28275 7.87553 3.05746 8.12611 3.05746 8.4125V14.4981H1.77011V3.4008H10.4597V14.4981Z" fill="white"/>
</svg>
