<svg width="12" height="13" viewBox="0 0 12 13" fill="none" xmlns="http://www.w3.org/2000/svg">
<path d="M9.75 12.1136H0.886364V0.886364H5.90909V0H0.886364C0.384091 0 0 0.384091 0 0.886364V12.1136C0 12.6159 0.384091 13 0.886364 13H9.75C10.2523 13 10.6364 12.6159 10.6364 12.1136V6.5H9.75V12.1136Z" fill="white"/>
<path d="M11.2574 1.09309L10.637 0.472624C10.4597 0.295352 10.2234 0.206726 10.0165 0.206726C9.78018 0.206726 9.57335 0.295352 9.39607 0.472624C9.39607 0.472624 4.46199 5.37717 4.4029 5.70217L4.16653 6.58854C4.07789 6.88399 4.16654 7.20899 4.4029 7.41581C4.58018 7.59308 4.78699 7.68172 5.02335 7.68172C5.08244 7.68172 5.17108 7.68173 5.23017 7.65218L6.11654 7.41581C6.41199 7.32717 11.2574 2.334 11.2574 2.334C11.4347 2.15673 11.5234 1.9499 11.5234 1.71354C11.5234 1.47717 11.4347 1.27036 11.2574 1.09309ZM6.47109 5.87946L5.85062 5.25899C5.85062 5.25899 5.82108 5.259 5.82108 5.22945L9.98698 1.06353L10.6074 1.684L6.47109 5.87946Z" fill="white"/>
</svg>
