<svg width="48" height="45" viewBox="0 0 48 45" fill="none" xmlns="http://www.w3.org/2000/svg">
<path fill-rule="evenodd" clip-rule="evenodd" d="M0.910546 22.2897C0.836743 34.6335 11.243 44.5791 24.2323 44.6496C37.074 44.7202 47.554 34.7746 47.7016 22.4308C47.7754 10.087 37.3692 0.0709088 24.3799 0.000372879C11.4644 -0.0701631 0.910546 9.87541 0.910546 22.2897ZM24.2317 2.11666C35.9663 2.11666 45.4131 11.1453 45.4131 22.3605C45.4131 33.5051 35.9663 42.5337 24.3055 42.5337C12.5708 42.5337 3.12401 33.5051 3.12401 22.2899C3.12401 11.1453 12.5708 2.11666 24.2317 2.11666Z" fill="#6987B9"/>
<path fill-rule="evenodd" clip-rule="evenodd" d="M24.1582 39.5008C34.0478 39.5713 42.0924 31.8829 42.24 22.3605C42.24 12.9087 34.2692 5.22032 24.3058 5.14978C14.49 5.07925 6.44552 12.6266 6.29792 22.1489C6.15031 31.6008 14.121 39.3597 24.1582 39.5008ZM23.1245 28.2848V28.4964C25.1186 28.5317 27.0942 28.567 29.0699 28.6023C31.0427 28.6376 33.0155 28.6728 35.0067 28.708C34.9414 28.9578 34.8905 29.1937 34.8413 29.4219C34.7794 29.7094 34.72 29.9846 34.6377 30.2598C34.4163 30.8947 34.1949 31.6 34.0473 32.3054C33.9735 32.658 33.8259 32.7286 33.4569 32.7286H18.6963H14.4157L14.4158 32.7284C15.08 30.3302 15.7442 27.9321 16.4084 25.4634C15.3751 25.8161 14.4895 26.1687 13.4563 26.592C13.7143 25.8521 13.9363 25.1467 14.1474 24.4759C14.2381 24.1873 14.3269 23.9052 14.4157 23.6294C14.4157 23.5765 14.5402 23.5236 14.6648 23.4707C14.7063 23.4531 14.7478 23.4355 14.7847 23.4178C15.1168 23.2768 15.4674 23.1533 15.818 23.0299C16.1685 22.9065 16.5191 22.783 16.8512 22.6419C16.9988 22.5714 17.2202 22.3598 17.294 22.1482L20.3937 11.1446C20.5414 10.7214 20.689 10.5803 21.1318 10.5803H27.3312H27.8478C27.3007 12.577 26.787 14.5096 26.2617 16.4861C26.0076 17.4422 25.7508 18.4085 25.4862 19.3973C26.667 18.9741 27.774 18.5509 29.0287 18.0571C28.9701 18.281 28.9 18.4937 28.832 18.6998C28.7286 19.0132 28.6304 19.311 28.5859 19.6089C28.4383 20.7375 27.774 21.3723 26.5932 21.6544C26.0766 21.7955 25.56 22.0071 25.0433 22.2187C24.8219 22.2893 24.6743 22.5009 24.6005 22.6419C24.3422 23.5942 24.1023 24.5288 23.8625 25.4634C23.6226 26.398 23.3828 27.3326 23.1245 28.2848Z" fill="#6987B9"/>
</svg>
