<svg width="74" height="73" viewBox="0 0 74 73" fill="none" xmlns="http://www.w3.org/2000/svg">
<path d="M0.648172 36.2848L0.57666 35.6889L15.5226 10.3499L15.7848 10.1354L36.4993 3.15109H36.8092L57.7144 10.1354L57.9767 10.3499L72.9941 35.6889L72.8987 36.2848L37.1429 71.3255H36.4755L0.648172 36.2848Z" fill="#095270"/>
<path d="M36.6662 3.60403L57.5714 10.5883L72.5888 35.9511L36.8092 70.9918L0.981852 35.9511L15.9516 10.5883L36.6662 3.60403ZM36.9522 2.69821H36.3563L15.6417 9.68251L15.1173 10.1116L0.171387 35.4505L0.31441 36.6186L36.1417 71.6593H37.4766L73.2563 36.6186L73.3993 35.4505L58.3819 10.0877L57.8574 9.65868L36.9522 2.69821Z" fill="white"/>
<path d="M23.8179 19.0506L29.9679 22.1971L27.2266 24.0325L23.8179 19.0506Z" fill="white"/>
<path d="M49.7526 19.0506L43.6025 22.1971L46.3438 24.0325L49.7526 19.0506Z" fill="white"/>
<path d="M11.4226 4.0093L15.6418 1.36337L23.079 2.79361L24.7715 6.22616L9.39648 11.7802L11.4226 4.0093Z" fill="#3D8AAB"/>
<path d="M15.7371 1.86393L22.7691 3.22265L24.1278 5.96392L10.0877 11.0174L11.8278 4.31916L15.7371 1.86393ZM15.5464 0.862762L15.2366 1.05346L11.3273 3.50869L11.0174 3.69939L10.922 4.05695L9.18191 10.779L8.729 12.5192L10.4214 11.8994L24.4377 6.8459L25.4389 6.48834L24.9621 5.53486L23.6034 2.79358L23.3889 2.36451L22.9121 2.26916L15.8802 0.910437L15.5464 0.862762Z" fill="white"/>
<path d="M48.7754 6.22616L50.4678 2.79361L57.9289 1.36337L62.1481 4.0093L64.1504 11.7802L48.7754 6.22616Z" fill="#3D8AAB"/>
<path d="M57.8335 1.86393L61.7428 4.31916L63.4591 11.0174L49.4428 5.96392L50.8015 3.22265L57.8335 1.86393ZM58.0242 0.862762L57.6428 0.934274L50.6108 2.29299L50.1341 2.38834L49.9195 2.81741L48.5847 5.53486L48.1079 6.48834L49.1091 6.8459L63.1254 11.8994L64.8178 12.5192L64.3649 10.779L62.6248 4.08079L62.5294 3.72323L62.2195 3.53253L58.3102 1.0773L58.0242 0.862762Z" fill="white"/>
<path d="M36.7139 3.55637L15.9517 10.5407L31.9941 21.5534H41.6243L57.5952 10.5407L36.7139 3.55637Z" fill="#3D8AAB"/>
<path d="M42.4587 23.0314H31.0883L26.8691 30.3256L36.7854 37.6198L46.7017 30.3256L42.4587 23.0314ZM31.9703 21.5535L36.7854 13.2343L41.6005 21.5535H31.9703ZM45.2953 38.1203L49.4191 45.1285L46.0581 45.3192L45.2953 38.1203ZM62.3151 44.9139L50.3726 45.6291L52.7325 49.6337L62.3151 44.9139ZM41.1238 52.2081L46.2488 52.6849L45.5337 45.9151L41.8627 46.1296L41.1238 52.2081ZM49.729 45.6767L46.1058 45.8913L46.797 52.5657L52.2081 49.8959L49.729 45.6767ZM50.0389 45.0808L62.6965 44.318L45.5337 37.4052L50.0389 45.0808ZM46.3441 53.7337L38.4779 63.4593L47.0593 60.5511L46.3441 53.7337ZM38.311 62.7442L46.0104 53.2331L40.9331 52.7564L38.311 62.7442ZM47.3215 30.707L48.0843 32.7331L49.6098 30.0157L47.3215 30.707ZM58.1674 24.4139L62.4581 21.6965L54.6157 23.1267L58.1674 24.4139ZM63.5784 21.6488L58.8587 24.6285L63.6023 26.3209L63.5784 21.6488ZM61.8622 43.3645L52.8279 36.7855L46.2011 37.0477L61.8622 43.3645ZM52.4941 50.3965L47.5837 52.8279L54.2819 53.4477L52.4941 50.3965ZM63.65 36.3564L53.7575 36.7616L63.6976 44.0081L63.65 36.3564ZM63.6023 28.3709V26.9645L58.2389 25.0575L51.1593 29.5389L63.6023 28.3709ZM63.6261 28.943L51.7075 30.0395L63.65 33.0907L63.6261 28.943ZM63.65 35.7843V33.6866L50.1581 30.2541L48.6087 33.0192L53.0186 36.2372L63.65 35.7843ZM44.7709 36.5709C44.7947 36.5709 44.8186 36.5709 44.8186 36.5471C44.8186 36.5471 44.8186 36.5471 44.8424 36.5471L52.0889 36.261L48.0604 33.3291C48.0127 33.2814 47.9651 33.2337 47.9412 33.1622L43.579 34.068L44.7232 36.6186C44.7709 36.5709 44.7709 36.5709 44.7709 36.5709ZM41.5767 45.6052L45.4622 45.3668L44.5802 36.9761L37.3575 40.4087L41.386 45.6767C41.4575 45.6291 41.529 45.6052 41.5767 45.6052ZM40.5279 52.2558L41.2907 46.0343L30.4447 49.6814L40.4563 52.375C40.4563 52.3273 40.504 52.2796 40.5279 52.2558ZM57.5715 24.7953L53.4238 23.3174C53.3284 23.2936 53.2569 23.1982 53.2331 23.1267L47.25 24.6046L49.872 29.6581L57.5715 24.7953ZM46.8686 53.3285L47.6075 60.4081L46.7494 61.2424L37.8819 64.2459L36.7854 70.9919L54.1389 53.9959L46.8686 53.3285ZM53.4476 22.7692L62.8633 21.0529L56.3319 18.2639C56.2366 18.2163 56.1651 18.1448 56.1651 18.0494L51.1354 18.7168L53.3523 22.8407C53.4 22.7692 53.4238 22.7692 53.4476 22.7692ZM63.6261 44.7471L63.2686 45.1046L53.0186 50.1581L54.8779 53.3285L54.5918 53.6145L63.6261 44.7471ZM37.3098 64.2221L32.7331 67.011L36.3087 70.4913L37.3098 64.2221ZM37.429 63.8407L40.3133 52.8279L31.9465 58.9064L37.429 63.8407ZM64.1744 28.3232L66.7488 28.0849L64.1744 27.1552V28.3232ZM57.2377 10.8744L51.8505 15.9517L56.1889 17.8587L57.2377 10.8744ZM72.3505 35.4744L68.2267 28.4901C68.2029 28.5139 68.1552 28.5378 68.1075 28.5378L64.1982 28.8953L64.222 33.2575L72.2552 35.3075L72.3505 35.4744ZM70.7296 35.4982L64.222 33.8296V35.7605L70.7296 35.4982ZM56.761 17.7872L63.6023 20.7192L63.9837 21.3628L57.5953 10.5407L57.8337 10.9221L56.761 17.7872ZM72.4459 35.6174C72.3505 35.7366 72.279 35.8796 72.1837 35.9988L64.2459 36.3325L64.2936 44.1035L72.6366 35.9273L72.4459 35.6174ZM64.1744 26.5593L67.8453 27.8703L64.1505 21.6488L64.1744 26.5593Z" fill="#7FCDEE"/>
<path d="M36.7853 30.2779L31.4458 26.9407L33.0667 24.1756H36.7853H40.5039L42.1249 26.9407L36.7853 30.2779Z" fill="#095270"/>
<path d="M56.8562 17.1912C56.2365 17.0482 55.6882 17.668 55.9981 18.2877C56.0696 18.4308 56.1888 18.55 56.308 18.5976C56.9278 18.8837 57.5475 18.3593 57.4045 17.7395C57.3568 17.4534 57.1185 17.2389 56.8562 17.1912ZM57.5237 9.77786C57.0946 9.77786 56.7609 10.1116 56.7609 10.5407C56.7609 10.9697 57.0946 11.3034 57.5237 11.3034C57.9528 11.3034 58.2865 10.9697 58.2865 10.5407C58.2865 10.1354 57.9528 9.77786 57.5237 9.77786ZM63.6975 21.8157C64.1266 21.8157 64.4603 21.4819 64.4603 21.0529C64.4603 20.6238 64.1266 20.2901 63.6975 20.2901C63.2684 20.2901 62.9347 20.6238 62.9347 21.0529C62.9347 21.4819 63.2684 21.8157 63.6975 21.8157ZM72.2551 35.0453C71.826 35.0453 71.4923 35.379 71.4923 35.8081C71.4923 36.2372 71.826 36.5709 72.2551 36.5709C72.6841 36.5709 73.0179 36.2372 73.0179 35.8081C73.0179 35.379 72.6603 35.0453 72.2551 35.0453ZM67.8214 27.5127C67.3923 27.5127 67.0586 27.8465 67.0586 28.2755C67.0586 28.7046 67.3923 29.0383 67.8214 29.0383C68.2504 29.0383 68.5841 28.7046 68.5841 28.2755C68.5841 27.8703 68.2504 27.5127 67.8214 27.5127ZM63.6975 43.5314C63.2684 43.5314 62.9347 43.8651 62.9347 44.2941C62.9347 44.7232 63.2684 45.0569 63.6975 45.0569C64.1266 45.0569 64.4603 44.7232 64.4603 44.2941C64.4603 43.8889 64.1266 43.5314 63.6975 43.5314ZM47.2975 53.0186C47.2975 52.5895 46.9638 52.2558 46.5347 52.2558C46.1057 52.2558 45.7719 52.5895 45.7719 53.0186C45.7719 53.4476 46.1057 53.7814 46.5347 53.7814C46.94 53.7814 47.2975 53.4476 47.2975 53.0186ZM54.1626 23.0314C54.1626 22.6023 53.8289 22.2686 53.3998 22.2686C52.9708 22.2686 52.6371 22.6023 52.6371 23.0314C52.6371 23.4604 52.9708 23.7941 53.3998 23.7941C53.8289 23.7941 54.1626 23.4604 54.1626 23.0314ZM49.9911 29.1575C49.5621 29.1575 49.2283 29.4912 49.2283 29.9203C49.2283 30.3494 49.5621 30.6831 49.9911 30.6831C50.4202 30.6831 50.7539 30.3494 50.7539 29.9203C50.7539 29.5151 50.4202 29.1575 49.9911 29.1575ZM48.251 32.2802C47.8219 32.2802 47.4882 32.6139 47.4882 33.043C47.4882 33.472 47.8219 33.8058 48.251 33.8058C48.6801 33.8058 49.0138 33.472 49.0138 33.043C49.0138 32.6139 48.6562 32.2802 48.251 32.2802ZM44.89 36.0941C44.4609 36.0941 44.1272 36.4279 44.1272 36.8569C44.1272 37.286 44.4609 37.6197 44.89 37.6197C45.319 37.6197 45.6528 37.286 45.6528 36.8569C45.6528 36.4279 45.319 36.0941 44.89 36.0941ZM41.6004 45.1284C41.1714 45.1284 40.8376 45.4622 40.8376 45.8912C40.8376 46.3203 41.1714 46.654 41.6004 46.654C42.0295 46.654 42.3632 46.3203 42.3632 45.8912C42.3632 45.4622 42.0295 45.1284 41.6004 45.1284ZM40.6946 51.7314C40.2655 51.7314 39.9318 52.0651 39.9318 52.4941C39.9318 52.9232 40.2655 53.2569 40.6946 53.2569C41.1237 53.2569 41.4574 52.9232 41.4574 52.4941C41.4574 52.0651 41.1237 51.7314 40.6946 51.7314ZM37.6911 63.1971C37.2621 63.1971 36.9283 63.5308 36.9283 63.9598C36.9283 64.3889 37.2621 64.7226 37.6911 64.7226C38.1202 64.7226 38.4539 64.3889 38.4539 63.9598C38.4539 63.5546 38.0964 63.1971 37.6911 63.1971ZM47.2975 59.8598C46.8684 59.8598 46.5347 60.1936 46.5347 60.6226C46.5347 61.0517 46.8684 61.3854 47.2975 61.3854C47.7266 61.3854 48.0603 61.0517 48.0603 60.6226C48.0603 60.2174 47.7028 59.8598 47.2975 59.8598ZM36.9283 70.0145C36.3801 69.9191 35.9272 70.3721 36.0225 70.9203C36.0702 71.2302 36.3324 71.4686 36.6184 71.5162C37.1667 71.6116 37.6196 71.1587 37.5243 70.6104C37.4766 70.3244 37.2382 70.086 36.9283 70.0145ZM54.5917 53.0186C54.1626 53.0186 53.8289 53.3523 53.8289 53.7814C53.8289 54.2104 54.1626 54.5441 54.5917 54.5441C55.0208 54.5441 55.3545 54.2104 55.3545 53.7814C55.3545 53.3523 54.9969 53.0186 54.5917 53.0186Z" fill="#3D8AAB"/>
</svg>
