<svg width="42" height="42" viewBox="0 0 42 42" fill="none" xmlns="http://www.w3.org/2000/svg">
<path d="M21.6901 29.7405C19.7807 29.7405 17.9142 29.1744 16.3265 28.1137C14.7388 27.053 13.5013 25.5453 12.7704 23.7814C12.0394 22.0174 11.8479 20.0764 12.2201 18.2036C12.5922 16.3308 13.5113 14.6104 14.8611 13.2599C16.2109 11.9094 17.9308 10.9894 19.8034 10.6163C21.676 10.2432 23.6171 10.4337 25.3815 11.1637C27.1458 11.8937 28.6541 13.1304 29.7156 14.7176C30.7771 16.3047 31.3443 18.1709 31.3453 20.0803C31.3439 22.6411 30.3264 25.0967 28.5162 26.9079C26.7059 28.7191 24.2508 29.7379 21.6901 29.7405ZM21.6901 11.4372C19.9794 11.4372 18.3072 11.9446 16.8849 12.8951C15.4626 13.8455 14.3542 15.1965 13.6998 16.777C13.0454 18.3576 12.8744 20.0967 13.2085 21.7744C13.5426 23.4521 14.3668 24.993 15.5767 26.2023C16.7867 27.4115 18.3281 28.2348 20.006 28.5679C21.6839 28.901 23.4229 28.729 25.0031 28.0737C26.5832 27.4184 27.9335 26.3092 28.8832 24.8863C29.8328 23.4635 30.3392 21.791 30.3382 20.0803C30.3335 17.7888 29.4207 15.5926 27.7996 13.973C26.1786 12.3534 23.9816 11.4424 21.6901 11.4398V11.4372Z" fill="url(#paint0_linear)" stroke="url(#paint1_linear)"/>
<path d="M24.444 22.8568C24.444 24.2379 23.5896 25.2109 22.1471 25.3417V26.9817H21.3524V25.3286C20.4365 25.2014 19.5843 24.7291 18.9314 23.9868L19.5516 23.1393C20.1628 23.8349 20.9847 24.2374 21.8485 24.264C22.7259 24.264 23.376 23.7671 23.376 22.9144C23.376 21.9413 22.6869 21.6065 21.5935 21.2273C20.2935 20.7512 19.1083 20.2883 19.1083 18.6744C19.1083 17.3666 19.9145 16.3596 21.3661 16.2811V14.5679H22.1471V16.3413C22.8797 16.4892 23.5728 16.8266 24.173 17.3274L23.5758 18.167C22.9913 17.6828 22.2949 17.4045 21.5729 17.3666C20.7437 17.3666 20.1626 17.8086 20.1626 18.6038C20.1626 19.4513 20.8815 19.7599 21.8761 20.1313C23.3392 20.6544 24.4486 21.1043 24.4486 22.8411L24.444 22.8568Z" fill="url(#paint2_linear)" stroke="url(#paint3_linear)"/>
<path d="M36.8619 20.1308C36.8625 23.3002 35.8492 26.3896 33.9652 28.9629C32.0812 31.5361 29.4216 33.4631 26.3621 34.4717C23.3026 35.4803 19.9978 35.5194 16.9143 34.5837C13.8309 33.648 11.1248 31.7846 9.17802 29.2568L9.99103 28.644C12.0132 31.2713 14.9076 33.121 18.1727 33.8725C21.4378 34.624 24.8677 34.23 27.8681 32.7587C30.8684 31.2874 33.25 28.8316 34.6001 25.8169C35.9502 22.8022 36.1837 19.4186 35.2602 16.2525C34.3367 13.0864 32.3144 10.3375 29.5437 8.48202C26.773 6.62657 23.4286 5.7816 20.0901 6.09354C16.7516 6.40548 13.6294 7.85468 11.2648 10.19C8.90006 12.5252 7.44187 15.5994 7.1429 18.8797L8.66277 17.3871L9.40846 18.0966L6.60693 20.8555L3.75879 18.0584L4.48636 17.3337L6.10721 18.9306C6.39896 15.0179 8.22769 11.3697 11.2072 8.75637C14.1868 6.14307 18.0839 4.76925 22.0756 4.92502C26.0673 5.0808 29.8411 6.75397 32.6001 9.59122C35.359 12.4285 36.8872 16.2077 36.8619 20.1308Z" fill="url(#paint4_linear)" stroke="url(#paint5_linear)"/>
<path d="M35.1504 34.9181C32.7413 37.3262 29.757 39.0793 26.4804 40.0114C23.2037 40.9434 19.7433 41.0235 16.427 40.244C13.1107 39.4646 10.0485 37.8513 7.53055 35.5573C5.0126 33.2632 3.12235 30.3643 2.03895 27.1353C0.955557 23.9063 0.714913 20.4542 1.33983 17.1062C1.96474 13.7581 3.43451 10.6251 5.60983 8.00407C7.78515 5.383 10.594 3.36072 13.77 2.12889C16.9461 0.897065 20.3842 0.496505 23.7585 0.965176L23.621 1.98364C19.21 1.36998 14.7237 2.32575 10.9462 4.68388C7.16873 7.04201 4.34045 10.6525 2.95581 14.884C1.57116 19.1156 1.71824 23.6992 3.37133 27.8333C5.02442 31.9675 8.07835 35.3893 11.9992 37.5005C15.9201 39.6118 20.4585 40.2781 24.821 39.3831C29.1836 38.488 33.0926 36.0886 35.8649 32.6041C38.6371 29.1197 40.0962 24.772 39.987 20.3211C39.8778 15.8701 38.2073 11.5992 35.2675 8.2548V11.5266H34.2488V6.51069H39.3679V7.52915H35.9908C39.3592 11.3461 41.1471 16.3022 40.9909 21.3898C40.8348 26.4775 38.7464 31.3148 35.1504 34.9181Z" fill="url(#paint6_linear)" stroke="url(#paint7_linear)"/>
<defs>
<linearGradient id="paint0_linear" x1="2.37974" y1="20.0853" x2="21.6901" y2="39.3957" gradientUnits="userSpaceOnUse">
<stop stop-color="#40DDFF"/>
<stop offset="0.192353" stop-color="#14BAE3"/>
<stop offset="0.686424" stop-color="#13B1E6"/>
<stop offset="0.817657" stop-color="#11AADF"/>
<stop offset="1" stop-color="#0B98C5"/>
</linearGradient>
<linearGradient id="paint1_linear" x1="2.37974" y1="20.0853" x2="21.6901" y2="39.3957" gradientUnits="userSpaceOnUse">
<stop stop-color="#40DDFF"/>
<stop offset="0.192353" stop-color="#14BAE3"/>
<stop offset="0.686424" stop-color="#13B1E6"/>
<stop offset="0.817657" stop-color="#11AADF"/>
<stop offset="1" stop-color="#0B98C5"/>
</linearGradient>
<linearGradient id="paint2_linear" x1="16.1728" y1="20.7748" x2="25.3871" y2="24.87" gradientUnits="userSpaceOnUse">
<stop stop-color="#40DDFF"/>
<stop offset="0.192353" stop-color="#14BAE3"/>
<stop offset="0.686424" stop-color="#13B1E6"/>
<stop offset="0.817657" stop-color="#11AADF"/>
<stop offset="1" stop-color="#0B98C5"/>
</linearGradient>
<linearGradient id="paint3_linear" x1="16.1728" y1="20.7748" x2="25.3871" y2="24.87" gradientUnits="userSpaceOnUse">
<stop stop-color="#40DDFF"/>
<stop offset="0.192353" stop-color="#14BAE3"/>
<stop offset="0.686424" stop-color="#13B1E6"/>
<stop offset="0.817657" stop-color="#11AADF"/>
<stop offset="1" stop-color="#0B98C5"/>
</linearGradient>
<linearGradient id="paint4_linear" x1="-12.7929" y1="20.0855" x2="17.4374" y2="53.064" gradientUnits="userSpaceOnUse">
<stop stop-color="#40DDFF"/>
<stop offset="0.192353" stop-color="#14BAE3"/>
<stop offset="0.686424" stop-color="#13B1E6"/>
<stop offset="0.817657" stop-color="#11AADF"/>
<stop offset="1" stop-color="#0B98C5"/>
</linearGradient>
<linearGradient id="paint5_linear" x1="-12.7929" y1="20.0855" x2="17.4374" y2="53.064" gradientUnits="userSpaceOnUse">
<stop stop-color="#40DDFF"/>
<stop offset="0.192353" stop-color="#14BAE3"/>
<stop offset="0.686424" stop-color="#13B1E6"/>
<stop offset="0.817657" stop-color="#11AADF"/>
<stop offset="1" stop-color="#0B98C5"/>
</linearGradient>
<linearGradient id="paint6_linear" x1="-18.9996" y1="20.7749" x2="21.0004" y2="60.7749" gradientUnits="userSpaceOnUse">
<stop stop-color="#40DDFF"/>
<stop offset="0.192353" stop-color="#14BAE3"/>
<stop offset="0.686424" stop-color="#13B1E6"/>
<stop offset="0.817657" stop-color="#11AADF"/>
<stop offset="1" stop-color="#0B98C5"/>
</linearGradient>
<linearGradient id="paint7_linear" x1="-18.9996" y1="20.7749" x2="21.0004" y2="60.7749" gradientUnits="userSpaceOnUse">
<stop stop-color="#40DDFF"/>
<stop offset="0.192353" stop-color="#14BAE3"/>
<stop offset="0.686424" stop-color="#13B1E6"/>
<stop offset="0.817657" stop-color="#11AADF"/>
<stop offset="1" stop-color="#0B98C5"/>
</linearGradient>
</defs>
</svg>
