<svg width="44" height="42" viewBox="0 0 44 42" fill="none" xmlns="http://www.w3.org/2000/svg">
<path d="M1 1.05762V37.2609H18.3986L18.6869 36.3076H1.95335V10.3075H28.4993V24.6934L29.4526 25.2392V1.05762H1ZM1.95335 9.35411V2.01096H28.4993V9.35411H1.95335Z" fill="url(#paint0_linear)" stroke="url(#paint1_linear)"/>
<path d="M24.9668 18.2394H5.85938V19.1927H24.9668V18.2394Z" fill="url(#paint2_linear)" stroke="url(#paint3_linear)"/>
<path d="M24.9668 13.52H5.85938V14.4734H24.9668V13.52Z" fill="url(#paint4_linear)" stroke="url(#paint5_linear)"/>
<path d="M15.4119 22.8867H5.85938V23.8401H15.4119V22.8867Z" fill="url(#paint6_linear)" stroke="url(#paint7_linear)"/>
<path d="M12.2901 27.5367H5.79785V28.4901H12.2901V27.5367Z" fill="url(#paint8_linear)" stroke="url(#paint9_linear)"/>
<path d="M10.8625 32.1842H5.79785V33.1375H10.8625V32.1842Z" fill="url(#paint10_linear)" stroke="url(#paint11_linear)"/>
<path d="M26.0421 27.8965C25.1654 27.3957 24.1421 27.2144 23.1466 27.3836C22.1512 27.5527 21.2452 28.0618 20.583 28.8241C19.9209 29.5864 19.5436 30.5547 19.5154 31.564C19.4872 32.5733 19.8098 33.5612 20.4284 34.3592C21.047 35.1573 21.9231 35.7162 22.9076 35.9406C23.892 36.1651 24.9238 36.0412 25.8272 35.5901C26.7305 35.139 27.4495 34.3886 27.8616 33.4668C28.2737 32.5451 28.3533 31.5089 28.087 30.5349C27.9364 29.9823 27.6782 29.4648 27.3273 29.0121C26.9764 28.5594 26.5397 28.1803 26.0421 27.8965ZM26.8405 33.3783C26.5412 33.9002 26.1094 34.3339 25.5888 34.6356C25.0683 34.9373 24.4773 35.0964 23.8756 35.0967C23.2792 35.0951 22.6935 34.9373 22.177 34.6389C21.6606 34.3404 21.2313 33.9119 20.9321 33.3959C20.6328 32.8799 20.4741 32.2944 20.4716 31.698C20.4691 31.1015 20.623 30.5148 20.9179 29.9963C21.366 29.2118 22.1072 28.6373 22.9787 28.3991C23.8502 28.1609 24.7806 28.2785 25.5654 28.7259C26.3501 29.1745 26.9246 29.9162 27.1628 30.7881C27.401 31.6599 27.2834 32.5907 26.8358 33.3759L26.8405 33.3783Z" fill="url(#paint12_linear)" stroke="url(#paint13_linear)"/>
<path d="M30.2844 35.3542C30.4062 35.1408 30.5167 34.9212 30.6157 34.6964L33.2564 34.0147L33.1206 28.8738L30.4464 28.3328C30.2972 28.039 30.1284 27.7555 29.9412 27.4843L30.7277 24.8769L29.4526 24.1619L28.4992 23.6161L26.2612 22.3386L24.4141 24.3406C24.0286 24.3097 23.6413 24.3097 23.2558 24.3406L21.3873 22.3577L16.9471 24.9532L17.7622 27.5558C17.6573 27.7131 17.5572 27.8728 17.4642 28.0325C17.3415 28.2445 17.2309 28.4633 17.133 28.6879L14.4922 29.3695L14.628 34.5105L17.2998 35.0515C17.45 35.3452 17.6196 35.6287 17.8074 35.9L17.6835 36.3099L17.3975 37.2632L17.0233 38.5074L21.4874 41.0576L23.3345 39.0555C23.72 39.0865 24.1073 39.0865 24.4928 39.0555L26.3613 41.0385L30.8087 38.4263L29.9864 35.8308C30.0937 35.6688 30.1914 35.5091 30.2844 35.3542ZM29.8291 34.1148C29.722 34.3777 29.5978 34.6333 29.4573 34.8799C29.3425 35.082 29.2168 35.2777 29.0808 35.4662L28.9401 35.6592L29.4383 37.2561L29.6766 37.9878L26.5496 39.8182L24.8813 38.0426L24.6429 38.0688C24.1678 38.1223 23.6881 38.1223 23.2129 38.0688L22.9746 38.045L21.3205 39.8373L18.1721 38.0402L18.4104 37.2466L18.6988 36.2932L18.8752 35.7045L18.7346 35.5115C18.4783 35.1678 18.2579 34.7989 18.0768 34.4104L17.9743 34.1935L15.5909 33.7168L15.4932 30.0917L17.8575 29.4839L17.9481 29.2623C18.0552 28.9987 18.1794 28.7423 18.3199 28.4949C18.4374 28.2905 18.5655 28.0924 18.7036 27.9014L18.8418 27.7083L18.1125 25.3798L21.2419 23.5494L22.9102 25.325L23.1486 25.2964C23.6238 25.2438 24.1034 25.2438 24.5786 25.2964L24.8169 25.3226L26.471 23.5279L28.5231 24.6982L29.4764 25.2439L29.6194 25.325L29.4764 25.8017L28.902 27.6583L29.045 27.849C29.1983 28.0547 29.3377 28.2705 29.4621 28.4949C29.5479 28.6426 29.6266 28.7928 29.7004 28.9477L29.8029 29.1646L32.1863 29.6413L32.284 33.264L29.9197 33.8765L29.8291 34.1148Z" fill="url(#paint14_linear)" stroke="url(#paint15_linear)"/>
<path d="M41.3723 23.7638C41.4462 23.6351 41.5153 23.4993 41.5797 23.361L43.4578 22.8843L43.3577 19.071L41.451 18.6849C41.3626 18.5209 41.2656 18.3618 41.1602 18.2082L41.7203 16.3515L38.417 14.4663L37.1013 15.8963C36.8728 15.8808 36.6435 15.8808 36.4149 15.8963L35.0993 14.4758L31.815 16.3968L32.3942 18.2487C32.3346 18.3417 32.275 18.437 32.2202 18.5347C32.1654 18.6324 32.0772 18.7993 32.0129 18.9375L30.1348 19.4142L30.2349 23.2276L32.1416 23.6113C32.2296 23.7749 32.3259 23.934 32.4299 24.0879L31.8722 25.9422L35.1756 27.8298L36.4912 26.3998C36.7197 26.4153 36.9491 26.4153 37.1776 26.3998L38.5075 27.8131L41.7727 25.8993L41.1936 24.0498C41.2579 23.9545 41.3175 23.8615 41.3723 23.7638ZM40.7932 22.7771C40.7257 22.954 40.646 23.126 40.5548 23.2919C40.4774 23.4293 40.3923 23.5622 40.2998 23.6899L40.1592 23.883L40.6526 25.4608L38.6744 26.6167L37.5399 25.4131L37.3015 25.4393C36.9847 25.4743 36.665 25.4743 36.3482 25.4393L36.1099 25.4155L34.9897 26.6286L33.0043 25.4941L33.481 23.914L33.3404 23.7209C33.1683 23.4892 33.0198 23.2409 32.8971 22.9797L32.797 22.7628L31.1739 22.4363L31.1143 20.1482L32.7159 19.7359L32.8041 19.5143C32.8726 19.3378 32.9522 19.1659 33.0425 18.9995C33.121 18.8622 33.2069 18.7293 33.2999 18.6014L33.4405 18.406L32.9543 16.8378L34.9277 15.6818L36.0622 16.8735L36.3005 16.8449C36.6173 16.8097 36.9371 16.8097 37.2539 16.8449L37.4922 16.8711L38.6124 15.6556L40.5977 16.7901L40.1211 18.3726L40.2641 18.5633C40.4356 18.7941 40.5833 19.0416 40.705 19.3022L40.8075 19.519L42.4282 19.8479L42.4901 22.1336L40.8885 22.5483L40.7932 22.7771Z" fill="url(#paint16_linear)" stroke="url(#paint17_linear)"/>
<path d="M38.3662 18.3917C37.8203 18.082 37.1949 17.9411 36.5689 17.9867C35.9429 18.0323 35.3445 18.2624 34.8493 18.648C34.3541 19.0336 33.9843 19.5573 33.7866 20.153C33.5889 20.7487 33.5722 21.3896 33.7387 21.9948C33.9051 22.5999 34.2472 23.1422 34.7217 23.553C35.1962 23.9638 35.7818 24.2248 36.4045 24.3029C37.0273 24.381 37.6592 24.2727 38.2205 23.9918C38.7817 23.7109 39.2472 23.27 39.5579 22.7247C39.972 21.9915 40.0792 21.1243 39.8559 20.3124C39.6326 19.5005 39.097 18.81 38.3662 18.3917ZM38.7213 22.2456C38.5034 22.6283 38.1768 22.9378 37.7829 23.1349C37.389 23.3319 36.9455 23.4077 36.5085 23.3526C36.0715 23.2975 35.6607 23.114 35.328 22.8254C34.9954 22.5367 34.7558 22.1559 34.6397 21.731C34.5235 21.3062 34.536 20.8564 34.6756 20.4387C34.8151 20.0209 35.0755 19.654 35.4237 19.3843C35.7718 19.1145 36.1922 18.9541 36.6316 18.9234C37.071 18.8927 37.5096 18.993 37.8919 19.2116C38.4024 19.5057 38.776 19.9895 38.9314 20.5578C39.0867 21.1261 39.0112 21.7327 38.7213 22.2456Z" fill="url(#paint18_linear)" stroke="url(#paint19_linear)"/>
<defs>
<linearGradient id="paint0_linear" x1="-13.2263" y1="19.1593" x2="21.9512" y2="46.8057" gradientUnits="userSpaceOnUse">
<stop stop-color="#40DDFF"/>
<stop offset="0.192353" stop-color="#14BAE3"/>
<stop offset="0.686424" stop-color="#13B1E6"/>
<stop offset="0.817657" stop-color="#11AADF"/>
<stop offset="1" stop-color="#0B98C5"/>
</linearGradient>
<linearGradient id="paint1_linear" x1="-13.2263" y1="19.1593" x2="21.9512" y2="46.8057" gradientUnits="userSpaceOnUse">
<stop stop-color="#40DDFF"/>
<stop offset="0.192353" stop-color="#14BAE3"/>
<stop offset="0.686424" stop-color="#13B1E6"/>
<stop offset="0.817657" stop-color="#11AADF"/>
<stop offset="1" stop-color="#0B98C5"/>
</linearGradient>
<linearGradient id="paint2_linear" x1="-3.69434" y1="18.7161" x2="-3.59945" y2="20.618" gradientUnits="userSpaceOnUse">
<stop stop-color="#40DDFF"/>
<stop offset="0.192353" stop-color="#14BAE3"/>
<stop offset="0.686424" stop-color="#13B1E6"/>
<stop offset="0.817657" stop-color="#11AADF"/>
<stop offset="1" stop-color="#0B98C5"/>
</linearGradient>
<linearGradient id="paint3_linear" x1="-3.69434" y1="18.7161" x2="-3.59945" y2="20.618" gradientUnits="userSpaceOnUse">
<stop stop-color="#40DDFF"/>
<stop offset="0.192353" stop-color="#14BAE3"/>
<stop offset="0.686424" stop-color="#13B1E6"/>
<stop offset="0.817657" stop-color="#11AADF"/>
<stop offset="1" stop-color="#0B98C5"/>
</linearGradient>
<linearGradient id="paint4_linear" x1="-3.69434" y1="13.9967" x2="-3.59945" y2="15.8986" gradientUnits="userSpaceOnUse">
<stop stop-color="#40DDFF"/>
<stop offset="0.192353" stop-color="#14BAE3"/>
<stop offset="0.686424" stop-color="#13B1E6"/>
<stop offset="0.817657" stop-color="#11AADF"/>
<stop offset="1" stop-color="#0B98C5"/>
</linearGradient>
<linearGradient id="paint5_linear" x1="-3.69434" y1="13.9967" x2="-3.59945" y2="15.8986" gradientUnits="userSpaceOnUse">
<stop stop-color="#40DDFF"/>
<stop offset="0.192353" stop-color="#14BAE3"/>
<stop offset="0.686424" stop-color="#13B1E6"/>
<stop offset="0.817657" stop-color="#11AADF"/>
<stop offset="1" stop-color="#0B98C5"/>
</linearGradient>
<linearGradient id="paint6_linear" x1="1.08311" y1="23.3634" x2="1.27152" y2="25.2513" gradientUnits="userSpaceOnUse">
<stop stop-color="#40DDFF"/>
<stop offset="0.192353" stop-color="#14BAE3"/>
<stop offset="0.686424" stop-color="#13B1E6"/>
<stop offset="0.817657" stop-color="#11AADF"/>
<stop offset="1" stop-color="#0B98C5"/>
</linearGradient>
<linearGradient id="paint7_linear" x1="1.08311" y1="23.3634" x2="1.27152" y2="25.2513" gradientUnits="userSpaceOnUse">
<stop stop-color="#40DDFF"/>
<stop offset="0.192353" stop-color="#14BAE3"/>
<stop offset="0.686424" stop-color="#13B1E6"/>
<stop offset="0.817657" stop-color="#11AADF"/>
<stop offset="1" stop-color="#0B98C5"/>
</linearGradient>
<linearGradient id="paint8_linear" x1="2.55171" y1="28.0134" x2="2.82578" y2="29.8799" gradientUnits="userSpaceOnUse">
<stop stop-color="#40DDFF"/>
<stop offset="0.192353" stop-color="#14BAE3"/>
<stop offset="0.686424" stop-color="#13B1E6"/>
<stop offset="0.817657" stop-color="#11AADF"/>
<stop offset="1" stop-color="#0B98C5"/>
</linearGradient>
<linearGradient id="paint9_linear" x1="2.55171" y1="28.0134" x2="2.82578" y2="29.8799" gradientUnits="userSpaceOnUse">
<stop stop-color="#40DDFF"/>
<stop offset="0.192353" stop-color="#14BAE3"/>
<stop offset="0.686424" stop-color="#13B1E6"/>
<stop offset="0.817657" stop-color="#11AADF"/>
<stop offset="1" stop-color="#0B98C5"/>
</linearGradient>
<linearGradient id="paint10_linear" x1="3.26553" y1="32.6609" x2="3.61215" y2="34.5023" gradientUnits="userSpaceOnUse">
<stop stop-color="#40DDFF"/>
<stop offset="0.192353" stop-color="#14BAE3"/>
<stop offset="0.686424" stop-color="#13B1E6"/>
<stop offset="0.817657" stop-color="#11AADF"/>
<stop offset="1" stop-color="#0B98C5"/>
</linearGradient>
<linearGradient id="paint11_linear" x1="3.26553" y1="32.6609" x2="3.61215" y2="34.5023" gradientUnits="userSpaceOnUse">
<stop stop-color="#40DDFF"/>
<stop offset="0.192353" stop-color="#14BAE3"/>
<stop offset="0.686424" stop-color="#13B1E6"/>
<stop offset="0.817657" stop-color="#11AADF"/>
<stop offset="1" stop-color="#0B98C5"/>
</linearGradient>
<linearGradient id="paint12_linear" x1="15.1497" y1="31.6858" x2="23.8776" y2="40.4137" gradientUnits="userSpaceOnUse">
<stop stop-color="#40DDFF"/>
<stop offset="0.192353" stop-color="#14BAE3"/>
<stop offset="0.686424" stop-color="#13B1E6"/>
<stop offset="0.817657" stop-color="#11AADF"/>
<stop offset="1" stop-color="#0B98C5"/>
</linearGradient>
<linearGradient id="paint13_linear" x1="15.1497" y1="31.6858" x2="23.8776" y2="40.4137" gradientUnits="userSpaceOnUse">
<stop stop-color="#40DDFF"/>
<stop offset="0.192353" stop-color="#14BAE3"/>
<stop offset="0.686424" stop-color="#13B1E6"/>
<stop offset="0.817657" stop-color="#11AADF"/>
<stop offset="1" stop-color="#0B98C5"/>
</linearGradient>
<linearGradient id="paint14_linear" x1="5.11007" y1="31.6981" x2="23.829" y2="50.4623" gradientUnits="userSpaceOnUse">
<stop stop-color="#40DDFF"/>
<stop offset="0.192353" stop-color="#14BAE3"/>
<stop offset="0.686424" stop-color="#13B1E6"/>
<stop offset="0.817657" stop-color="#11AADF"/>
<stop offset="1" stop-color="#0B98C5"/>
</linearGradient>
<linearGradient id="paint15_linear" x1="5.11007" y1="31.6981" x2="23.829" y2="50.4623" gradientUnits="userSpaceOnUse">
<stop stop-color="#40DDFF"/>
<stop offset="0.192353" stop-color="#14BAE3"/>
<stop offset="0.686424" stop-color="#13B1E6"/>
<stop offset="0.817657" stop-color="#11AADF"/>
<stop offset="1" stop-color="#0B98C5"/>
</linearGradient>
<linearGradient id="paint16_linear" x1="23.4733" y1="21.1481" x2="36.8367" y2="34.471" gradientUnits="userSpaceOnUse">
<stop stop-color="#40DDFF"/>
<stop offset="0.192353" stop-color="#14BAE3"/>
<stop offset="0.686424" stop-color="#13B1E6"/>
<stop offset="0.817657" stop-color="#11AADF"/>
<stop offset="1" stop-color="#0B98C5"/>
</linearGradient>
<linearGradient id="paint17_linear" x1="23.4733" y1="21.1481" x2="36.8367" y2="34.471" gradientUnits="userSpaceOnUse">
<stop stop-color="#40DDFF"/>
<stop offset="0.192353" stop-color="#14BAE3"/>
<stop offset="0.686424" stop-color="#13B1E6"/>
<stop offset="0.817657" stop-color="#11AADF"/>
<stop offset="1" stop-color="#0B98C5"/>
</linearGradient>
<linearGradient id="paint18_linear" x1="30.4525" y1="21.1529" x2="36.8018" y2="27.4979" gradientUnits="userSpaceOnUse">
<stop stop-color="#40DDFF"/>
<stop offset="0.192353" stop-color="#14BAE3"/>
<stop offset="0.686424" stop-color="#13B1E6"/>
<stop offset="0.817657" stop-color="#11AADF"/>
<stop offset="1" stop-color="#0B98C5"/>
</linearGradient>
<linearGradient id="paint19_linear" x1="30.4525" y1="21.1529" x2="36.8018" y2="27.4979" gradientUnits="userSpaceOnUse">
<stop stop-color="#40DDFF"/>
<stop offset="0.192353" stop-color="#14BAE3"/>
<stop offset="0.686424" stop-color="#13B1E6"/>
<stop offset="0.817657" stop-color="#11AADF"/>
<stop offset="1" stop-color="#0B98C5"/>
</linearGradient>
</defs>
</svg>
